<mxfile host="app.diagrams.net" modified="2023-05-01T16:10:31.715Z" agent="Mozilla/5.0 (Windows NT 10.0; Win64; x64) AppleWebKit/537.36 (KHTML, like Gecko) Chrome/112.0.0.0 Safari/537.36 Edg/112.0.1722.64" etag="XRWVnqR8ob7gJiX8wKqZ" version="21.2.3" type="github">
  <diagram name="Page-1" id="U8kpgdIWMR4mq0NQo1aB">
    <mxGraphModel dx="1050" dy="1681" grid="1" gridSize="10" guides="1" tooltips="1" connect="1" arrows="1" fold="1" page="1" pageScale="1" pageWidth="850" pageHeight="1100" math="0" shadow="0">
      <root>
        <mxCell id="0" />
        <mxCell id="1" parent="0" />
        <mxCell id="5HoQ82C4X57VyinW_T0t-5" value="Discovery Server" style="shape=process;whiteSpace=wrap;html=1;backgroundOutline=1;" vertex="1" parent="1">
          <mxGeometry x="720" y="-263.2" width="120" height="60" as="geometry" />
        </mxCell>
        <mxCell id="5HoQ82C4X57VyinW_T0t-7" value="" style="edgeStyle=orthogonalEdgeStyle;rounded=0;orthogonalLoop=1;jettySize=auto;html=1;" edge="1" parent="1" source="5HoQ82C4X57VyinW_T0t-6" target="5HoQ82C4X57VyinW_T0t-5">
          <mxGeometry relative="1" as="geometry" />
        </mxCell>
        <mxCell id="5HoQ82C4X57VyinW_T0t-6" value="" style="shape=image;verticalLabelPosition=bottom;labelBackgroundColor=default;verticalAlign=top;aspect=fixed;imageAspect=0;image=data:image/png,iVBORw0KGgoAAAANSUhEUgAAAuEAAAB/CAYAAABBsxyIAAAgAElEQVR4nOy9Z3fcSLa1+UTAI71PWlG2u++9s9Z8mP//L2be210llUQjmvQeHvMhAJCUKFty3YW9FqsoJgkEEIHMHefss4/4f/7v/yulRIkSJUqUKFGiRIkSPwzyZw+gRIkSJUqUKFGiRIm/GkoSXqJEiRIlSpQoUaLED4b+swfwKUgp0XUd27axHQfHcXErLq7jqp/ZNqZlYZkWhmlgGCa6rqNpEik1pBTZkfL/pyRJSpIkxHFEFEWEYUgYhPiBT+D7eJ6H53lsd1u2my277Zbtbovv+4RhmB2mVPGUKFGiRIkSJUqU+Dr8MiRcCIEQAiml+tI0NCkxDAPHcak3GjRbLTqdDu12h1a7RaPRpNFoUK3WqFaruBUXx3GxLAvTNNE1DalpxbEBkiQhSRKiKCIIAjzPY7fbsdtuWK/XrFYrlssli8Wc2XTGZDJmNp0ynU5ZLBfstlviOCaOY5I4Lo6XpilpScxLlChRokSJEiVKfAZ+CRIuMuJtGAa2ZeE4DrarCLXrulSrVWq1GvV6g3qjTr3eoFbLiLdbwXVd9TeWjWEY6LqOvEO8753rDtnXdQ3TNEjTBEgRQqBpOoZpYts2ruNSq1Vpt9t0FwtWqxWbzYbtdstut2W73eLtdgS+TxCGJHFcEvESJUqUKFGiRIkSn8QvQcKlEJimSaVSodlo0h8M6PX7dHs9Op0uzUaDSrWK4zhYlo1pmRiGkp7kpFvXdXRNQ3sn+i3eIeM5AVf/V6TbNC0cxyWuR0RRrOQpYUgYBASBj+d7eDuPzWbDYjFnPBozGt1wc3PDaDRiPp/Beo2fRcRLlChRokSJEiVKlPgYfjwJz0iwpmmYhoFl2biuQ6Vao9Fs0ul0GO7tMRgM6ff7dLpdGvUGjmNjGCZS0+6RaCHkLdnOjv8u6X5/COpnmqYjZYphGIWcJP/KJSZJkpDEMWEU4e12LJZLRcCvrzNZTJvJeMR8NmO1XheR8TAMiTK5ylfrx+9uJKAYU4kSJUqUKFGiRIl/b/xwEi4LnbdDvd6g1+vR7XbpdLt0Ol1a7TbNZotms0m9oWQnruOgGwZaFuH+FsiP8znHy8m467o4rovrOjSbKmJ/NJsxm06ZTMaMJ2PGoxHTyZTlYsF2uyUMA5KvJM75ZkXTNEhTwjAsiXiJEiVKlChRosR/AH4ICS8KLjUNy7KoVCo0MtnJo0cnHBweMhzu0e12qdVrmKYqrFSSk1vy/a0I+NeO3zAMpJSYpkmj0WQ43MPzdqxXKyaTCVdXl5ydnXFxdsb19TWz2YzNZk0QBMRxTPqZBDq/V7quY1qWitTHMZvNhjAMSxJeokSJEiVKlCjxb47vTsJVsWNGvms1Go0GnU6HQa/PcH+fw6Nj9vb26fV7NJstHMf5aWT7Y8ivQ9M0TNMsfh7HMZ7n0Wy1qNeVU0u9XqfZanF9fc10MmG+mLNerwk875ORbCElumHg2A626+C6LqZhEgQBURQTxTEkyY+45BIlSpQoUaJEiRLfCd+VhOfRa8NQkeP9w0OOjo85Pjpm/+CAXq9HrV6nUqkqsmmavyQB/xjuRsZN06LZbHJwcMhoPOLt+Tnn52e8efOai4sL5klCGAQfJeKalDi2TafToZFJcnRdZ71es9tu8bwd8Q++xhIlSpQoUaJEiRLfFt+FhOeWg5Zp4roVpZ8eDjl5/JhHj044Oj5mb7hHvdHI3E20rLHOv18DTyGEskTMyHi1WqXZaqnIeK1GpVrFtCxM0+LauWS5WLLdbgnCgDiK3iPjUkps16U3GDAYDGg0m0ghGY/H3FxdIaX2k660RImvQy7nKoqm8+LnNCUtszolSpQoUeIvim9Owgv5iWnRbDUZ7u1xdHTMwcEhB4eHDAZDur0ezWYD23Z+qtb7W+GuVCXXsSvbRA3LtqlWq7TbHc7PTjk7PeXm5prlYsHO84jyDpwZNF2nUqmyv7/P0fExjUaTKCPrlmP/W25USvx1cevJb6DptxvtOFZWoHHZ5KpEiRIlSvxF8e1IuBDILCpsOw71ep39/QOePX/B8xcvODw8ot1uU63VcBwHwzD+Iwj4Q5BSYlkWrVYb286cVPp9up0OlmVjmAaariNmM7bbrWryg5KiWJZFvV5nMBxyeHhIvd7A85RHuW3baLoqUi2JS4lfGUKIorjYsixcx8WwLHRNA1KiMGK72+J5HmEQEEWRsvMsUaJEiRIl/iL4ZiRcSolhmlRcl3a7w97+Po9OTnj+/AVPnj5lMBjiOA6maf7HR3NziYqu61imSbVSoVatYdk2AJZlYdk2pmkymUzYbDaQpliWRaPZot1u06g3qNXqNBoNLMumXq/jOG7hlZ4kSZnKL/HLQtN1HNelXq/TaCj//0qlgmmapGmK73usFktmizmz2YzlYoG325WbyxIlSpQo8ZfBNyPhuq5TqVTo9Xo8enTCf//3/3Dy+DHD4ZBmq3Uv+v1XgpASXddxXZfBYIBlWrTabVqtFtVKFdN8zeXlJUkc02w22d/fo9fvoxt6ERk0LTPzJ3dxHJvt1iAMgrJAs8QvC8uy6Ha7HB4dcXz8iJOTx3TaHUzbIkkSttst08mE8/Mzfv/tN16/ekXg+6UPfokSJUqU+MvgT5Hwu/7Z9UaDXn/A0fExz54958Xf/87BwSH1eg3DMNF1/T9WfvIxCCEgyxLUNA3HcTEtCyk1hJRZ105JGEZ0u10ODg/ptDsEfsBsNiukLYau0+l06PX7RFHEYj4njksaXuLXQv6e4Lou/f6AJ0+e8uz5Cx6fnNDudLEsiziO2e12zGZTXNfF9zyWizm73RbP94lKL/wSJUqU+K4QApAgpEDkfg8ppHFKmmTfl2/D3x1/ioTnBLHeaDAc7nHy+AnPnj/n5PFj9vf3aTabhfzkr0a+7yLffOQbllarRZIkaLqG49jYtk0QBso/vT9ASsloNGKxWLBZr2l3OqRpyv7+geqaGSf4no/neT/70kqUKHB3jddqNYbDPR4/fsKTx0/o9XtUqzUMwyBJEhzHwbIswiBQ3WZHIxUdn05J4rjcYJYoUaLEd4IQIDSQhkCzBJotEQLiMCX2UpIgIYmyXy6J+HfFV5HwW/9vg1qtziAj4H//xz94/uIFe3v7VCqVosPkX5mAP4Q8VW9ZFq7rYts2nudRq9WpVCrM53NG4xGb9ZrFYo4fBLRaLQbDIQjBerXi5vr6Z19GiRLvQWbNrKrVGr1+j8PDQ4bDIbZtZ0WZ3HnvqNFqt+n1+vT6A2bzOdvtFt/zShJe4usgsghf9v1PxR3ykqaUZKbEr4GMgGuWxHAFelVi1iRCQrRLCdcJ4UZ9n4RpGQ3/zvgqEp4XYVarNXqDPo8fP+H5ixc8efKUg4MDWq32X1J68rnIizZN08AwlBxls9mQpimB77NcLhnfjJjNZ+x2O3TdwDRN9vf36XQ61Op1dNP42ZdRosQ93NoR6ti2Ta2qOuTW6vV77wV3LT1dx6VWq1Gr19TGXf/r1Y2U+EYQKrUudUUyfuoyyohLmkKaQBKnpEkKSbm2S/w8pAKESJGmxGxInLaO1ZAYNfXsRF5KsEjwZzHbSUISJ5CULPx74qtIuK7rVCtV+nkR5v/8D0+fPmUwHOK6lZKAfyak1KhUKuzt7TGdTrm6vOLs7IxXL39nNLphvVmTxDEV16Vaq9Lv9xV5yfT1JUr8chACoWnI7EuIj2fChFTEPSfl5XtHia+FECB1MFyJNAXiJ5twpYkgTVLiIEUECXFQBsNL/ETkBFwKDFdSGejUjnTsjkSz1etpCMEqZXspifyA2IM4+uSRS/wJfBEJzzthupUKvX6f45MTnj57xuPHj9nfP6BaqxUFmCU+F4qERFHEdDbl7OyUs7NTZvMZvueTJimTyYRWp0OcJJkNZIVarYZbqRAED3feLFHipyBNSeOEOIoIggDf9wmCAE3T7knT0qxJT5T/nufj+z5REpdrucTnQaYq+6ILNFPpWnVHYFQkmvVzSXguP0ljiIOUaJcQ7VJiL1Ga26hM85f48RBSIAyB7kqshsTpadhdicyYYJqAZqckfopuS4QsZYHfG59Nwu92wmw1WxwdH/O3v/+D58+f0x8MqFarmKZZEvAvQJom+L7PfD7n+uqq6Kh5dXXFer0mjiJIE+bzGavVkiSOcSsVWu0W/f6A1WrFbDZjt9mUGtoSPx1pmhLHMX7gs91uWS2XLBYLVqtV4RGeN5oqftfzWa1WzGczVsslgR+QlOnPEp9CJj3RDEW6rZaG3dYwa4qIC+PnR8JJMilKqAh4sErx5zG7UUS4hjQq13mJHwdVjCnQTInuSHRXortCPS85bcs2jpolM8cUQZm/+b74bBIupcQylRPKYDjk8ZMnvPjb33j06BHVag39L+gB/rXICYjnecznM85OT3n16hVvXr/m8vIt0+mUMAggTdklCavVis16QxTHmIZBs9liMBiwXC7xPK8sZCvxS6BY174i1pPJmKvrS6rVKu1OG9etoOu6+r0owg8CptMp49GI0XjEfDZTXuFp2YSqxMchBEhNoFkSq6lR3dep7OtYzUyKovFTCzMFKEJDShJKYg+CRcLmShBtE6JdDGWav8QPhpQoNxRLqOdEV5vVgoML1OZVkrH2nzjYvwg+ScLTTKOpGQbVWo39gwNOHj/h5OQxB/sHdDrd0gHlCxFFUeGTfHFxwe+//87L33/j4vyc+XSKt90CKvuQJAme56n23r5PmqbYlkWtXqder2MZJrK89yV+EaRJQpwkrDdrrq6uePXyJUmcMBgMqTfqRcfMwA9Yr1ecnZ1xdn7KZDxitV4RRmHZCbbEp5GRcMORmHWJ1ZE4faFIuFSv/xoEQpDGkAQpugmxl7L5yVKZEn9RZARbaqp2QuhkZPudWLcAZPqLPD//+fgkCRcoMmiaFu1Oh7/9/e/84x//xdHxMdVarSDgJQn/fPi+z3g85uzslJe//87/+f/+X85OT5lOxve8v9NUaR7TJCEKAra7LZ63I4pjNE1H15UFZPm0lPjVsN1sOD99g+/tuLq6Yn9/n1arjePYpKl6fTS64erqisu3b5lMJqq+IY7L5GeJT0MIhAG6C3pFoNtKGy6lCuClv9BbohCZH7Mt0e0Eqf1CgytRosRPxSdJuK7p2I5Np91mb3+fk8ePOX70iG63i23bJQH/TCRJQhiGeJ7HeDzi7PSUly9f8vL33zk9fcPo5obddvuerCRNU5IkIQhDNpsNnuchhMB1XarVaubFXt7/Er8WwiBgOpvheR7L1Yr1ckm90cC2MxK+VSR8NlVa8N1uqzplQtmmrcQnIchS66YqypSGQGYSlF+JgOdIk5Qkzr5SKLW2JUqUgM8g4aZp0mq22D844Pj4mL29fTrtDpVKtXRC+UzkLhDr1Yqr62vOz0559eolf7x6xfn5GdPJhN12SxQ9LBJM0pQwykm4T6VSodls0mq3sW07i4aXKPHrII5jkiQhjmOiOCYKQuzJBMMwEKT4mR/+drsl8H0VAS/Jd4nPhUrRKj1rFv3+VTWsSZwS7lKCpSrOjMO0XOslSpQAPkbCswi34zj0+n0enZzw6OSEbrdLpYjAluTvQ7jrABFFEdvNhuvra17+/huvXv7O6z9ecX5+zmQ6JfhEYWWaJARBwGq5ZLvZUKvVqNfrtJpNTMtClALDEr8g0jQliWN2ux1RFKEt5kq+xm1mKIoikiQhKXXgXw8hbgurSnJ3i6xRTpqk2f/5KcFn1QAlZTeK8WfKorCsPS5RogR8iITf6XxXqVXpDwc8evSIo6Njms0WlmWhZS2oS7yPXEKSF2AuFwtGoxHn52f89q9/8eaPP3j79pzxeMw2K8L8GPLizMlkQrPVptFqUa/XsR0HTdcQpRylxC+KnGBHYfizh/IfiVwOKKRUBDxJSiIOkKQkMcQhxLuUcJMS+1nXyh+M2FNRcH+WsJvERCUJL1GiRIYHSbgQAl3XcRyHZrPF3t4+R8eP2Nvbx3XdkoB/Arn8ZLfbMRrd8Ob1a169esnpmze8vbhgMh6zXC0JguCzjhcnCZvNhsvLSxzHpdVsYluWKtzMmkKUKFHiL4isf0OelQyjqCTiQJJA7EOwSvAmCZuLGG+RkIQ//r6kkZKgxF5K5KnGPWn8156fEiVKKDxIwqWU2LZNu91hMBgwGAzpdXs0Go1SB/4A8g+8KIpU8eVux3q9Zjab8fbtBS9f/s6rly+5vDhnNpux2WwIw/CzU/BJkuB7HvPplGmzyXqzIUkSTMPAdhwc18H3vSK1/0tACGRGEAzDQNcNDMNA0zU0XUeTGlKKoq25KlNSEp4kTUmThCRWmmL1FRX3N4pjkjgmSdPPKuITeWbHMDBNE8d2sGwLTVPLPwxDfN/D23n4gV/omR86tsy6xuq6jmma6IaBruvouq7IkKYh81bt2WOSJilJmqhrShLiSEmUwigkCEOiMCSOouK6v/6WC6SmYWRjc1wX0zSRUss2hmpt+r5/Twry0N8bhoFhmOiGujZd0xBSbb7TVM1LGITsvB1BEKhj3dF1F8fK77nrKgmbEKrGIQzZbbcEQaCehYc04fm8aRqmaWIX86auJ4wi/Ny+MwyVrvyd+5dHifV761BH0/L5kpnDk8wkxaJYh2mSEMcJUbb2ojBU482u9XPX39ciX2uarmPlay1fb5qGJjU0XUPXDTRNQqpIeBxH6tlJYqIoVuMPQ8IgJAiD4vl5aK0JKYtn1jQtXMdGNwykkKRpQhBFxRqKsnv+y7zn3EUCSaSIr79I2FxH7MYxsf8TyG+ayRMzSUwap2XgpESJEsAHSLiWtabf29vj8OiIfr9fdMQEShL+DnL5yW63YzGfMx6Pubm55vLtW96+veDi4oLrqyvmsyk7zyP6AgIOShMehiHrzZr1ek0QBEipZd0z27RaLcIgYLPZfHZ0/XtDCoFuGDi2TbVapVZvUK/XqVSrOK6DZdmKFGkaUmoFCc8L+cIwJMgI1m63Y7vdstlsWK1UMV9OApLPJOGGZammMe0Ow+GQXq+HW6mQJimr1Yqbm2uur6+YTqdst1uiIHjv2DIjKJZtF8Wx9XqDSq1Kxa3gOLfXJTVNPSdpqgoTo4gwDAh8H2/nsd6sWa2WzOcLpfXfZhuz9OuLtqSmYd25zv3DA1rNFpZlEycxq+WSq8tLJuMxi8VcFUVm6yXviGuaJpVqlWazSaPRpFqrUam4OLaDYVogVNGlt9sxn824urpiNpuyWW/UBiYrLpaahm3b1Go12p0O+/sHahNv6ERhxGKxUFmhyYT1eoXnecXf3l1DhmFQcSu0Wi36gwHdXg/XdYnjWM3b6IbR9TWL+RzP84ju3D+1EcqP4VKt1anValSr6ppyUp8TW03KgoTnxaS+77HZblmv16yWC+bzOevNBj9/jr8TCc/XmmlZVKpVWtlaq9ZqVKtVHMfBtm1Mw1Sb2iw7GcURcRgRhAG+77Pd7dis16xWKxbzOYvlgk02/viBtaZpGrbjUK/X6XQ67A33qNUbGIZBFIUsV0uur66YjCcslwt22+2vScJBEfEYkjCLQG+Tn0PCS5QoUeIDeI+Ei4w81Wo1Dg4POTo6ptvtYtl28fpfHXeLLvPCS9/3WcznXF1dcnZ2yunpKWdv3nB9c81yoSzYcheIL/3gvtuJ0PcVWVGEyaDdbtPudDJiGvxUEp5HnDVNwzBNXNel2WjS7nTo9nr0+n1arTaNRh3XrWDZNuYdwpomCVEUE4YBnuex3WwU+Vmp9uez2YzJeMx8MWe9XuPtdoSZt3SuPX4oOpkTwm63y6NHJzx//oKTx49pNlskScx4POaPV6+wLAtQDZI2WVr/3WtybIdqrUqr3WG4N6Tf69Nud2i0mtRr6rps20LXjaJFexipCKrneeyydu6z2YzxeMT19TWj0Yj5bMpmuyXwPMIwIkm+PMKo6zqVSoVer8/xyQn/+Md/sb+/T6VSIYoixqMx//rtn7z54w9ARU2jbC3phoFt2VSqVdrtNnt7e/QHA9qdLs1Wk1q1huM4CCkJw7Ag9Lb7L/RTHcGIeBkXRNrQDarVKoPBgONHJ/z9H/9gMBhgWTa+73F9fY3tOOi6DqTEUfw+CS8ycm0Oj455+vw5JycnNBoNdT3jEX+8eoWh6Vm0cVZkE/JshW6Y1KoVmu02nU6XbrdLu92h2VQbDNdVZNw0DTRNR0i1DvMo+2a9ZrFcMJ1OGY1GXF1eMp1OWC6XKpJ/95n+k4Q8j9prReTfplqt0Wq32dsb0usP6Ha6tNpttaGtVLAsG13XM5tSQZKqDbvveWw2W5ar7LkZjbm+vuL6+prpdMJqtcLb7d6LZhuGQb1eZ29vTz0rL17Q6w+wLYsgCBiNRvz2278wzddAqiLspd6/RIkSJb4K90h4/gFg2zaNRpP9/YOiyYZlmiUB57bQTJGqHZucKC6XjMcjLt++5fz8nIuLCy4vLpjNZ4oY/4kIJ9x2IgzDkDAKSZIY0zSp1mrU6w0cZ4Kuz7/hlX4ZcgJh2zbVWo1Gs0W73abb7dHrden2+nS6XZrNFvVaDcd1sSxLSVTukvAsCu77HtvNNru/K5YLFYWcTqfM5zMWiwXL5YLVasVmvWa33eH5XiFtuAtNSiqVCnt7+zx+8oRnz5/fI+Gtdhtd04oN1W63xdvtSOJYRb4tS93nRoNms0Wn06HX66nIbLeXbSwaVGtVtbmwzEy2pYrlwkzG4Pt+JlVaMZvN6U16dLs9bm6uGY/HTKcTFrN5Zt2nshpfsmZM06TdanN0dMTTp894/vx5RsKrRFFEq90uOvV5vsd6uyGOYyquS61eV9fW7dLr9Rju7dHr9Wm32zSaTaqVquoLkJHw9WpJrVYjBaSQxEnMztvhZ82mTNOk3e5wdHTM02fPefbsBcPhEMuy8H2fWq1BGKqNjpKm7PC83b3rkZrK9gz393n89AnPnz/n0ckJzWaTKIxotdpomk6cPRtBJrFJQW2WqlUaLTVf3W6Xbq9Hp92l1W6p+apWcRwXy86yMpnULi+qDnyfzWbNcrViNpvR643pdDqMso3TZDphMZ+rDJTv/6mouNrs3V1ryv2o3VYb2MFwmM2H2kDU6jVcx8XMiuTzAs28HsX3fbbbbbGBnXTV2DvdLqObGyajEbPZlMVimWXQVDde0zRpdzocP3rE8+cveP7ib/R6fWzbxvd9ms0WoAIDvuexXq0/q7i8RIkSJUq8j3skXEqJZVoq+tJq0R8O6PX71Op1DMP4WWP8ZVA0zgkCVqslk8mE66srri4vubi4YDS6ZjadsVwsWC7Vh1sURn+agN8bQ6y6Z/q+p3TJhpnJIKyfZhmZE3AVRWtwdHzMyZPHHB4eMxgMabdaVGqKxFmWrbTUuYb6TsfVNE0xs6i/4zjUqrWCwAZBJuXw/UzGMWM8GnN1dcXFxTk3N9fMZzPWqxXBuyRc16nX65ycnPD06TP29vepVmtFC/VGo8Hh0TFxmhJHEZPRiOV8ThiG6Lq6psPjI46Ojjk8OmZvb49Op0OlUsF2XCULMM1711W4VmRyCJndH9u2qVQrNFst9vb22G23LFdLRqMRZ2ennJ+dcXZ6ytXl5RcX2Tm2w2C4x7PnL3jx4gX9wZBavY5pWiRJQif/xRRWyyXTyQSA4XDIwcEhjx6dcHh0RK/XUzKUPEr8zmap2DzpqmuraZoEvs88a7wDYDs2g+GQp89f8Pz5c/qDPrV6DcMwMS2LJE2J4ghI2Ww3TCZjlsvFvevRNY16vcGTJ0948eJvHB0f0263cRyXNMtSpGmarSFYLhcEvoemabQ7Hfb2D3j67BkHB4d0Oh0lHapUsCwLyzKV5l3X0XT9vXWYJAm2ZeG4DvVGg163x+7wiM1mXTgdvXn9mvPTU84vzpWm/ytlGXlwQ8/W6cHREUdHR/fXWrWaZVlsLMvCNE0MXS+ySPkxcllR7mBlWRa1Wp1ut8fx8SOWqyXjmxvOzs44O3vD6Zs3XL69JIqURM5xHIaDIc+eveDp8+f0ej1qtVqh7Vf2kkpTvlwsuLm5hp+39y9RokSJf2vcI+Eqne3SarXodru0Wirt+VdqCJN/AKsCuqjQ80aRKmzyfI/tdst8NmN0c8Pl5SVv314U+tbNZk3gB7eFYum3dSpIUpUqD4IQx0kxLQvHcYoCvB8N9aGfO+k02T9QxOfZ8xdKypR9iKvxyULe8S5xyJGmKYZhFJKfNJOY3J0Xb7djsVwwGY9pd9pUa1Wq1SpvLy4YaRqr5bIofM1JmuO49PoDBsMhrWYL27YzKQS4jkun0yGMQubTKdUsUm+aJo1mi+FwjydPn3By8pij40cMh0PqjQa6rvTseQHdXeJ995ry1/JizjS1SZJbOZPveXS7XWq1Km5WwKjrOjc312zWazzff7hw8R2Ypkmr1WJ//4C9/X0ajQa27RSFjPkYdttttmkcUdtueXRywuOTx5w8ecLh4SGtVrsYw7vXliPfbOiazm635fTNa0zLfG8se3v77O3tZ+8jaiy37kop6/WaN29eF/UmdyE1jUrFZTAcsr+/T6fTxXUrxeYpb86SJDGbzZrTN6ekcYLtOGpTcaLkFPv7BzSaTRzbxsjW4b2i4A+sQ7UptHDd9Pb9IIpodzpUq1Usy0LXdYIoghTW69UXFVynWUGyYRg4rkuj2VRr7cnTbK0dMxgOaTQaxSYo3wgVc6IGfv++Za/lBZaO4xSZNN/3VLO1ag3HdTI9vMH1zTWb1QrHdTP5yx57wz2qtVpB6HVdL863XC5pNJsYxvvzVuI7QKmNkJpAaLdrNU1T0lgVf/NwLfk3HYMQWXMkKSB/jO96sacpJH8iY/5nziHU3wiJukdS3S/k3fulCmOTMCWJlGVlilAuY38WD8xRfi1oImsodef37xXsZraV8d3r5D+mgDcVIEjV/GhCzUveNDZVDa2S6NsXLOf3XEhACnX+/GciXxsN2gUAACAASURBVCcPN/lKUyCfl2w+0iRV6yfvOfANxnuPhJuGQa1ep9fvqwh4tYZp/rU8wfNIdy4d2Gy3bDbrorhptVwyn89ZzOfM5jNms5mSSEynrDeqaPJzCNPX4q4WHVJs28ZxXEzzx0fC1ZuMzKQHbZ48fcrjJ085efyEo+Mj+r0+1VrtizZxnyN5siwL01IZgGq1RrPVpt3u4FYqaLpaq5v1Gs/zFAkXEtM0VJq/Vsdx3XsuP7ph4FYqNBtNGs0mruvSqDdwXJejoyOOjh9x/EhZdPZ6PUXoHOezx/sugb39ZFHzmZM5TdOLos96vc6b0zpnb94wnU7xPO+TUfFcE95sNWlmG40825BLDaSUtFpt9vb3Wa1XRGHE06dPOTo+Zjjco9VuU6lUCqL3sWuybRshBI2Gume6pt8bi+u6NJsNtRmwbseSz2G93qDZaOC6FTT9/RpxKQSmaVKr1Wk0mlQqlXtNwkzTpFqt0emEDAZD9vb2Cg354ydPOT4+Zri3T6vVwnGcL2ow9tC8phn513QNIWRWEKkThCESuLlR5NT3/c8+hxBCSW729jg+fsTx8SMenTxib++Abk85Urmu+8Aa+rxjv3u9lmmiaSqCbtkWlUqFRr1B4/SUN29eU6moDW2j0cyyKGbxrAghMC2LmhCZBM4pnrcS3xkCpCHQbYlmCaSuyEQSp8ReQuyrAlTi70fEhQChg2ZKNFOgWYq8pGFKHEAcJMThnyOPf+YcQgo0Q6DZAmkJ9OzvpamInxCQRBB5MeE6IVxnhbppqljin8UDcyR1ijEJnVuyl3KvcDgJUuJAednHQUocJBB9503VD4QQKSK/P45AdyRSE6RJVji9S4g8vq2FaL4p0kGaEmkKNFNtAIREzY8pkKYi4/eQQhqr9ZIECUkEaaTWX7RLIEhJ4lSd4E8O+d4nn2EYNJstBoMh/f4A13V/uQh4ESHNVuf9f6fFor0lKw/8LE2z+6ZeS7OiKlXUFOF5HpvNmvVyxXwxZzabMZtOmU4nTCcTptMpq+USz9vh+wF+4BP4mU1b8n3bb6epKmILw7AgVkqOYiK1H0zCM4lFtVZlMBzy93/8F89fvGBv/4BWq1WQpgcJzTtzCLfE56HI5F3ouobjqIhxpVJVZKXeQEpJ4PuFc0oQBCRJghCgSQ3LNAtpxd11XUhFHCdzclEb0f5gwN/+9ncenZzQ7w9oNBqF1d7HxvdF9zCLWLqui6br2I6jSGezhVupEoWR2nClKX4QvFe8eBdSSkzLws2cWu5uNO5KHipVRfqSJEYIyePHj+n3B1TvZCw+B0Xx4x0JTnFdUmKYJrbjqKZSd17PI/K2bWM7jnL4eOCc+b2xbbvQbd8dW6HXr1bpdLocHh3T6XQZ7u3x9OlT+oNhkSX6Ftaq+d9blk2n01HRaSkV6U6UbWMunfrUe4AQorAebHc6nJw85r/+6785efyY/mBIM9sM5s/Pt6rHkZqmuiD3ejiOrTrvttpUazWiOMbQdWq1Gm7FLSRuD0ldLNvCMExk2a33+yOLruqWwGpqGBWJbqnoXhymBEtBuEkK95f0w28Rf2oMQhfotsCsahgVgV5R6zL2VTOkcCNgExMn6deRx685RxHRVARLdyVmVaJXJIYr0V1FgDUDEIIkSPHXEm8cFdH1JEwVB//SMRdRexVtl7oimEZdU+c2QbPURsCoSqSh5iyFIuqdhBD7CZGXEu8Swg2E24RoJ4j9hCRUnvfk1/vvSMrl7fwYjsRqSIyaRDMlaQzRLsGfK6ltGmXc7GvXj7zNPuREW7PUGtBdqTZIpspUaKZAc9ScyXdiQGmiCHjsZRujbKMUbQX+UqhnLcjWTvzwpvBzcV+OYprUGw0GA6UFzz88fxXkkoS4kIiorzwynCRxIV9IklzKkNz3aU7T4t+5D3WS+1DHMX4QqAj4ZsN6tWKxXLCYz5nPZuprPmc+n7Hd7QpC9CMbY8RJgh/4eN6OMAwxTAPHVbrdH71hyj+we/0+B0dHnDx+zPHxI9qdDnZGmh7C3Wh+csctpvBFvhMxfYh8CCExDJml2ouDsljMGY9GzGaqcFNuNvlfFITRuGPndns8cU8/O9xTjiL7mab48PCIWr3+3TrFSimRpomR6cpt28a2bCSw3awhSZBCMptN2X6EhCMVuTVM80Hylv87J2FGpofe39+nntnQfQni3EoyzDagd9oACiHQNb3QXb8r+8i18kr2oiEfIplZpuVj86ZnG5dWu8WjR4+Iooh+v8/B4RHNZvOLrudzkJ9TfWkkScxutyMMlUXoYqEsAHPp1IeQk+Fup8vx8SOePn3Gk6fPOD4+pt5oFFmM7zH+/L7nG3gny2hsN1vSNKXbVTaQ+kPZicInX21Aylr97wypUviaKTBqGk5Pw2pKdCeL7AYJQUXiLRL8SYwfJyTRt7WMTIWKZGqmxGpoOB2J2dQygowiyKsUb6a82ZMw+eLOpF96jjhSGoH83ui2uj9WXcOsK5JnOKDZEt0WSANlrxqk6EuBSFPSUEUzo1SR3S/6GM+kDNJQJE+3JbojMasCo6E2AJqlIvO6BXpFIA0VgVUyFEEap8QhJIFUZM9LCLcQbRKCTaI2VruUaKci47l85k/JfX4g8jkVmpofqyGxGjp2S8NsqHuTJuCvBKmAyE+Jo8xHP/nCCHMW8dbyaHeWCdEtgXQkRka2NUedV0iQZvYz+wMkPCTLTGRrzlcbJbOWEKwTglVKtEkIvaQg419DxItTiyz122g2M9eHLo7j/FKR8CRzUvB9n91uh7fbscsaRwSBakCimpDcNne5Jenv/Dtr/KKkJ6rQ0fc9PM8volmh7+OHAb7nZxHW/HW/cOD40Z3p4sy9Y7Va0WzuCq2taVnIH7xhsiyLbrfHycnjLJraL2oIPkQg8o1UlFnA+b5PFMeqsU+mmc4bk3yMiL8Lw1CWeK12m1azyeXdTUn2PItPHEvXdRqNBs+ePcP3PDrdLsPhXpGW/xHPQh4VTzudwjPdsiyEJvECte4/tOZE9p+HdOl3YRgmzaaSaChS/uVdcHPZ1jyTZK03G6I7G4TPGcvdn/+Zp8gw1Lw9fvKEJE5wK5VCLvQ9oWk6tVqdRycnRFHEbDbj6uqS+WJOmEXDPzRXuq7TbLZ49uIFL178jWfPnrO3t0e90fiha82ybJqtNkdxUmwcBoMhrlv57ucv8WkIkRE5V+K0JLUDDbuniCUI0lBFiM1xwkqg/NC9bzkARaSkFBiOwO1p1I50rK5EMwEhSKOUYJ2iX0mijZIW8CXR+K85h5eQJErqYdYkTk/H6cqM4KkIuNRVZF1m+nCANJFoVkKaaEoGEqeZ7ODLQpm5tMKsaZgNDbut4bQlZl2iVwSaqUih0kCDpov3JA9KYwxpLJXOOJJKLrODcJMQLBP8ecJuHBMsBNEuJg7+fYLhAiVB0UxFwGsHBk5fx2pKjGxTkqZgzBNIuPXxDxJ1X77kXNlmzGpIzLqW/V+qrJEj0BxUJkK71YULLdtIZdKud5EmKUksbmVDCSRBSuKl+MuE3ShmN0oQ85hgFavA79eS8Fzr57ou9XqdZktZeJk/2JbwbqQ7J9Rh1lEwjCLCIMDzPbzdju12x267UWTcU50Ow6ybXRSqQsq7pPtu5DyKooKE+5l8wfc9dp5XdP+Lo5g082ouOjje+crH+y3wbkHYx5AkidqEbLcEga90xJal/LZ/YGpYuWSotPzh4RGHh0c0W63C+/nuNeWkOwwDvJ3HZrNhs92w3WxUg5UoKiKMlmUVDhCGqVwgzCxqp2cRvDwa986AlE5XStW18qFKi0+sZU3TqNaqHBweEscxtaqyJbzrPHN3Laluj7frJbmj2c71uFLT0HVNuYJkEer8/jxEtHJpTKVSIe11iwZGq9WK+WxedCuMo+jBtSLI3mA+sdlQzWqU9/+HJEM53vfFD/E8j/l8wfXVJednZ8wmEwL/vkf954wl/80/Aym1bCOhYgp5EWH+XnJ3zpI4Jk4S0jvv8iIr1NQ0FeHOiyAfXGf3zqssOTvtDuvBin5/QLvTYTafs1mtipqEd//GMAzqtTr9fp/Hjx/z5MkTDg4O1POT1U986J7l7z9RGOJn6y8MQ+WzHscq45dnloREahJd09ENPVt/5r3ry+c+7XSUTDVJqGXFmCV+PkQm0dBsgVHRMJsSu62irEq3KtAritD5MyV5+OZjkAJhCDRHYjYkdldi9zRyH4A0Ac1OSXZKfiHkl2s7PvccsUeh+Zamkp7YbZ3Kno7bk5hNiVGVaNZtUR536+5SQZooeYhRUfIEqSnJ4ueMWMg8+i0xqgK7pWN3JHZXkXCjps4tM/33bRHgh97jRCZlEJmLGsQhxFtBUJMYboKmg2cK/IUi55GX6ZF/UXlKUYRpZBHwmobT1XEHGm5fYtTlbfQ5BZD4M4luSTQjIQkFqfjMIk2RyYCsfDOmNkRWS8OsC8yKRHMy3bfkdi3k0yEeJuDFteRzQ14ELUgj0KtKYy70GKGrY4erTKLyhQWmBQmvVKrUqjVq1RrVSgXbfp9MfW/knsqFN/RyyWq5ZLlcsl6v2W5y0r3D830CzycIgzvEOSJKcnlJfCs3SVQL5zhOlPwhUa8VricZwQ/DkDAvevwGzTc+B0KxlPtF0x85791sQBhG6LqWaV6NrGHH98etNtbKHDD2GA6HVKvVBwldFEVstxvmcyUXubi4YDqZsFqvVOe+LKug5AsGlm3hOC6VTJ/dbDSzDo51qrV6URB49zxxHKvuhpsNm82W8AMk9WNQpMqh2+2SJGmxIcijxLnmV/kvr5jPpqoD4XqDt8vat8fKKSNv7pNbEtbrjaIL5V2t/Lv36q5Uo1JR0Uhvt2MymTCZTPB8j+l0ym6zKe7bAzP0yesUwkDTbjcMnyLhURQVzYY2mzXz+Zzr62tO37zhzZvXXF5esnvH5/tzxvJnCTjc147n/y4aXGUdV9frNZvN+t48pYlyWMmb47iOS7Wm3gdzd5yP3Zv8vNK2qdZUh8l+f8B8Plc1CQ84peiGKhDu9ftFM7T9/QNa7fYnJSj5psL3fdbrNdOJaly1Wq6KDW1+TiHA0PQiuFKr12g0VcFurVYrXGZymZbrugBFnUlpSfuLQAikFEURmXbnK3fXkDoYblaA+I3jMLd6ayW30B2ZaWvvkJesiE2z3o/2fvNz2IoEG7ZAsyVuTxE8p69hNZSGXJHgD7+vyDw6rqNIvhB8rj2KNBSBt1oadlvidHSslsRqCIyqQLfVcdXn+iev/M5/b7+TeqrGaGQFqpaOUUnQHIE3iWGZqExA+O3dRL4F8iJM3RbYLQ23pwi408uyFI7acOVrVRrpbbZCftkngsxrCOoSu6NR2dOxuxpmLSsAtTMZkMZXfNSId/5ERcXTgtBr6vymWk+eBsHyywtMdVAfys1Gg3qjQaVaxbLzLmwfjsh8C9yzA8wIzmazZjadMZmMGY1GjEY3jEfjrMvbku02+xANg3uR6SS5La4s0sDpbeFlmqak3P35fdu74vucfP8gAp5/kAshlJY9Vlq3DxHINIuCBb5PFIVFNEvX9R8XCc+iuJZl0Wg06Pa6tNodLOthF5QwDFksFlxcnPPHqz/45z//l6vLS2XpFmTNdYSK3GmaxDBMnEqFRqNBp9tlMBgyHA7p9/vK8jDz+JaaanefpCnLrKvheDxiPp/i+94X+zbnkiwp68oFI4sW5tFUz/NYr9fM5zNGoxGXby+4ublhPpuxWq3Y7bZF90BVeKgKPVutFr1en+HenvJNb7epVCu3Le4feM4UETep1SSdTpeDgwPms2lWDOwXnRq/fgrFg99D9lxmEWOVlQrY7TzWa9X6fJbZc15cXPD69R9cX14ym82Ug8tPwl3LtijLcu12u6xdu3Iwms2Uj/lutyMI86JdgaGruop6vaEa2uRdQms1bNv54Bzl51VOMRbNVov+YMB0Oiu04e/CNE2arRb7BwccHysf8Han/UENdn5NdxuEqcZgY87Pzri6vlJdZOcz1ivlCBTHMVIK1UPAddVz1OsxHAwZ7u3R7fVot5XNommaReYg3/TldRklfj7yIjOpAdo7ybwspCf0NEu188ls39dAytsCQxX9y2wAs9dTcUug+Czy+ZXn0JT8RLdV1NNqSqoHOk5Pw6jfar+FyAof84/xu5V+aSYpCFPlfBHnxgyfGGBW9KfZSvLi7um4fUXEzZoaUx4RBXHPYjD9UFHlvUj57TmEAM1Q30tToLtZgaqp7rEqIk2JEjK+8uX3+7sgL4jUlITKqmu4fZ3avo6TZSk0R2abFG7vTURms4kiuV9ySgm6rSQoTkfDHag50R1R2A/eSpF4eE189ILuz1H+vWYJLA00S0mmimcgFaRJTBp/fiHtLQlvt2hmjhb5G/P3RP5hGQQBu92W9Uq1h55Np0zGY8bjMePxSHUSnIyZzmas12ulIY4i0j9BQH4lFBE8IVTL9jQgjj9MHpMkIcg08b4fZIVrioTzA3SkuYzCMExs16FSq1GrNz4YBQcIfJ/pZMLpmzf8/vu/ePn7b9xcXbHdboliVUybHxtUcx3HdqjX60zGY+VMM5kwHo3o9ns06k0qFRfDUJHKKIq4ubkuIrLz6Qzf87+KhN/3seY28rhaMZ2ptXl9fa2aNF1dMh6Pmc/nbNaqDXiYdWzUNR3btnArVZrNZtERczqd0O8P6PV6NJst5Ume2ed9aCz1ep3BYMhyuWC9XjMZq7bpZA454is3jB9yrQlDJTfZZt1glyuVkVossiLl+ay4D2/fvmU+m+H7Pknyc59JIQRBELBer1ksFsxmUybjEZOxuu/z+Vy1a/e8ws9bCNB15YxTr9Votdp0ez16/T6DwYBWS0WOldvM+9Hh/B4ahkm9XqfX6zO6GfH24vw9xxcl4bKUhOtINX9qdzpUKtUHfdLhdj5832e1XDKZqPt+dXXJxfkF19dXTCcTlosF6826yCzlz6jjqOeoPR4znUyZTqcMs8xVN1+Dd8h4iV8QIi1IwLtOeooUCOV6+j3e/u9sApTGOjvPu/INAcj06xJbn3kOoSkpitmUSEuoSHRPyUCkpcgd3Gq8kxBF8O6Q4DSFcK201uEqIdwqMv7Rt1BxW/SXR1zdgcTtS8x6RsC1bLCZq0YSJSRBJi0J1FiSOIUEdbLCLzuz0DOUZELPovhCgm5AqpPZHWZjyYldBGlmhfxLFGvmBcSZRaNRlzgdjcpAZSnsllBzZNwS8CRSdozRNnOHCZQLyWdtinIIQFN6b80R6FX1pZlZliGPqcbZpisn/FEenP3AYXPSna1HNUdApjYQOuiZBaUQsijKTKKo8KBPsrX3qWspSHin3VG2cm7lnt/v90Ie2VkuF9zc3HB+dsb52SlXV1fMJhMWqyWbzVZF/nY7vCDXPkaZZ8+/P3KLv0q1ihQSz9uRxBFR9OFZi+KYreexXK/Ybjcq7WzkXf9uO/59tzELgaHrOI6N67hFt86PRQs9z+P6+oo/Xr7k9as/mE9neHkk985Y84YySSYtmc8Tdr7HfD7j7fk5brVKvV6jXlfylEq1ipTK1WE6nXJ5+VYVxk1nXxUJfwi5HvvsVMku3rx5w8X5OePxiO1Gtbf3fK9Ym3F2TmWX6LHZblkuF4xGN5ydvlEWoMNh5mP9iIPDQ+VU8pH0v2lZdLtd1Wp+ueL09WtGo5GKPH/juU6yiP90MsmI3jkXF+eMRiPWyyWbrbrmnaeaVm3WaxVVTn/+M5mmKbvdjqurK16//oOzN685v7hgOh6zyTbwQRgo/XSSqNCIUN1eNU3ZBTq2rRyihkOePXvO8ckJBwcHWbT4w3Ok63qW9WjTarcwLQtxh4TnsjPbduj1+jw6PlGuO9XaJyUovu8zm025OD/n5cuXvPr9d64u37JYLllnEptCTpfJsIQQt/p932O5WnJzc83Z6Wu6vR5HR8c8Ojnh5PETDg4Ov6ntZokS3wNCgu4KKgOdJEoxaooUS0sitVyzC3EgiHYpwSoh9m6b8pBFW8NNgjeJ2Y4S/GVM7KtCwA+f97boz+loOP3MvaWufi4yYpaiCF7iJwTblGCVEixTglWs9MLeLeGXGkoDnbl2mBWBUZfYLYleUaQcFBHMswR2S2aZEUGa2ealSfpLFGvmBcRGRUWiq3s6di/LFNTVpuluL0E1bnV/vFmKP48J17Fygcn9tz8DaZpZCYaQBLfRbvVi9nqiXou9lHCbKk29l6JarXyYhWsaSFtgZJkIXQredYEWUs2f088i4bGyMkyilHD7ea47dyLhbZrNJo7rPNg441sg12kGvs9ms2G+mDMajXh7fs6b139wenrK9fU1q+VC2X5lraDzbm93ZSb/CRBCFI1iNKmRkrLdPaSrvUUcx3jbHevlis16TRRFqvgv+5KaVtyz7zVmKTUs08KybUzT+qR0KYojttsd8/mC+WLOzttllnbvz2W+gcg7jvqBz2a1YqYruzvLtqhWazQaTaq1KkIIttsNq+WKxWJeyA3uFkl+DfII+HK55PLyLS9f/s7Ll7/z5vVrrt5eslgusmLM24LMtPCfV28hkRCIrIh2tVwy1TRGoxHz2fyOn3SiGoelt0173r2PRqYj7nZ79AYDmi0VvcxdgZJvkBWKogjf99ms10ynE96+fcvZ2Rmnb16rTcdoxGa7yWRQ6rrjJK+x+LZdYb8UeVbN9zwm4zHnZ6f8/q9/8urVK96+vWAxm6v7VEjP4N2PrTzDo2katuOwmM9VzUgWVTYNVXeRS5TenSNd13Edl0ajnnWIvc0KCSGQWY1ArV6j0+nSH/TpZFaeD0m4VD8ApcOfTaecnZ3y6uVL/vmvf/LHy5eMRjf3ehO8uwYFSrqWy/x22y2LuZJszeZzNpuNyqQhszVH4b3/KzlilSiRQ8lBwO5IkjhV/t+WCjqFHqqZj6ciq+EmJVwpi78kI6vKiUT5UgeLhGARE+3S+8TtvZOC0FJ0R8lQnK6G3VIFmLqtCHiaKklFEkK0SwmXyj0jWCT4C0X0g1VCvMus7FC+75olMRzl5GLWBNZGIw7AbAjlkW6LIiouDYGSuSsHlXCpEWUNY5I4UbZ+PwMy68RsCYyqpqQ6fY3KvobV1jCqSqMvMkqp/LeV3V+wTNhNErajBG+u5ioNs5v+uZeTNfuJt8rCMpglyMx+kMx9prAa3CaEu5RwlxLvPlFAmRV8ao4i4WZdbboMVyItioY/yiUHDE2QRBJroxGs73iLR/Cpi1GFmVLSajZVM5KvsCv7HOQf0nejbG/fvuXi4pyrt2+5urpiPB6zXCzwfI/oC9o//7tC5gV4bgVN0wjD4JP3Po5jdt6O9WrFar0i8AMs2yq8e3VdLwju9yJGhed20dpc+0QELXtNitvvP7KZyscdxzHEMREQBAFSeux2qu36er0uCjQ93yPwfbydcsn5M1rpHIHvM5tOeXv5ltd//MG//vlP3rx5zfXVFYv5gt1u+9G/f/fKQm7lEknmYhEGAXEUFlaE3W6XSqXynjY4199Xq0ra0u50abVaKnOSxATf4Hp932c8HnN5+ZaL83NOT9/w9uKCm+trVUS7Wql7+xUFr98buVf3dDLm/PyMP/54xR+vXnF2+obZfP6JItb7yOcoTRL1WZAVKlbcClZW5Gg84BqVz1GlUsF1s86eOQmXqqtsNZO7tNqtokBX/4CEKyfg8/mMi4sL/vd//w8vf/+d0zdvuLm5ZrVafXSznfJwgXcYBkRZjUOapmpDIVX2KbfjLEl4iV8RQiqtNFWluRZZ6/NoB/5CWfoFy4Roo2wbIy9rXpTJQNKClGUdGvPXPnhCQKRIXRWK2h0Np6eKMAsJCkraEHmKBPrzlN0oxp8r4h1ts3PtMueM7HxCCjQ/JfZStA2Ea0mwTPAWCXZLKseVtoZZo/AX13QBDph1gd3ViMKM6Pkq+vrDkevkDUXA3Z6GO9Rx++peGVWBtCi6lYIi4OE6xZsleNOE3U2MN1H3Kw6+3OIvTSDxU8J1wm4SIQ1VHCl1UchQIk/VAcSemoMoUPcr/UQkXGiKzBuOcsKxGllBbldZLGqZbEo1BhLoDhh1gdWWRJ4kyJtnfeKjR0XChaReb1Cr1bGdb98k4m6x1GymojovX77k9etXnJ2eMRmPWK/W+Hla/04Dl/9E5MVcuq5jmRaOY6NJjY1hPty05A6SLEKrXEA2eL6HbuhFgaZpGMpO8Xtq5sVt0w4h3q0gfh+6ruFWVIFYs9nMyGesopOZ/eOncNdfXEmZQlaaLNLueXHvn73u/Dzb7Zbr6ytevfyd3377jVcvf+fq6jorJg0+faAPHDuKItbrtZIOBIoQJZk2zTSNTJubR1qzavmi1btJtVql2+3S6XZZZzr04DPbpD80njxaulwueXtxzm//+hevMgI7Ho+UjCOTOvzsiPeHEMcJ282ay6tLJRl6/ZqLi3Mm4/GDDiUfw905is7PQYiMPLdUV1NNy6Rf94mqzIi2bTuZy8ltRkMKgZ05CXU6HZrNFm7llsw/RMLDKGK1WnF9fc3r13/wz//9X/744xWz6ZTddvvV6zxJEvzdjmn29+JOMbdtO1iZQ8u37NL505DrjLNiPt2VCO0Hrt88+pp8pDivxBdBaoBNYRUX71L8ZcrmMmY3ifFnqiV95CmCXTRQyYOe2fdJnEVCP4Y8GmqpyLTVVvZ3RvX/Z++9++NGrqzhU4UMdA6MSqMZe7y73/+bvM+uPcrM7JyQgar3j1uFbkqkxNDUKF3/5PHIZCOjT917AglHoT5PFEC+ktTVvSwRnhVIZ4ISLwuVqFhKYtFquzuhQ2BKFAlDHkmkC8CYlMjmBsp0bWNr1kiQCq64yB6D2+Uoc4PCYhYCRYyve38x9WzZDJZP5yXYNxEcroWR3AKgFyrqGShiiWQiEF2UiAZ0zbKFQKndXu5YUlDgEUIV1JjT1EKHIolcYQbJ8wAAIABJREFUIk8URUTdDzQVkWt+/Q3HVy0ybEZBTE0OP5JghkmCT19b8NKvcBOwaxxlW6KIDMSTEmz55WNQdBSGeqOBWq2uUgG31wnRX2pRFGIymeDk+Bhv3rzGa9XVubg4x3KxQKFcJX6G0l0z3/fhBT5MS4mytMjmM6XH1DpkSC9aGFdJeLaNPC/A2CN2LKVEITZ8ib/w5Nu2g067i6dPniJLUxicwzQMLFckkiuUwPDLm117VeePcL9UdKksw2w+w9nZGd6+pa7qxfkF5vPZg7erOb5pSgsQpigQ5JrRUkCPf2I5qScdvh+g0+2g2+2SK8Z0+oDjFZXd3YUCsK9fv8K7d+8wuDjHYrG4EsDzrVZZlgijCJcXF+QYotxaoujz04qbavMaOa6L8/OzKogqCAK41wQBcc5hWhZsh7ztTa6UZdDPu4tWq41Ot4vGLdJX0zTFeDzG0dER3r97i+PjIwwGA8RRBO3udJ/S7+OiKDAFIy9xzuG4Dvr9Pmr1epUI+l0LNXVktUrqC3ZNGC6/1xf9vUqN3YtYqAAdse6+/ar7FQMYGDgHypwAXTqTiEclwvOCAN1coIjuB+g+Ls5JjGn5HE6dw2kQGDccAl9SAhCaWiERDwWiywLxqEC+/ALIl6zikAPEj4YKLBIFyBveUXQUSwsAFSh0ALsJFAlHMjVg+AI8ErcWAj78xMjKucWurV1JvB21SGnQNdJAVlNCilgiVd3v6LKgicF8vWC6V6ludykAoQC5YQkS9gq6T8pMQN41EXVjA8wAjFCgSAxAQgUN0YTT9NaaAGbQAslucNgLAdNW1ohcQkp2owvmhk94AN/34djO1qzuNEcxyzKMR2P8+//+F69fv8L79+9xfnaGyXiMKAoft2v7DZYWY7babdTrDSXiU6P+W3btJGTlGV6WJQkmVSc1SZIvgvn7lgaqubLJK/KC7CE/U57n4fDJIbjBUKvXqkTDi4tzTCYTRN8ArxhYi4WXywWGwyFOjo/x/v07nJ6eIAxXW6G5bFaWphiNhtWibHd3D02VzsnYp0Ex+udarTba7Q5qtdqNtna3qbIssQpXOD45xpvXr/Hq1V/48J4AuI5e/x5KCIFYgfCL83PMptN7Tys+rixNMR2PcXpyQhaGvT4azeYnP1d1rTR45Wt/NQ1y2+12ZQ1ofUbkSQLTCOfnZ3j91194++Y1eY9n2YMA+CfHlmeYzqbghoEgCPD06VM0Wy3YNi32vmcQzjkAB7A5r1wtylTeOU79viULIA+pO5pMaOSeLUqUfxd390eoDaFdEQPxUCA8K4jSMBPIViWKdE35eGgxk8EKOJw2h902YPhrMAwAEBIiY8hDqagVBZJxiTK5x30mAQkGIWjBlk5KStnkFMZkeByGCj/jqhtu1xmcBqPua8RvLQR8aFUiTJ8AeP0Z+YA7bQ7TU6++DScf3QGPB2pScFEgGZZIF4IA8ha+ZmhBI4GMwn6Y/jsp7yT0vPazJYF7Fgukc4b4slRWkjQR0QFZ+p1jBSokyNm4X+TN+6BAOKeurOI7biv+vCgK4mpOxjg6+oBXr/7C69evKluzSI1Vf2TqyWZJRd2wbQJSOzu7cF0XSUIpoGlyNz6zlKISZXFlVWiZyqXksY5ho1scJ7GySiQa0U1jbNummHSDG7BMC4xxeK6LWr2O0XCI+WKBLE1UAmV+JfH0a4JzKUSlWagsCIdDLGazR6FI5XmOcLXCiHM0Gg1cXJyj0+lUPv0fO6ZwzmE7NlqtFlrt1rX88duUXhynaYbZbIbjoyO8e/cGx0dHGA6HWCwWV5Jhv/USQiBJUkyn5Ae+ClfIt9TBz/MciwUtynZGIyRK9HtdcU6JrdVzoMM4GFFViI7VJCG2+ek7tqJc5TmWyyWGwwFOz05xcXGBSPHat/kslEWBOAwx5wZGwyEuLy7R6XbheR5slVb73RZn4GzNI7YUj/hrjetFQe4Y3AB1S2OBImIUy/2r7lVS0QuKCEgmJeJBifCCKA1FtMG53tIp5iZRmJymAbtBoErbJ0pBjhxFLFW8fIl0TlQYstm7+/aoU8ogMolsJcDMEobL4HU5TI8CcLjyvuYWVIoqh13nyFdcpTUCj3KTq642N4jaZQXKL31XeXN3DZg+0Wb0lECWig4SSaRTQddKLVSypeqAb+uZlACE8mffbDmrc/qgbQjil5epJGedKYPhCnLnaW3o3NQ7h9sUKmU4HNziYMq556Z9qDrhnu/D89wvRljfpZIkwWAwwJEec799h7OzM0wmEyRx/FNRUIA1F9x1Ke59f/8AjDMcffiAxXKJMLq9gAzAla4YVxSPtbvG4/E5tXNIHMUIwxWlmUYRXPf6+8cwDDiOA9Zs0gvEMNBqt3H45Ammkymmsynm8xkWc5WOuiTnlzBcIcuyrXegbzwu3VG9vMT52RnGoxGiVfgo1BcAa0/uOMZ8NsP52TnZhAY1BEENH7MeGKMAlnqjgWazBc9fR7XfZ7txFGEyHhOP+h2JTlfL5XdBQdksoljkCFWaZ7KRwvrQKooCYRhiPqMAHu1o83FVTiic05+NZ0AH59RqddTrDXg3JGPSdSGf89l0isl4gulkgsViQYLeLS+K9II6TRMsFgtcXl4oukwTjUYDgL/V7X31YjQi1gK6r1miYKS3aHJkoYQx5WDGzzXx3XZJARSR6qheEAUlmShru3yD/72lqugFdQ67RqEsVfCLJLFfNhdIpyQIzSNFfZDAJ4buty0FXotEgC8Zsjk5hxgeccI3A4kIiJNto+lxZKEAS79EDr1nMa2t4HC0V3qfUjCdNq8AODQAl+RUky5IgJkMS4SXJZ2r5S1EsfepTd7/tktqHj8tkKyVQJnwT+lleqFkkfuN4XDwZO3Oc11VINx1XDjOOinzIaW7aKvVCmenp/jrr//g1V9/4ez0BFMFwL8WsPpWStuUaZeEbreLXr+HLM2QZxlWq2UVXnOrUjeaBuGMs8o+jTP+WGyUqluX5zmiKKJQlMkYs24XnXan2ofN0sEzuhvoOC76/X4VJ05x9gMMh0OMhiOMxyNMx2NMZ1OEYVg5inxsibftDrkQJQkyBxSGMpuRleBjV1mWlRC03WmTFeHOzic/R5QjDebqcD3vXlOrsiyRJgS8RqMhTk9OcHZ2itn04Zz3v6M2rU/TNL21xuA2JYRAmiRYrUKEUYiiyG8cNetFdgXA2frvTdOEH/jwg6ASP163rSzNsFgsMJ3SwjQMVyoI6fEmQqUQiOIIg8EAnW4POzu72N3de5Rt/SzFQIsvbpGwi1t4NIrgz1KylCgiieiixOqUOODkLa2ti7d7fqnrSwDcqjEFMrXNBwGydC5IDLpUnH9BtJKH7ImUAAqgSIlik84MmAFZ4xkWA9SAVIsGLZ/D9CUF+mz7FtNBSqbyM2+STaO/ZyDYMeC0iIKiATigONo5kC1pwRSel4iHJFbN9cTiS6LYb7EkILXOI5IoU1wPrDcEnYbDYFiAyNiN2jkFwgHbsavUtId0wjVAi+MI49EQpyfHeP/uLU6OjjCZjBFH0XfXadtGcc7hui5arRZ6feKV2raNNEkre7278Vil4sjJqjPHlN3YY7/rNeiJkxiTMXlK1+skNrOV4Oy6GHYt+HJdD0I01mmUqyW6nQ663R7G/TF5GU/on4vFAlEUIooixFGMOAqRpGnFhd+mH7oQAklKxzQcjbBYLL4KKCU6RYzpeIzxaITlYnntlEhzjn3Pg+8HcO8potbuH+PRCIPLAcaj0a1sF7/dkmsHpqLY6gJfCIEszxEnMU3vvmDReN0MSt/7nuvB9zzYtn2jN3iWZZXn/Wq5JIraI78vpVpoTKcTTMYjmoZ8h4uxb6GqhD7liiKUM8Y3kGX13ZeUQJEB6UwgnpTIlgqAl8BjTH6ZEmaaPoPlrS0R9b6IjFxRshX5T4ucFgIP3hPNfS+AMgUlSoYCZcO4ch8x5YdNgT9kYbjt7/7qHHgUO+/3DHi75AXudjjMgK054JUloES2AAlmL0iEmUxKxVn/fp8FuiYEvotE0Y5uOhblZMNNVH7iN5WaZbPPBlHcpYQQiOOIhG0nJzg5PsL56RnG4xHin7ADrsswDNTrdTx//hx7+wfw/QBRFGE6nSBJkiry+7bdLhJmC+UxrUZgKv3va3VcUpWE+fbNG+X+0EKtVr9V+p7ujjuOQzQL20az1cbhk6dI4ghRGGEVUpd8MhljOBxicHmJywtyvqCwkbRKqNxGCSGpEzmfYzGbIY5ClOXjLxir9NjlEov5AlEc3fic6HPmuA55TN9japVlGWazKc4vznFxcYFVuKqO8+8Wx963pPqPJmNurROu3USyDY3CXT+EMXDTgOO6irJlg/Pr6CgCWU7C4MV8od6XX+f+y7MMy8UC8/n8s/ffr/p8kRiMLPCKlEbvOqjlbwtU+VFKg7yU7P+qiPNHol4yRnoCw2VVKufH+1Iqr2+ZP4IriaZA6NCXj+g2Wu9gOtRxxcYiYVvFDXJBcdrkflI/NOF0DVh1cmm5AsAl8eSzBbA6KRBdlohHiiuv3Vu+50dAghxXMhUAVUhgC0JvAuEMVwVF9wRxmx67p6enOPrwAaenp5hMJggfQVj0PZTuXga1GrrdHp4+fY5ut4uyLDGZTjAajRCpxcldzg0DAEnAUQqhuuFf99xmWYbpdIqTkxN4no9OpwPDMCtx1+ei7PXfafqTbdsIglrl953nOVEmlktMxiMMBpfodDpoNpsYDoeYTidYLhYExpOk8rF+SEkpkRcFwjDCKqSO+zZB/pe2G0Uhwoj88kvxKQjSDhzMIgGuaXyUVHrL5zbPc8wXcwwGlxiNhtXi+Lt9NrXfq06M3OZxKC91bckp72HGywAlnDZhWjdPG/X7M45jRFFEi8zya95/EaIwvPH++65KARhRkj2ajpJ+9FtcMKAka7RsQVzYVKcBfo8j+G+spCBAKnIoDvgjAHDOlD0hcXoNm4FpjfzG5hhnax/xGgczoYSRW9oNk5xPTJcT1WTteqq2T3H2pk/poVujozDq+hs2g11jMFwOb8dAsEthRXaTgSubRmgXFP285cTbTyZEQUlm5Tq19O6vzgcfhxaTMkNZPKqkSzyEMcAAS7mfbENvUqm6KsuVBwBwKQTyPMN8PsfRhw949+5t1Wn7GSkogIqz9gN0O13s7+/hyZMn8H0fl5eXGI9GuLxcOx/cq1RMdXWDf8UbPc9zrJZLDIxL2LYFz/eQZRmePXuO3b1dNBrNz0ba678zDOMKR7ZyiVCOPYHvo9FooNfr4/DwECNFo7i8vMBgcInh5QDL5UKJ5u5/8GRnVCLPiCK0DWB/2+0WRYFkg5Z003b1M8o5B1fnjXF+p+Muihyr5QrTyQSz2RRpkn43Tiifq8cAWPq8SpVOeb/7i4GryY9h6JCr67alwriyDGlG9991ItBtlwRQlCXSNKuoXt/7/aBDPCr3ipFAFn0FLqrqlslCjeXngugKocD3vq7520t9t+mu66N8zylhnekQzYPbqADclR9TVBC7ySEKA1aNPOi/ZNd7l+IGAWCnzmF9JAyt9sFhMAOKVr9in/iAYkqEadcYAAN2nSPYM+D2DVjaJeajQZ6E3IikJ6/2LCIHFFH8TRSUDTGp6dC1NCw11TDput530eI0DdhNXtkTPqRMVPvxsKu32cWZTqc4Pj7CyfERJuMx0nsm+n3PpcGS47hodzrYOzjAwcEher0ehJRI0wTj0QjD4RBxcrPt2We3obcDAMo3/P5A4e4lypI8yWczAtQSSOKkcpAQQsB1iQOrwbjmwn6JqlLxn30ftm2hVq9jZ2cXaZZiNp3h8uICx8dHeP/+PTilOFAS5QPdVPQCQAtAv9b8TFMCdJrol64h44yEX8pP/C7HXBYl4jjCXLnRZHn209iE3qek3Pzmx72+/KvFE/sc3U9CKCCurVu/ymWpklMLlEUBoelt33FJQd3vfEXisOUH4qWWXyPeW3VFhLJoE/ktExp/1d9e2gbQ8DhMj4Pb5ErySXEGwwWcNnXK153ebdqzKCtCm0SRpnsV/FJkvITpMJhVV1Y7ZD+gOGA4INGlT2FX/p4GnQzXxshsNACvrI++phZZ6WYZZ1VYl+kxWA0DdkBg3HDpPOrJwX0jcUyPwWmp++OB9Ym/mZTyXt3woigQJ2S1Nh4OMRwMMBqPf8ouOIFIA5ZlodFoYH9/H8+fv8D+/gFMy8J8Psd8sajEV/elAmjHFeKXkiXWV/XVVumdSRxjJiVkKVCUBUpBPuLz+RytVgv1egNBLagA+W20B6zqHNJ51HZ9Uko0my3UajV4vg/HdcANDtt1cHlxgdl0ijiOH3YOVBYtYwyyikZ7vCJbJQL/paAU0i9tU585eu/fbf9KUSJNUkThCnEYbtVN5Ect1eB80O9frevufR2DzMC0w9FXNtRgH/3zuy0JijVX3r7xhDyKf/l0/6rPlrK15CZZADKTAfzTp4ExwLABp0miTSkeiZfOGRiXFe2FbewLUzuivcMZtsMJZ8oK0e0aEKWkBMgmpUPe/EtKgGiQi4zpU/deZBK5Eic/aunrZtF5Ml1aRNk1BqvJYQUcpstgOhyGQzQeSr283+Z0Gi+/f1ZeVSawBgEagN8HiOd5jvlshsvLS1xeXmK5WCDTyv6f7AueMYqQD4IAvZ0d/Pbyd/zzzz9Rr9cVh/oYlxcXiEIlgNrsst1+K4DyBtfBH6XiUz+Gfd/nSgiBNMswn89QlKQJuDg/w87OHg4OD7C/f4C9vX30+j00G03YjnNvG0yaLjjodDowLbJ9azZb6LQ7+Lfzv+S7nabAPRYjZCtGoN+2LZimiSLP8bWmyHehg0nNwRN379hLIZAXOdI0rewff7Zn9GuXXixpTvlN96bWR+j7b1uZDV8qzjkM0wQ3TXDj8SxOf9Wv+hFqM7lS2uzRqDHkt0DdZ25c5TGvRcD0XcA+Ewhzp81y6iB7O7QRbpPV5ud/iYGZEoYL2E2OYM+kfSkBkRcQj+z0W1Fo6gbspgG3Y8DrcNgNcnAxHALO3FBgXS1c7l3qMx7o5g1goxNe6uTFe7qj5HmO+XyBy8tLDIYDhKsQeZHTmPtn+YJXNArbttFoNLGzu4vnz57jydOn6PX6KEVZ+TKPRkRDkfc8P0yJaS3LgmWaYIzG2EVRUCf1K1bVEReiEnjNZzNMxhMs5jPMZ3PyE5/uqDAa8kq2LRum2n/TsqrI7y/dg+S5HMC0LDiOC8/1wDlHFIdEr0hTxMpO7i40H7KSM+C69Jm2ZZE/+SM7RTCg6vhbtg1TpYpeVxrIlaKkZ7YUn9IlvlBSkld4XhTqfvm6i7afrzTdo6RJUSlwXdDppmOQU7mobOEt/4WqtmvbcF2HAre+wnZ/1a/6bkvRHrgF8u1+rNfnphDzo8mYFDTpKSIS/pbldrAW4zQFsJToUC8CICSEIEGs9oHQP8s4U/QZCTMAvB6HLDnKlKNIOEQh1tzwbZ4rprrSNoNV53A7lN7p9QmEW3WuALiiwDIATKooeVRWonfeJ7bx54FFXwVSoizWYOO6IIkvVZ7nWMznREMZDhHHIcri5+qwcQWKa7UadnZ38eeff+K3l79jb28fpmViPprh/PwcZ2enmE4mxJW/5/lhjBEIV3xrgKEoKe79a1JSdGnvcCEE+TXnOfI8R5ammM1nuDg/R6vdQqPZRL3eQL1OgTM6eKZWryEIiLLiKK/xm2oTrHDl6pNmFFs+n82QZxkGgwHC1epuIJyzSkjr1wI4C/erhPVUYS6eD98PYDv2tf7fGoAXRUEd+qIg4d4drzXx3mW1wNim1/qv+rQk1vkJeZZXz8nH93jlJ67uA8dxYFxjZbjtYozBUvoL3w/g2F9nu7/qV33XxbYjhLxviUIiXwkkU0rtLJPtaUgY/6hTrDruZUrAv1SJl9xisBusEmtSSA1gNQC3MFDEUsXTM2SrEiLdrs6Fm8TxthsEwIM9E26Pw2lRwJLpAmwTgNPR0SGVtKgQmYS8I2OamTQhYIoG85Cq6Ch5kVfcbQ1y7lJFnmO5XGA0GmEyHl/xvv7hi5H7gW3bqNVq6PX6ePbsGf7rv/8bB4eHsG0Hy8UCFxfnOD87w3AwwHKxuHcgBuMcnBswTBOmZcIwTQASRU5hJX+ns4GUElCAY7VcIs8yTGdTnFoncFwXfuCj0Wii1Wqh3emg2+2i2+2h0+2i3Wqj0WhQp9xxyP1DuYBc1x3XoCUIAnS7XRweHmKxmCNOEoRRhDiOgTvoERjjsG0H9UYdjUYLs9kMURQBjyws1tMTiqNvwv9MHH1ZEt8+TbN7X2saY4oq2faXKPNxax0PT4meeZ7DcZxPfo5obDaCIEC9XoPneRUl5TEX1YxzWJaNer2ORqMBz/fv1Yj5Vb/qhyitv1b/vBZn6+GjCmKqhs9f8VWaRxQJHw9KJOOSQPi2IZc+zkKiSCXyJYmd81BAFoDhAcwwwAwJzpiihQAmZ5AFh9szUGaAFCVEKZGXYnue6ozcTuwah9c14O2aCA4NuG3irzMlvJSS0bUURNupwpByWiCUMTkp3aXIllItOrYCwqVEmmaVi8m9OuFFjlUYYjajbmSaPswu7rspTUGxLDTqDezs7uLZ8+f4xz/+iefPX6BWr2M2m+Hi4gJHR0cYDgmA39cxhqnOr2mZsGyicnDGqmS/TNnb/Z3nXkoJWZbIFGDUxTmH4zgIghrqjQZa7Rba7Q46nQ7anS7a7TZarRYajQbq9QZ15oIAvu/DdV3V8V/XpnizViP3lOVyicVigbOzMxiTyZ32m3MOx3XQadPiYDoZYz6bbeWcfK4Y53BcctHp9nqo1xswrU9B+KYDURxHyNL7WguqTrgC4drm8lc9UmkQnsSI45gsKK+hOOn3CIHhJoIgqNI1H/OZ5ozDdhy0Wm20Ox3UarVr779f9at++NIAXLC1Gvuax05KJfpdSeWDTZkd2whvuW0VsUQ6LhGPBPlxb7nLDCjdUS5RxEC+FIjHAumcOvBSgEJ7PE40FKypKQYHEABum0Pm1GkuYkFdZ0F/8AAxK2OoXFzsJoF9f8eA0+Gw6uTfrr3LZaH8y3UHP5MqjZRAeJGotNM7lBVweDschm3AsO99GAA2QHgSR0jTBIZhwLbv9qlS0VniOMZiscAyXCHTfPAfvDhjsC0Lvh+gv7uLP//1L/zXf/03nr94gW6vhzAMcX52hr/+82+8efUK89nsQW4xnDFYpgXXcWHbTtUxLYoCWZYiVRZ93+KZl1Iiy3MgXCHLM6xWS4wGAziuC8f1UPMD1Bt1tNod9Pt97O3vY29vDzu7u+h0up+A8M2ixM0W9vb2MBqN4Hv+nfm0nHP4noed3V2MJ2MMhwMMLi8fethfLINzBL6Pvb097O8foN1uX/sMSimR5zmiMES4WlGY0D346lIFPGkbxvvqEn7V7UpIibzIEUYRwnCFJElQq9c/+TnGGGzHQbPZRLtNUyHX92DZduUd/xhAnBscnu+h1+9jd3cXzWYLlvXAb5Zf9au+09Kid819phbFVcAoSwLgq6MC8Yh84MtMflUveJkLApKK8lFmYut+3KIE8ghIpwLxUGB1ViCdChSJAOdk0Wj7DIYJgHGYGoCDALndIK9xWQLpglNoVSmpO37fndIA3GawfA63TQDc7akOuKLRSEnhSZQVIJHOBNK5QL4gDn2RCpV8Cdy1l+V1DHBuwmlwIHgYJ6kC4VEUIYoimKYJx3Gq6PEvlfZUzrIMSRITmE8SxVf9cb/YtY+14zio1xvo9ft4/ttv+OMf/8RvL1+i3emiKHKMRyOcnhzj+OgIFxfniKKHRUJzzmE7NlzVHWaMkeArz1Hkxfq8f4PnXofhpKprH0dR5R1Ox+XA9300mi30ez1MZ1OsVsuqu99pd+A4Kq79I2qKaZqo1QK0VDfdc911Auwt988wOFzPQ6/Xw97uHi7Oz3FxfobValkFmGzzniY+O3HQW+02DvYPsL+3j1arBfsaECRUGNZiucB8sUD8gHtJSIHyK1ta/qwlpUSWZVitVlgul1VC6cdVccJ9omy1O0TVmk2mmC/mSNMUcosiYW1x6rouGo0mdnf30N/ZRaPZuPX7/1f9qh+tpI4mzwgwXtsJV1zidCkQj0uk0xJFLO5Ma3jYjq6pMPcWGF77uajSZvNQIp0KRAOB6KJEdFEiW5QQOdkmSgBWrQQzCfxyg4EbktxSOHHF7bpAmXJ4PQMiBdFCZIlSCEgwsDvuM9NiTJeSSu0Gh9PksAIGwyTud0WhiSSSCdF2knGJdCqQLdaLJinul+TJAHi7xla8/wmEC4nVaoV6GMFxXATB7ZYFOtiEOKpJZXlW+Q7/wF/uOkim1Wpjb38fv/3+O3777SVe/PYbOt0uhBA4Pz/H2zdv8OHDBwyHQyyXS5WCd//zYhgGXMetRIz6Cz7LcpRl8c2L7CqbNiE+sf5LkkRRLWJEIQGW5XxBEd5ZijzL0Ov1EdRqn3TFiVftIPADFfBjwzRMchm5pXqGcw7X9dDtdrHc38fexTkuLs4RhiFWyyWSJNkqYCUA7qPdbmN3dw/7h4fY3dtDo9G8FgRJIZCmKWazGabTCcJ7evBX1lbq+f1Vj1tSBTEt5nPM56QzKK+5bjqkStub9vt9HD55gnC1qhba19FY7lubALzX62Fvfw87Ozto1H+B8F/1cxZZ/kmwTKDMVKf0hlekhLZ0BkqVkPoj+NBrvrTugIcKfMdDAuBFImhKUErkKyAalsophoCxYZNdIRiJNbnNYNUZ/F1TTRckRC4gcrUxecdOsrIjtAJyP7FqlG5qKKGknmSUKZAtJMKzEtGwRDorka8kyligSFV41j0vV5mpJNAtXG7VCRdYrZYIwxWCILj1F3MlOMqIT67TCr+2T/VXK7aOnw6CAJ1OF/sHB3jx8nf8z//8D548fYpWswUpJcbjMd6+eYNXr/7C6cnXbwSIAAAgAElEQVQJFvM5jZQfeG4MQ3XK6nX4QVCB8DxfJ0U+9rmvYtM3/ujtVmI/Lfi7w76UQgBZhpUQSJMEi/kC4YqoK1JKcMbheT5cJVjbLD2ZsGybALhlqUj32z/gjHHluNJCv9/HweEhJZrGCQBUC86H3t+ay+55HtqdDvYPDnB4+AT7Bwfo9nq0yLgGBJVCIEkSTCcTTMYTrJare4t77+dN/23Xt+ptLa4snqYIwxXyIr82j0H/u+d56Pd38Pz5CyRxjCgMkaQJLZzuGe61uQ3GGFxFfdnZ3cH+/gF2d/fQ7XYRBMFnqV+/6tsspv9rC6GJVz+YqdAY5QZxDT3jhykN4DLlApKvY9evWASyjURGnyGzOQp+j5bqt1gKwKYzudEBL5DOBUS+prxoXnwyKcE5g+lRKA6F5QBMfYUxg/zU3R4H1JQhj6gTXeZ370QzRiE5lq+63946eIdBTQUKoEiBdC4RXZQILwvkoVpUlYp+8o1cKhMgQcFyucRytUKz2byTq4lQHZpcW6b9wONtTZmoBwF6vT72Dw/x/MULvHxJXfBWuw1RlhiPxzg9OcH7d+9w/OEIo+HwwTQUXaZlolarod3poNlsgDGGXFFRaLTy+ADcME3lKezB81zYjgPGOcq8QJqmiGNyJskUQLz1PqlFXVmWyNIUYRhCSkHnvF5Hu9XG4cHhjYtEbVdoGKZSat+eilIdmxJ6NlttHBwcYrlcqrEZHcNquUR6Ty623gYlgHpod7t48uQJXr78HS9evkS/30e9Xr/WOUMveOM4xmQ8xng8osnKg9Jof5DnlAEqr7gCmN/SO0hIiSRNMZ1OMB6PsVguqsUcgGuBuOO66PW6SJJnSJME8/kcaU4i5ziO7++spCgotmWh0Wxif/8AL168xPMXL9Dr91Gr1WFfc//9qm+7GJRns6FSAO/uXHrzJ3MGw6HIb+MBKYPfTQlaZohcotTuGakEtygwR6dDcpvBqjHYdU4Uh8XfvePbKSmAMgGSsUB0SR3wdC5QxFe/d6UEylxAlgypVcKaaF9utWBTwTiMkW2hU2eQOYe7MpCtyDc8W97DWpEBnFPn23A4DEvxwHVmUmWnKFHEAumyRDYvUSTfznfCZlWd8MVigUZjeSexl5QSogJOBXFMv6Evv22XaRio1Wp4cvgEz168wO+//4EXL1/iYP8ArXYbeZ5jOBzi3VvqgB9/eI/hcIDVaoWi2A5ZzLZIgLizs4tutwfTssibu/w6HHzOORzbRrNJFoO9fh+tVgumaSKKYsxnUwyG5BVfLlco9YLunvtGbiAR5vM5lsslslvReei+FA9w/fB9DweHhzSyd1wAgIb0QgWv3Kd0B7zb7eHJs2f455//wp9//omnz56j3e5c24Hc9AePogjj8Qij0RCL5eKBIPxHKboyXMW9Qy2+vhUgLsoSaZJgMplgNBpiPpsjTVIIUYIrP+6Pgbht22i12hQ6J4RakFLnfDgYPAiE25YFv1bDzs4O/vjjH/iv//kfvPz9d7TbnV80lO+1OAMzFSXAZigzeaOzx12KccCwACsgKzjD5eAPSRr8jkqUQJFIZCsBa0X8Y81u1MDSbRvUNZ4LsC+lSn4nJQWQxxLxoKAO+KyEyK9pfElAgkEIArvJpIRh0zkybAOGAzC1aAFn4LaEFQBuj6PMKFFT5DlErqwD71KMFofMWE9o1vslgQKQuVSdb/ZNt5tUJ1xgNp2iXq/fS+wlQSuZH83ojHFObiS2rbiTZEH424uXePHyJX777SUODw9Rq9fpHM6mODk5wpu3b/Du3VsMBgMslwuk6fa4xJZlol6rod1po1arochzhGGIJE5Qlo8LyLgKB6o3mjh48gQHB4fY299Hp92GaVmIogiTyRiNZhO1Wg2TyRRxFCJNUmRZiqIo7kyZ0Z1NzvmnD9tGaSpMUeTkn61DaO553i3LRqvZqkJLkjSBwQ34nofRaIjlYlkdkz6ucmN7m5QdwzCVpaQN3/PQbrWxu7+P589f4I8//sDz5y/Q39mBY9vX2oNqj+nFYo7phLqp89kMSRRB/ALhAHSqm6JHMfZNNQOklMizDOFqhfl0hulkgulsis6iA9/3Ydn2JyDcMAx4vg8whjwvEK5WkJCUrGpamEzGyLQGpyxvpKhU96FhwLJseJ6Ler2BTreL58+f4/c//sBvv73E3t4efD/4Kgmdv+r2RfxWcnmQBQhYX1OMA6YNWB7xcqWgTu5dHwOp6CaMk82b6XO4LbJ+s5sMpk9BJT9DyZI64flKogglDEcqOzqm3DkA1Cgoxm5y2HUDZaL4ziW+20Gj5oRnK4FsSU4oN/HiSVTJIDIgXwnE4wLcBuw6A7c5LB9KtAkC4i7gNJVtYclRRAZEUaIAcfFvur8/3TCqBVHVAd/c/w3RavULD7kgKpiJmUwtSjlMh21lQVqB8PF4jFqthjAM7yT20iCJuk8/xkoQWH952baNRrOJnZ1dHB4e4vDJEzx7+gz7B4fY2d1FXQHw8XiE46MPePPmDd69eYPTk5PK0WCb4jdDRbbX6w3Yto3JZILxeITFYoE8fzxApqkenueh1+/hn//8E7+9fImdnR3UanWYpok0TbBYLrG/f4DBYIDh4BLDwQCT8Riz2Qyr1RJJkkLcIeVRh/G0Wi00my3YtnMtUNCJhEmSIk0S5EVBse73pEdVATr1Ovb29iDKEvV6Azs7O7i8vMB4OMJsNsVyuUAYhoiTZK2JwDqG3nEceJ5P3s/NJjqdDnZ2drC3v4/9/QPsHxyg0+3C87z1s/RR6TTay8tLXFxcYDadIgzDyjXmV6lmC+cwOFfd8G+H8y6lRCkEUaxWS4xHI1ycn6NRJ297wzQ/uac1Ncp1XbTbbTx/8Rssm4J8ms0Wzs/PMFZd9TAKiSL10Xtbv8Mqx5VmE71uDzu79C578vQZnj57hn6/jyCoVcFAv+rbKSklypwRP1m5OVyHJTjXASLEyxW5uJdzA1OR3vqznJYBv2/C3yUgbvrswQmB30vJEigTgSKUyCMJu0GgjhmKGm6QT7VVA9wOR74yIEuJdAZIJV78Lku7oxSUyvnF41D0jyKSYFzAcEoC4QYASQJKZjPFowdMn6wNRWEgD5WtIytRRMpr/RZVvaaY2oHN15bm7vOPkzLvWSrqnlukAXCaypO8wcG3MP2oQPhkPEa9XkcYhpWDx5deyBo0GJx4tJwb3/1LnKkvctM04bguakENu3t7+O33l/j9j3/g6dNn2On3UW804TgOSlFiOp3i6P17vH79Gm/evMbxMfHA0y2CpI9t/HzfB2MMs9kUw8EA8/kcWf54Eetkn2bB93z0en38/o9/4M9//ol2pwPbssA4hxDUsV0dPsFsOsXgkgKKzk5PcXlxjtF4jNWKRGmf9aje6H43my30d3axv3+A/s4OPP96/28SvyUIVysSc6ZrkfBdq/odxmDZFlkG2g46nQ529/ZweXGh/pxjNBphNpthuVoiiWPi5kPCNE24jgsvCNBsNtHtdrGzs4u9/T3s7u6i399Bs9VCENTguu61x6RpKEkSYzwmq8vT0xMKw0qSKv78Zy8SpJFoWgvIbt1R+VqlaHtRFGM0GuLk+BhBEMDzfDgbdpoflxaB7+/vk31no4G2CpM6/vABl4NLEntGIfI0re5dCTW5UjaqjWYL/d0dHB48wZNnT/H82XPs7O6i1WzBV0LMO727v5EFzo9euqNdpgJlQsIyUUpwwa4IBZkBmL7qyoYUFy4yhvIG0P5J6c6iwWBYBMDdrgGvb8LfMeD1DNgN8mbm5vf9HX/bElUnXCBfcZQZYG5SfBi5gFg+g9uh/18DWEg8yAKvuq5K70Ix8up/qw+jxE7cfxtbLClU6mQkwKdA5OnutwFuQkXH02IRDt24ogC8WIF8AciypATSWxxL9fpRnfgrP88YOJfgBnmVc5O0EoLjbudJd78NgJvkQW63DAS7Jvw9A3aLg2+BvVeB8Ol0glarhTBcIVO88E3ni5tKW2rZlk0vchUv/q3wMe9Sm6K5er2OVquNTreLQyWe++0ljW3r9QY450iSGJPJBKfHx3j9+jVev36Fk+NjjMdjhGG41f0yTROu66JWq6NWq8PzfADAbDrDaDTCYjlHfl+njFvtw3ph0mg0sNPvY3dvF41G80oHtyxLtJoZ2q2WimAP0Gw10el1MR5Rxz6OYxXfna0pKkIAYJVwzLQIPOzs7OK3ly/x5Nkz9Hq9GwFrURQIw6hKbM3SBKK8R6T7R84nnBtwXROu6yEIfAS1mgJCbXQ6HYwnY+pGqhCWoigASSDcsR24AQGnjgog6u/soNPtotVqwXW9G9Np1/SaAqvVCpeDSxwdHdGERQn7fgHwzVpP5L7F0vdUkiQYjUY4Pj5CEATodnuo1WmSRI2MTzvitnL8sW0bjlqE1+t11Op1dAd9zKZTrFYrZHphptwrDMOAY9lwfQ/NVgv9vp7A7OPg4ADNZguO43wiZv1SA6Z6RqT8gWaf32hJ8qoWuhseSZQJwE0SCurrxEwGM+BwWhJFQl1JkZPeS5T4fJIjp66lYTEYLlm+OU0Or2/A6xtwuxx2AzBd4uD+LCU1J3whYNUo4MUKWCV+1aCYO4Dd4BUFRZYCnDNkYYkyRcXPvy0k0osrAn9rnj+3tQiRqL9lRj7YRSRIIHkPz+2tlVT0nRTIVgJ8WJJ41eEwPQluExgmmhNRnmSdwe8ZQKkWmpmAyAmc3zTxubI9sQbVVxrh2kfcljBdcq+xfE77l9+isw+oRSntq+FSN99p0DQo2DPh9SiZk20ThC+WS8wXC6xWK8RJgizLYCuu4k0vZD0ydVwXruvCtskW7lsTRt2mdOeV6BY7alxLHaP9g4NKgBgENdi2jSgKMRwM8P79e7x5/Rp//fvfOD49xmQyQXLPSPqbSnfAm+02ut0Omq0WHNdBEseYz2eYTCZK/Pl4dBTGyRXFdpQFoBqhf3x/MMZgKp9jwzTh+x72D/YRhiGWyxWWywUWSmS5Wq0QRRGyjEbpUgEH27ER+D6azRZ6/T729/exu7eHVqsN3/OuBeF5nmExn2EwGGA0GiKO4zuDVA0udJS7XlDqMk2LIr1NE41GA3t7+0iSBFmWkkON6kwzrJ8N07RgO3ZFS/E85Sij4sg/ty86on42neLs5BTv377F6fExVsvlVpx2ftXXrzRNMR6NYCpq18HhIVqtFizLunGBqcuy1vdfvd7A/v4+wlWIMAoRx7G6F2lxphsKTjU5C+AHPoIgqP7YtnUFgOvJlN6H6977658TEJDf3MDhRyupkkdEQd3wbClhLQWY+VE6oQnYAYPsGUQNCA2ITAJCxXJ/5kJxDpgOg1Wj7p7fI+DttCkIxfSpA34Xu9cfoUQpkYeCvvvcEl7PgOVTV5Tba/ItN0DcZ8ap+2paML0S8ZghnVKb905CWUXbMByKhLdrxDe3G0Q14haDFOQsEg8KRANALqSicrDbd3ofocifWyKZ0iLC8jjsgFxMTG0lyGjiYnqA26UbuEyhpjdAHgm1gPzchujeluXGtEEVUz7ips9hNwG3Q1x9KSTkUqAsv3yCmLoGls9hN2kx6u0Y8NrE/zcDNRXaAjWrSsxMkwRRFGK5XGIxn2O1WqFWq1WpjNfv6DpcwnHsDTBuo1Qdzm8ViFd8ScuCbdtwHReu76HT6WB//wBPnz7D0+fP8ezZMwqICQIYhgEpyc5xOBzgw/v3eP3qFd68eYOjkyOMRyMCf1sGSFyJtPr9HfR3iIfOGEMSxwRmlwskj7DdzSLqFaWjEvc6QZKkcN28AuQAKmCuz63neWi1OyjyHGmWIQxDLOYzLBcLLFcrRIrPSh1kwDANOI6DIKhRN10lYNbrdbiu98l0RnuSR1GM8XiM87MzXA4GiOLoTlabABT1I8FqtYIQAq7rwPcDWCqhk3MOx3FhWbbiqbcJkChXoM17XVMk6Pe0SNO44q3+OZCT5xlWyxWGoyGOjo5wfHyEi4sLTKaT76wL/mUnm21th7qzW/q4R6qiyBGGK4xGBuqnpzg+OoLv+wAD2u1ORTO7DoxTmJRbhfl0OvRcZXlWBaVpDQpnnKZJtgPXc2HbTtVtpz8cAKssQYuiQJ7nVzrvH09pNhepZSkeJHx+9GI0Ajcc6mJ5HQMMqiv5tUt1CUVJKYxVvPktdoVJAJJVXdl0LmDWKInQsBmgOnHcYIDLYEvqgBcxiSwNl1X+yAA+AStgBCZMj8NpcDhtA94Oh9tiMGtkN8dN1eUU1P3l5hZ4tt9B6eTMLBQwFgSoTY+BGRIWowUQA5TzB4PJJcC5OkfEFzddRjZ86dpv/EaRo7oeuvutu7h2nSvxpwGrxsBtACWQTBkJKJcCeczAcvz9PHQJAtClRDYXSIISZsDBLAZP02rUvcMtBosDouRwI4k8NqsueP45io0k7niZqoCkTB236ohLPUVwAKtG/uSyNMk9yClRRAqQl1g/ENpk3yD7Q24xtTDVz4QBr0/PiOHQvnOOrTwHlc65LMjjeTGfYzQcotPpEs3kCx27CojbNnzPR61WQ+AHiKLwm43E1t0f27ZRU7STbreL/u4udnZ2sLuzi53dXfT6ffR6vUq0VBQFVsslzs/PcXT0AW/fkAvK6ekJJpMJxVE/Qjfa4AZqQYCDgwMc7B8gCAJkWaYmF0vEUUxBQI8IzEoVNR9FEZbLBabTKebzGWzbrhIqdW06mpimCdu2IYSAV5bwfR+1IEDc7iBOYmRpqjjiAlKu6U3Ex/fh+T5c14XjODCMq7J87Z2dZRmWizkuLy5wcnyM87MzhGF4525xURRYLpf48OE9iqJAp9PB3t4+Go3GJ8e18ehstbTANAxDXA4u8frVK7z66y98+PAe0+mErO3kt/lcfVq3EEfK6r8espXqn996UJgOfArDFQbDIV6/+qvqRBvcgGWaMK11h3qzrt5/VPoZIJeeHEVRQAhZTWL0513H+S4K7esfq056TO+aeh3NRuNaqpS259SWtN/qqV77OAPeDgfn5tZipu9asiDAkIdEbUinBfLolmNx/RklUCYS6ayE6au0wNrGDzDqyJoug9NkkNKA6TPkC66CUVDxlXXSo/YV111KK+Cw6wxWg8b3hk0dS1EI5BEghaiCWLYhSPvmS66dQvJQIhqVYBYDMxUIs7T93poCYboAwJWzDIPdligjgSKhz6nCYj56cDavB7cI6JkOOd2YHmB6HKbPYbqMvnrU+jed0d8bK0mL4o+6wn9LqUVnEQvEkxJcUWhMB+C2srhUAJaZDJZHwlaR03GVqVALVaKofvz1ICUB72xZwgoYiohD5BxSrK8HQAtT0we8vqF0DgzZnCMLyZtcaKFztSog20l6Hjgsj8EMKO3TaXLYdfLK3zbr8QqSyLMMs9kMl5eXaHe6aDQa8H3/s+lp+sVumRaCWoBWs4Vms6E6K5/xVPpapb+4mLaL4zBME5ZpEqey28Pu/j6eHD7B8xcvsLu7h1a7jVoQwPM9RckBsjTFKlzh8uICf/31H4qjf/8OZ2dnBI7SdOud6Kr76jpoNlo4PHyC3b09OI6DcLWqaChplj66SE8om7yV2u75+RkajQYYGNqdTjUpuK7LW1kM6gWbcnjR+yw2Omraas4wlLWfuRb96tr0zU6SBMvlAoPBAGdnZzg9PcFwMEAcRXc+H0VRYD6f4+2bN4jjGAcHB7BMoljpzuB1FJyHVtVhLEukWYowjDAej3H04QP+93//P7x5/QaXF+cIw/CL3X0JWQVmfbyPFef3ayyOdbdCgbaP74nNdNXP8/9kdX5uOiYhBAFCRZPAdWLfLRwPQCNfccO+6B/70rmVUiLLc0xnU7x58xqlEETrc1wYpolaENCiUwHnz91rGmxr3YiUa2C8+dx9fO7LskSSJFgs5pWmIU3TihIT+D6ui+zRz13+rU86OYNhkdWeYZOTwbZipu9aIgPyUCCdUfhJmQoUqYC8xVhcl5QE5NOZgOkK2A0Bp8UhPKytW1UHlrqlDE6DAEoRk2huLXoj4EGAT4WeuAyGo4WXqLjfIpcoYiCdCUCSE4hhrTvwP0NJ5YMdjxi4UaqFCAO3iBqitJOKBgGiCamodi8HTT9SoMzof1NH/FMzAn09uK3AoE3/rkNvuKHoD4zoKIbNqj/cYuAZ8Hc3wjerzGnRyVgBZgB2kzQHjKOipQB0jE6DUwu7ALIZp+lNSfzwT0C4WFsomgtloxhJmIEkzrzm1CvHILfDFTVFoFgKZCv6XaKo0GcyBsBYd7+tGi1MDY+ug6GuAyQdF1MLCHpWHnaerqDrTIHwi8sLdLpd7B/so30LIKP5h/VaA91uD6P2EKswRBxH+Fupqxu0CEd5fbuejyDwUQ9qaLbb6PX72Nvbw8HBIZ4+fYZOt6Nim+ktUxQF4ijCfD7DQInj/vrPv/Hh/XtcXFxgOpkgjqNH2X2u+PaNZhPdfg97+/totzsoihzT6RTD4QDRKkSR549OT5BSoiwKJHGM6XiM9+/egTGGKIqwu7uLTreLWq1OvscqMn6zY/dxd/whmXxasBjHEabTKc7Pz/H27ZvKlWaxXNxrCiNEiTBc4fzsFJPJBOFqCcYY0jSlhVmtBsdxKnrKNmpNP8nVfTbHaDzC+ekZ3r59jbdv3uDs9ATLxaJyLfrMh1GCbUne5ZvXYE0jKJEXOS2AHhGRCAXWsjRDlmXVPbHJP87zXPlc3xA0pcAuebCvAZ8+99Xx5DnyTIl8HykwTCoAXhQ5ijxDWRYVvYh2VV5dWHyBGlMWJeIwwqAcgHGjojkVRYHd3V20Wi14ngdTnbfPlQbitzoOKYlOFseYzqa4vLjAcDhEmiYKgHdo/2/4XT15ytT5ljfN1v/uUrxTw1B+zsHf17ktcwkrIgqJyCWiAQfjdzxvAigLgWwFGPMS9pTDbghwa4Nry0HjdIMoC9TdlhtUCL4Gf4zG7kx1dA1LEqBgDFICpereF5FEvpRIpkKJEQ3YwdZP0bddAhC5QLYADJM61AoeKLAGQlLKncngUIsUVk0fRMZQFkosey0I//R6MCVkvFJ6miGJs74pTvzW1sPUDSeeiOEwJGMDhivAOIfFQLaFIBBreAy2BIqIHH6sJS2aIa7XM4hSAgmQhQLpQiJdSBi+BGqAwddAnJtapAlYLkfhM5h1wAqJIqSvQzWJUPQ1KyBAzm1qtmjgXySkEwDIjciqMRgPFCtfBeF5jvl8hovzc/S6PURhdOvurmWrJMfdXYwnYwzHI/DFAnhEx44vlRYJep6HZrOJTqeLnZ0dopzs7aHb7aHZbKHeqJPbQK0O13WvAvA4phTMd2/x+hXRAs7OzjCdTLBarpA/oi2gZdtotVrY29/H4eET9Ps78DwPw+ESl5eXuLy4QHSPcKWHVJ7nGE8m+M///R8moxFOj49xcHiIw6dP8ezZc/T7O1X0+mMFf1B8u+oWHx3h//7f/8ObN69xcnxcAfD7dEOFIG3EdDrFyREB+vl8juFggJe//4GDA0pGvY1r0G1Kg8qyLBGGJPQ9PTnGu3fv8P79O5ydnOBSJa7mt1hoCSFR5EXFD/5YWF2q5MYkTpDnGY0vH6lKUSJNSWcSxxEYC6quLHVTc0WDiJCl2bUdfon1givPaWGxSavQ1A5Np6gEvo/xbaQXoQltK8gyOI6DavYJvSjQHWLx2fAyCYmipEnOZDTEawBxFGIyHeNf//ovPH36FN1uD0GtdmuAfZsqyxJJTPqJk5NjvHr1CudnpzBNE//880/YtgNXWSZ+egpkdc7TNP0qi/8foTRNRNQ47IDDMG8OHbupJAjUIBPIFgzRqAS3CeR5O4BlfCqc1AI1cIALAtdMAUMNUmAwMC7JcYMxNcGi2PJ0JpFOBNK5QL6SBOp9ASE2vBF/gto89+kcAAPKHMhjIDgAAALizNygNuhiqNIimckgLQkIBik/vVYfX4/rbhIpKbipiClEKFsJFKEK1Cm/ASrKRlWi4pz2NbosVcIlUW64YrBqOjY3AcNnsNsGnIh87kUhgI8pZBJVUqdIJbJZiXjAVVeaVy4sm1WJNRlg2BJWjUMWG5TwypGGuttkbSgBziBKQOYU2JTMJKJBCQYJt2fAsAwV4HT/ugLCy4KS2aaTMcUrz2dYhSEsy4JpWV9U7jdbTezu7ZFtn/IzLvL8SpLgNqvyKVdiI9M0YZoWLIv+adtkz1Wr1dFqt9HvUVDF3u4+9vb3SAgVBLBtu+rUSSnVlwwJ9KaTCU5PTvDq1V94/eovnJ6eYj6fI45iFMXjfAnp5L/AD9Dv9/Hs6TMcPnmCZrMJAFgulhheUhBOHN+ddvGQEkIgjiIMFG9Zu+oslsRNn8/maLfJRcZRIrKrgrDbiROlJFqFpjOUagSuE0Jn8xkGl5d4//4dXv3nPzg+PsJ0OkWSJJV92l2rioaPI0ymE4iRqABeXhQIwxV6/T4ajQY8z6+OzTRNmOrY2AbtZvNzdYdUA7UiJyFclmeII9XRPzvH8fER3r17i+OjI4xHQwoByvNbUUjyPMdyucB4NEK73am6qYZhKI/qCNMpRacvFst7R5/fpvI8x3yxwGBwiVaLXG4A0lboRcdoNMZgMMB8MUd2zb4IIQikqveRaRrw/aDSHyRJgsV8juHgEqPRsFqQPsbiQgiBJFXR8+MRbMdFs8ngukZ1vHEcYTadYj6fI02zz0cx62mAyLFarWiBlGVIswxcTV+WyxU6nQ4CPYExTRg3WBlevwkJKfW0oECWZdU9cH52juOjD3j37g0m4zFaLUqH9X3yLb/Jt75Q07Akiv9egbDqCJZq3E9cWzVeZncHuY9emkda7RvDnbQQEgTeBFDGEtm0RKzWSYwDsiQgyC01HlfbYUpoduVzNvZJ/50sKZhF5CBgs5CIxyWScYlUCQvtmgG7wVCm9PMauEj1+7IA2F3jx69sf03ZkBnFjW9tGw+pjXNf0HmARMQAACAASURBVL9AigJSSDCDOqR2jcPwQFZ8ij4Cdd6ZAuLga5rPtZde/V9XqGMliXhloXQBOXmXZ0uJZFQinZXIYwGRK1rf5xZHX/k8a1GxKIF8gx9uOgymDXBD+Wzr41UUEk29+Zwbj07qLFMgXwoko0L9HgChngVTUXkqgK2eBQvg14o+teCYppiyUF7xKYU1ZXOBdCwQXpb0uZxRKJFDrjj6ekuhrlculdD083DkKgiveIJL+rIZDtHr9ytrrE3x3cdl2xaaTQLh09kU7XcdTMZjZFkGqCTBbZa+UQ3ThOs48Hyy3arX113ter2OWqOOeq2OeqOBRqOBZquFVqtVhVRorq/+vDiOsVjMMR6NcXl5jpOTU5weH+P4+Ajn52eYKaBXPFLHTS8qbNtGs9nE4QF5lD99+hSe52E+n2M6nWAwHJAbS5J81S/Cih6g+Nw6Un21XGI6nqDT7aLdbqPZbKLebKBRb1ShJK7rwlEiS8uyrlAUNj9fbyNXoCSJY0RRhNVqRdHt0wlGwxEuB5e4ODvDyckJptMJkjim++y+10Vvu6DnII4iFGVRAeWL8zN0uz209PHVG6jVa6gFAXyfeLyWrRcdyjFGShRKOKc7iHEcIVytsFwuMZ/PMZtNMR6PMRoMMRwOMLi8VF7zq4rrfJtKsxTD0QgfPnyA4zjV/WnbNvI8w2w2xdHRB3z48J7CpLZspXllX5IEI+Ug5NgOuLrOjuMiyzIKuPrwHh/ev1d0iE/3pSxLLJcrHB0dwQ8CSCmxu7OLWr0OAFitVri4uMC7d+9wfHSE1XL5aDadZVlitVrh9PQUjUYTtuWoxft6QTAejXFyeoLzszNEYYjyS+48kkRyespBfyiCfjKZYG9vDzs7JBBvdzpoNBoI/ADuDTadn368RJ5T9365WGI6m2I0GuHygt5rw8sLTCYTSCnJ8adWQ61e+2wnvFDibJ3S+XeBcCklRMGQRxSkUij/7KojWX2h/v0lS1Rf5HkkURb35A4ohlOpHDEABlEWQClRxAZZCtY/6sreQkQmcnJeKUKJbCWRL4i/nk5LpAuBPFqDCXfFUcYkatPiTKmAishUx/iOx0bUCqCMBYqIEiq1cG5b23hwqXMvCok8VtQ4QQvBfGHAbnJYDQ67Ro4mhsvALLkG3fp2vMM9qSkQeUS+70UsVQecKBjZrEQyVW4ftwi5+bvOc+UyMxcwjIIAuEWxo3aDOO2MKbCqFhlFQp7eX/IKFwVNA8AYhCjIkjMmq027xhRVS/G5q2fh5mz3zUVImSjwvRRIpwLJlJ6LZFbSQsJjFNjjSLKutNQ5zmghWyR0Lsscn8WKV0B4xU2NI+KGX1yg3enAcz04yrbqxg8yLdRrdRS9ArO9GXZ3dzGdTpHnBVb34OjqLrcW6vGNf/7/7Z13d9tYtuU3Mpijki2nqu6unjfzIec7vlnrdVlWFiUmgETOwPxx7gVplSzZZQW76v7WUlkuSyQIEsDBufvsXdu9KTIMw0C73Uav10d/QC4no9EYo/EYw8EQ3V4PrRZduAxDZ8Xf5xZc5ChQIs8yOC7Fg19dXuL8/AwnJ8eYXd9gtV4hCMM6yOgpC3DDMCgQZ28Xb969xbv377Gzu4sKFVyXNMOWtYTjrJG+4JJwnucIwwBZlsJzXcymUzTbLfS6PfQHAwyGQ4zHYwwGA3S7XbTbHSrImy00TBM66+7JzC6Nd7AL9l4kSYwwCOH5VKzato3FfI7Fgr6spQXHWSMMwzoy/rH2BV92L10XcZLAWa1xdXWJbq+HwWCI4XCE0XiM0WiIwWCIbreHdpsKcV03PltZyZgLRRxHCIMAruuyjvSSvZYF1rYNz/UQsFmKhH3OvoU4jrFYzHF6ckz6QllGlqUwzQaSJMF8NsWnoyOcHh9jsZgjjp+wCE8SknGdnEKWFWgG2ZaaDdqW2WyKT58+4eT0hG1L/IfHKPIcnuvi7PQUikx61rIoMYgjABLslY2z81N8+nSEi/NzeK6HIn8aaRYvwq8uL2u3Hk3TUBQFJEmCs6bPx8nxMa4u6Ybgvm3ZzEgo9XuV5znW6zUF+iwWuLmeYG//AAcHr3Dw+jV2d3YwGAxpNsE0WYdzIzeSJH7N5IPLBSvAXSyXFqbTG0yurnB9PcHN9TWiMISiqhiNRhgOKUCKzz18qQgn5x4fvuchjuIntUW9l4q7VpTkOOKU0Du05C9r1aYD9gNQJFTcxlaJZF18NhD2ZyhzCuSpyoIcN1IqFvJEQZkDek5DlhILlfkivKiPK+omriokqwKxVSJ1CpI6RCzgpKIuI9/XigEoDRmSRB3VzC3JdeKOQboHYcVhztIpn+Q5HomqAsDkIFVRIE9oW42+DKOvwOwrMPrMR9oEabuVb7shrDXeLAo+caiATT0qCFO3pPcmpBTVImPa8HuKS3rgF9rP7FjNyxKJAshaAUllj10p0FolIEvII+rwpw5tXxFXDw4v33ksBBUakYJiKMPoktd6PTPxwHZSoA/JsfKABqHjVYHIKpDYBdKA3aS0JCTrEtGypAK/JN15VYJkQl6JLCyRR2QPet/xftvzrXbBcF0H19cT9HrUQe72umih/YWHAXPxMNFhaYrv3r1HGEYoywJVWXzWPX2IWmKiqlQ063p9E6DrBgxdh2YYrAPeRLvdQbfXpYTL4ZB9sYsK6+zQMN3n7wINGSWIo5ikFa6DxWKB6+trXF1e4PLyEhcX51jZNskcntBVgksYdF1Ht9fD4etDfPjwC96+owLcMAwsFgvM5jMaPnScjfTiheCFasr8vwHSsbeaLXTYqsNyNEKP+Xy3Wy00eVfcoE6iqml1l3R7EC/LMqRJQl23wGeFK3XybNvCyrbhue6dxdtjsN3xT5IEvutitV6haVlYdpfo9/sYLscY9MnHvNvtoNlq1QN2mqbWRTi3giONNBVF6/WKVpvY6/E8D0kcI39o+PIesjTFyrahKCoNaOY55rMZDMNAmqawFgscfTrChK0cpOnTFeFZmsJZrTGRaaRckgBrsYRhUid8yez5uGwtS/84W1EUBcLAx/TmGkBVW4T2+iTLWq/XuLy4wNnpCaazKbNFfaIivCwRBgGm0xtavQEQRSH6/QEACa7r4vp6govzM1xPJrSKUfyxK89TPWVZhq5pMM0GsyQEqrJElpFDTxAE8HwPrudh7ayxWq8wH+9gMBjUnvmqqkBRyTlIZo9L0qcCRV7U8hPXdWFZS8xmM0xvbrBczLGybaiqip29fezu7eHV61fo9Xrsce92w+JSPdd14bgOoihE/kQ3PQ9RsS5YEQOpVyJeFpBlCVnAHCuU6ofphJcJkPpkLxhZJfLvLMJ5UVMVFdPNMllOThrZrEMuFLKO2jmlur0vKrCwEyooU5d3+agDnvkliqSsO+AAkIesCziVUGaA1qbjukjIvzxeUtHxp14bG8DLoyd8jseANYfJzapEkUjI4xJFTC40tJpAoTpqgwb9FJU+j9UDd4USf+xyS3oSVEjcTeGd+RXyoGCBNtufowcKcM5L7Gd2U1GWLPxIkZjWmj83Ga7nUYXYLpE4BbmjpF/x/HcdCyl13vNIQeZJUFtkrfnFYwGAVJEsp2DHUB6Ro1Hq0PbEqxKpW6BI+CCnjGRdQtYKeu6YApyqgm64I6tE5hX0GoqS3czc/Q7debYtiwIB6/o0m02MxjvYPzj4oi0XbRRdAHRdw2A4xL9++411OCskcVKnuT3k48svUoqq1r7j7W4H3W4PvV6P/ux20e310Ol2aytBw2yQ+4lh1KFBVBCpzF/6j9ud56THXC6XuLm+rocu57MZbMuCs17D9bx6u58S7hrSbLWwt7eP//rf/wf/+ve/8f7dezSZ7zoVHKeYz2ZIXrgA/xJFUSCMSMYRhAHWtgXNMKBrOpstIL2+qtBKxnaIDYBaw1oWFAyU5hlypmeNk5j0qHHMYu+fd+iXBkIj5Exfbds2TMNk3W+dNLuKAqm2MqTf4+EmRVEgzzJkrMsfxTELPYrrTv73vKNZlrEObI7Ac3FzfQ2DacJLNpC3dtaUihtFT5qwyvdRWZaIoxDL5bLWp5clae3X6zUC30MUx8jv6KiWZYkkSbCybaRJAtuycXT0EbpO3jppmsDzPHisaE2eUKNcsqFW27KQJXSz8/HjR5imCQC1fafrOgg8j9lJ3r0t3E2q1W5jPBqj2WpBUWR6/4IA9nKJOEng+T7SLMN6vcbkaoJWkxJXTSbtMk32udN1Jn+SWJjWZoA0DEP2Z4AwCBCFEZKE5HTdXh+Hh4f412+/4Zdf/oFerw/1niFQuulOsF6vsFqtWErvCw3ekzSXlrldKhbjdQlVl5gH8Y8jRwGLy+bL7FTcPMIyPxvSy0J6/XlYIloWtcexbJBfNe5YFaiX/pMKeUw3BkVEhVeRsu73rU5oEVeIFjmKuEK4KKB3ZECWUMRkE5d5BVKv/C4v9ud4jkdhazgQCZCUJfKErBwVnYUp8S9NgqRv7AW/+HhcCpGx9yBh709KhWHB7A1LrjX+jl3wUvuZ5CMFdbCDEolNcpQKpFPPQ7oZzKPqTnvCL3H7WMjCEpFVkDVh8/5jgZrPQMU+93y/F2yfF0mFPPl8X5RZiWTNVuNcCdFCgazSjVMeUsBT5tH7WFX3r1LcWYQXZYkwirBYLtDpdjGbTfHaPkSn073Xoo062Cra7Q4OXr1mRQsVTKqiwHEdxFFcayVlSYLMhtposI2G3BRVZWEtrY2Wu0da7l6/h16vTwV5r1cPam38pPnA3+eDf5tUOOrcpkkK3yft+2w2w9XVJU5PTzC7ucFqtaKLehzX3fsnKXglCTLr+jcaDXQ6Xezs7eHXX3/FP//5T7x9+xa9fh9lWWK9WmMymWBydQXLthE/oZ73e+CyniLPkcQxAs/byInqL5n5qkpsgEiCIpNGrNqyeKtt39iQZnnr66vek63noL/f97P8V6T697bPdFyuxV+b73lQ6s/a5vVxAeDW3FPd5b9tZVfUXtll/XN/Fj7IyMN+lkurvhmoKu40kj3tZ3prWzJm5RfHVHBvu6Nw15PaK/6ObeHyB74a4TjOZ0OJm+CY4slfU70tZYk0SeC4DrStYXX+evIsq+VtdxXhqqah1Wyh1+9jNB7j4OAAnU4XqqpQ6JTnYdHrw3UcCrNi6bRRGMIGDW0rqgpdI8tVgxfhzDWmKkukGc1RUABPwiRrBSRIUFUFumli0Gzi9eEbfPjwC969e4/9/X00m03IXyjC+Wef33yuLAuB7z/pjdxDVKwQz9mSfOrzY/fFNuluKtDxz9ISq/I7O+Fbj1uV3PaOikDZo5Ai1ZRJa6vy4u/Wr5bcZYM6jmW2NQDI9c582xllXiHzgSLJkXoyUo+O5yKhpffaA/s7DsHneI7Hgg8H8pTHMi2RseAeSZWgaNh4eOsSpZp+UYy8KcLJV7ysi+46ZZNLtKuH9d8P8VL7uSpJL53ltNKSBRIkhZx7KnaDwW8Av+k1bh0LZU7hSJlPjihJ4/5jgWQ6VT3gTTehtD38HMNtITllAVQxFeZ5JEH1aeWtzLmmvqotJFHdv0pxZxFelSUydkGwrSWmNze4nkzQaDQwHo0ht9tfXLLkkoper4cif4U8z6FpKgb9Aa4mV3AcB2maQpLIUcU0G2g2Gmg0GmjUnR7290YTzSb/aqHV2nzfbDXRaDT/EKJyG34xpE4VG4RbkRTAtixYtgVrucRiucB8NoOzZhrjLHtyvaPMLRRNE8PRGK8PD/Hhwwf88ss/8PbdO/T7A8iyBM/1sVgscDOZYDadwnXWz94F/mpY0QzgqzXN2zZ6j5p4uLX0L8s8L/eBKvwPP49NYczlMgBe1gD/brYL/Bf/fLDPAS9O/+wQ6LYs6KXhXvkFG7K9Kzjooc+uaZrY29/D23fvcXj4BvsHlMiqqiryjFaPbNvGyrboHLWy4azX8F0XYRgiZYPYkiRB1zSoqgaFzVVIzN4gz2mYmHt5F2VZB2T1+n2Mxzs4ODjA27fv8OGXX3Fw8Ardbhf6F2xFuaMPObZ4sJY0k+J5Hgtke0HqJfwKyNj/+DvBXz8qoABKCZCYNlZSJTZvAF4xbn6NFXwFLxaKitbpHxjsq3Iq1su8RJWzwiOjDuC3hA+95HM8KvzSUOAzS1IprVAqQM4KP3ovcM/lR6pdNKq8QpGVVIg+kezmxfbzlpyHBiArQJY2xzAvdss/cSfNb1JQ1S4wEkspve9Y4LacfH9UOdu2+3YBP35KOn54l7wsqm9+3+4uwtmFL4ljOI6Dm5sbDIZnrPNi1IM7X+6G03DhYDiAoipot9sYDkdod7tYLhaIkxiyJMEwDHIz6ZKLRqfbJe1wp4OG2YBu6BvLQYU65CrTilPnW70VllGSd2RtBces7TKSnVi2hTnTRU4mEyzmM6zWK3iehzAIasnMU6ZP8k6wolA8e5N1xV6zZeF//fYb3hy+xWA4hCRJ1Blb0pDWfDaFbVnkvPCCHajHZrtweexO5kN2iLeRtopwWZZfbvBM8ENz1+f0az67jUYDB69e4d//67/w66+/YmdnF+1OG6qi1l12PyBrVK7hns2msBYLJiUKkCYJ8iLf8lzPIRXAZriZFemsSy5JEprNJgaDAXb39nF4+Aa//vIrXh8eYmd3B71uj4J6vnBOL5lrlufRQLG1XNJqYRggv0P3LnhBWDFTpFSAFPfYNfLChzqO9xfgt5+DD/htP86j8hzP8YRUFYACzMUHkNKHBoU3r7NeNXmOl/tS+5k9RZkDkLa6zA9IN771Ob7pWKC7Wep8f2MHvki3/v6Nu++LefTcozkIAsxm09pmbjAYUIDEPX61vIAhL2W97mprmgZ7dwdJkkCSZBi6jnang3a7vbF7a7fRYgNuPJjjvuJp29IuzzPEMblQxCyUhOshXdeBbVmYzxeYz6cUuGNZ8HwfcRw/S1HLnV4Mw0Cz2USn28VoMMTu/j7evH2Hf/zjn/jw4QPGY7KF9DwPK9vG1eUFLi7OsVwuEQQ+2T7+xXgStxnQaoMib+QiD/6ORHfMCpPQfOeqn+AvzLd+ZrlF43A4xpu3b/H+wwf0+32YZqMe4i0K6rKPRjRY3meyFWtJbkie5yHk7jl5jqJgshcmxWE22TRjIlN2gqaT/eBwOMTu7h4OXr3G+/fvMd7ZQavVqp18vkSWZXAdF/PpDNObKeyVDd9n56EfQRcg+Jxy+7z1RO/PF5IMf7rneEJ4IQ583iX/4Xih/Xy33OSRCnDOsxwL0nc98heLcE6SJLCWS6iKApN1cXr9PnRN+2KoA4cPGzYaTezs7sI0TcRJzJaWqdDRdB26Tp7RukadGz5M+VABDmy69mlKg1GrLamJbdGS7mplw3Ud+H5AA0oh+TRz/exzWPzxAlzTdXQ6Xezt7eH14SHevHmDt+/eYX//AKPxDnrdLjSNEjuDIMBkcoXff/8dx8fHWDtrZH+hDviTI9EBXevQ8bAknH6euuYSewxRaAi+Fz5noLPMhUF/gF6vD13X63MotyzU2TmCAtD6ePP2bd1Q4CmjpPeO6gHljSaeAilURaWwskYDrVarbm602m1yk+p20Wg0PtO1f4kojjGdTXF8coyzs1M4jkNyp8eUjgkEAsHfkAeL8DzLEPg+lrKCTmeCy4sLtFotyJKMwXBYd1D4smiWZbXtX5bnqKoSsiTT8GGziU63U8tIuESASwC2vwc2gTxc58qHK/Msq9MTyTUjQRSG1O22bVjWEsvFEtZyQYX4yoYfBLXHd8F0kvVA3GNeSLZeA09T1Fg3yjBNNJstjEcjHLx6jTdv3+DNm7c4PDzEYDhCo9GAJEm1Fdv05gZXlxe4urjAbDZFEIZCHvGt1IOSD5Xg9S/c+h2B4BGRsJV18EeRKD8PmibN1rTbnToFNKsDn/gqX4iYF+FsGLSqqvrcYxgGzEYD7VYbjUaDfPm3Ul63z7m34YOoSUKe5VeXlzg/O8VkcoWAOfCIAlwgEAi+jweLcO4FHQQ+5vM5Ph19hKLIkCUZukH6cJkFTYRhCNdxYFkWZrMpfN9HWZYwDAP9fh+vXr/GYDCEYZifheXcx/agWRRFCHwfrufCcz34vkcWZR5973sefI/9+9bPBL5fh5886YVjy15R13WSnLTbpHvv9chbejDCaDzCeLyD8XgTKkQ2ZeSQ4Ps+Li7O8enTEc7Pz7FcLuD7PnXtxYXv2/lGwwSp/o9A8IiwVbs4iREGtCrXarX/MF9T5yTcOj9uGhEZ0pQaENsFOF/Rk2RyG1I1FbpuwDQNaNr9A+y3IY/2AIvFHGdnpzg9PcHFxQUW83ltPSkQCASC7+PBIhzYdEXW6xVOjo8hSRIaZqNe0jQMg2y7nDWuJxOcn5/j+NMnrGwLeVGg1Wrh4OBVLf3gneLbFxleIG9b1PHgljiO4bkubNvCcrmkkBPLgm1bWK/X8FwXUUSuJinzYs7TDFlOtmLbF58HC3H2c9Kt/ydt/bltr7ed7Mkj55vNFnq9HkbDIUbjMcY7O9jd3cPe3h76/QFa7Va973TdqDvgURhisVjg06cjHH38HZOrKziuiyxNqQAXRfi3w60BH1Dmcd1YJfaz4JHhGQtJmsJxHMzmM3R6XYxGBTqddl0kb59PbsNXCKnTrcE0zc/Olajo812vKG6dk+7revPt215xjKIIy+UCp6eUSHp2dorp9Abr1erZJHwCgUDwV+erinBgE74xn8+YBWEf3V4PqqpivDNGmqRYLpZ00j76iJOTY6wsC0VRoNVqIwgCGCa5qmiqBoN10Tm3i+4sTWubLUq09OE4NJ1vW0vSfds21usVXMdFGPhIWKgOL1YpOEWGofPnYUX+rYtWjSRBAi+oWbENNlG75ZihsC9Z3fiakwZTo85To4F2q4Vut4fBYIDhaITRaIzxeIzxzhitVhs6cy3gF0WeOrlYzHF1eYHTkxNcnJ9TpLeQofw5qo2/OGlmi7pjeJct4sZVZyNVEsW44LGoqgpJHGOxmOP05ARVVSF45WM4GtcNDco8UL/YseaF+NesIn7LdnEryTim1UbbtjG5usLR0RFOT09wPZlgvVo9WUKtQCAQ/B356iKca76jKIJlLXF6egxVVZDnORRVQZHnuLme4OPv/8GnT0dYWRbCMERRlkjSjGLtDQOyJMFsmOj2umi32/VjA5uEPN/3mbzEh+e58D0Pnu8jCALSQbKUQVmW0W53oGs6sn6fDXxWKMtqa1CprL0jeWhCURabQquqNnKF2kljK80REn3PgoRUVYWuadANg6XWmTAbjdq/vN1qo9lqodlswDAo1Y6neTaY/zkPO9q+yMZxjPlsipOTExx9/IiLszMs5jMETIYi+HMUTEtLMwQ5ioLmFCTpj6swPOo9L3Lk+dPZVAr+voRhiMnlFTUtlgscvnmLw9evcfDqFXZ2dtHrU3T8lwLRnoLtc7ttWbiaXOH87BQX5+ckQVnMsV6v/7TXu0AgEAju5quLcGxpsz02NKgoKmRFQavVAgBMJhNcX0+wmM8R8cAb1l10PQ32cgl7PL4zaW07TbCqSpQFS6DLc+RFgbIoyFtcN6CpKlrNJnvsaispjxfzLOCjLP4weFlVFYqy/GyQCazbve0RXadvSjJkRYbCfMo1jfTehmHANHnIUAPNRqt2H2g1m9CZlzrvnMufpXlKn3n8JkmC5XKBi8tLnBwfU3LnfA7XdRH/oPH0PwN8taPMC6QsaMTzPJjspogHTvFERrr589kAby7kP4JHJ0tTrFY2kjRBEAYIggCe58JxXazXawyHQ7TbHTSam664qpJbFOnEWZPg1vD6Q/DzKm8+1OfWPEOSJAjDCJ7rYDab4eLiHOdnZ7ie0Lnc81wkaSpW4wQCgeCR+foiHKi1tWmSYL1eUxy5LEPXqeC8mlzBWTtI4riOpN7uMHKtdpEXnxnC8wsJn+o3zQZQAaqqoNEw0e316scsK56ne+9moqzKWoqw+Qfy6+TbxGUpEm+FS4AsyZBkiYpvmVLoJJmswxSFinNVVaFpGjRNh67r0A2dQoxMk8lsKGRo+7XdRcEkPsvFAucX5zg+OsKnT59weXkJx1nThU90Y7+boiwQhSElo84XddgUL8LzLIPnulgs5rCWS0RhRAWHKMAFjwxfoauHLFlTYz6bYTAcot8foN/rodNjwWXtDlqtFprNJrt5pBkSbi34tUU4Fd7MTSqOEYUR/MCH57qUIrxeY2VZlBw8n2O5WGC9WsH3fSRJLM5DAoFA8AR8WxHOKAoqauqEIVAEvbNeI0liSNKmm1xVgKpqMHQDjWYTZqMBTdch39I08i40d00xTROdbodFVpd10fw1hut1dOl2EVVt/1HV23770SRmjcE74+xvnw1hcosxaVsnzrveysNdqu3hJ8uycH52hk/HR/h0/AmXF+dYLBdIk0R0nh6JsigQBiFubm7Q6/WgaeRBX7C0P8/zMJtOcXl5iZuba4Sh/0PEpAv+mtTyjzBEnmWUSnx9DdM00Wq30e8PMBgOMBwOMWSFea/XQ6fbQYvZDRqGCU1V/5Byyb+rNk+GsqpQ5DmSNKGMhCCA62zSLxeLORaLBezlEmvHQRgGSOKExd5nYiVOIBAInog/VYTzTk7JBteqqoSu68gz0t2qqgpIgMY8axuNJobDIfb29rCzs4tOt1t3Ibf5kjXXX40syxAEPmzLwuXVFY4+fcTJ8TGuLi9gWUuEvv/Sm/iXoigK+IGPyeQKqqrWkqputwsAcF0XNzc3uDg/w9XVJTxfFOGCp4Vbv6ZpCgQBAEBWFBiGgU6ng26vj8GgT53xfh+dbpd1xZtomA0YpsmSLtkQJ0uElcAK8GorX6GkjnuSJGTzGgTUAV+vYdsWrOUS1sqGs1rRHI/47AsEAsGz8KeKcA4fpFzZNjRNh6xSF1g3DRgwoCoKdN1Ap9vF69ev8e9//xsffvkV+3v7aDTMx3oNPxVVVSGO2CeszgAAB9NJREFUY0ynM5ydHOP4+BOOjo5wfX2N1cpGLIafHp2iKOC5Ds7PzuC6LqazG4yGIzSbTQA0LGfbNhbzOVYrG57jiEJE8OxUrDD3PA9JmsJ1HMyMKQzDgGboJIFTNWiqCkXTmCROg6KqbKCc5ClUhG8cTzImA8wysmzlIWdpQqFqcRwjiiOyQRWyE4FAIHg2vqsI5/7hRVFAVVNohgFdp4uFqihoNFvo93rY3dvD23fv8PbdexwcvGKSAP2xXsMPD5efZFlKNo+zOU5PT3B09BGnJ8e4vLzEyrYQx7GQoDwB/GYxty1EUQjPc7GYzWuLzCRJ4PkePNdDHIW1blcgeE74rEqSJMjSFJEcsMKaz6lIm+8VBZq6cWySFSrESU/H515K5EXOZCU5Spa8WZYlzcNsrWjyLyE9EQgEgufju4pwALW3d8U9t5mjhMzs+8Y7u3j3/j3ev/+A/f199Pp9mKb5l5eccHgBHscx1usVricTXFxc4PT0BOdnZ7i5ucZ6vUIcRaL7+kTwzyg55lB3MAoCKAp3R8kRJwmlqt5y7REInpOqqlAVBR66BZR4XoGikC5clqFINItCkzNUZPPPe8XP0aLIFggEgh+G7y7COWVVIc+y2haOp7+1Wk0MBkP0BwMYpklDi8ye768MvwDytE+eJvr77//B6ckJrq6usJjP4boOUrEM/GzwTmOeZZDYAC1/r8QqhOCnodpkIUh5vhU0xotwbJJieTDZX/ycKxAIBD8bj1aE8yn8Ks9pwDJNEUchfM/Der1Cx+5CVVSyDyxLNJvNb7LY+pmoWPEdRRE8z4O9sjGfTXFxfoGPH3/H5eUFlsslfM9DKjTgz0rFnCJEuS34meEFtSisBQKB4OdFebW/938f+0H5VH6WZfADH+vVmnyvkwRlWUBTVRiGCV0nXfhfrRCv/b+XS1xeXuD3//wP/t9//zd+/8//4OrqErZtI2T2ZOIiKhAIBAKBQPD34/E64ZytAjxg6YOB78P3PCRRhCgMEUcxwjDCcDSCyQJudF2Dqmq1x/bPQm0DVhTI0pSlz5HbxnR6TfrvkxOcn59huVgiikKSn9S+5wKBQCAQCASCvxuPX4QDtf4w4/HITLtYFAWCIIBtW7i5ucbe/j52dncxGo3Q6/XQarVrx4qfBe4QE4YBHMeBtbSwWMwxm00xm04xnU4xnd7AWi7h+z6KXMShCwQCgUAgEPzdeZoifIuKDWz6vk8hKa6L2WyGq6tLHBy8wrv37/H68BD7ewcYjjK0Wu1N+qQsQ1aYRdcLS1a4bOS2pVeWpQiCEOuVjdlshsuLC1xeXmB6Q4W34zgIwxBxEiPP89o9RiAQCAQCgUDw9+XJi3CApcMlCdIkQRiEcFlam+u6iKIIrutiZdkY7+yg1++j1Wyh0Wig0WzANE1omv5ZHPxzwx0GiqJAyiQnURgiiiL4vg/HWcNaLjGdTjG5usT1ZILFYgHXc0kHL1w3BAKBQCAQCARbPEsRvk1ZbVLhsjxH6Ae4vrpCt9/HYDDAeDzG3v4+dnf3sLOzg8FwiE6nC13XKZb5BTrivABPkgS+T3Hzi8Uc8/kci/kcy+UClmXBXa/heS5830cYRUjTFJWwHhQIBAKBQCAQ3OLZi/CqLFHw4c08QxQGsFc2zHkDnU4Ho+EIlmXBtmzYto3ReIx+r4dGo0nxzZoGRVWgKCpUVYEsU4ecy1ckZnt4n/3htrSkYulx2xKTOtilKFjsM0U8h2EEx3WwXCwwn80wnU4xn89gWxZcx0EUhXWCaMEeW7ifCAQCgUAgEAhu8+xFOMDlHQXKskCeZUjTFHGSII4ixGEI3/exXCzQu+yj2+2i0+2i3e6g3Wqh2Wqh2Wyi2WzCbJBcRdcN6LoOXdOg6RpUVYWiqHVxftfzl3xoNMuQ8UI7TZEkKeI4RhxFiKIQYRggCAJyePF9eJ4H13HgOA7Wa7JeDHwfURwjzzIRuiMQCAQCgUAgeJAXKcJvU1YVkGWIyhJ5liEIAizmc2i6Bt0w0Gw20el00et20e310Oux4rzXRavVRrPZRMNsoNHgdocGVE2DynTk2x3xCqgL8CzlhXeMOI4RRRFCdhPgex5c14GzXsNxHDiuA9/zEIUkM0nTFFmWIsuyuvstLAcFAoFAIBAIBF/DD1GE87TNkhXhURTV/yTLMgzDQKPVQqfdQbfbQafbRafTRbvTQatFQ5ym2YBpGjAME5qmQVNJtiLLMiQAYIV47eud58iyDGmWIUkSJKwTH0Zh3fn2PA+e48B1XXiehyAMkKapiIAWCAQCgUAgEHwXP0YRfg9VVSHNMpRBgCxN4fsetOWSyU90qJoKVVWhKipURYGiKJAUkqHIzNrwdrlcVRVQlii2NOB5UaDMc5Km5BmyNGNa8E3Xu2AWg6IAFwgEAoFAIBB8Dz9FEV4WBQX/pCniKNoMXzK3lNtfgISNAkUCbs9nVvSfqgIqVKyw5lp1GqYsq6oerCzLzf8XBbhAIBAIBAKB4Hv54YtwAJ8Vv4Xw3BYIBAKBQCAQ/OS8TPqNQCAQCAQCgUDwN0YU4QKBQCAQCAQCwTMjinCBQCAQCAQCgeCZEUW4QCAQCAQCgUDwzIgiXCAQCAQCgUAgeGZEES4QCAQCgUAgEDwzoggXCAQCgUAgEAieGVGECwQCgUAgEAgEz8z/B5qvcnVM3rVxAAAAAElFTkSuQmCC;" vertex="1" parent="1">
          <mxGeometry x="715" y="-92.40000000000003" width="130" height="22.4" as="geometry" />
        </mxCell>
        <mxCell id="5HoQ82C4X57VyinW_T0t-8" value="address-details" style="rounded=1;whiteSpace=wrap;html=1;" vertex="1" parent="1">
          <mxGeometry x="170" y="28.5" width="120" height="60" as="geometry" />
        </mxCell>
        <mxCell id="5HoQ82C4X57VyinW_T0t-14" value="" style="edgeStyle=orthogonalEdgeStyle;rounded=0;orthogonalLoop=1;jettySize=auto;html=1;" edge="1" parent="1" target="5HoQ82C4X57VyinW_T0t-13">
          <mxGeometry relative="1" as="geometry">
            <mxPoint x="420" y="-114" as="sourcePoint" />
          </mxGeometry>
        </mxCell>
        <mxCell id="5HoQ82C4X57VyinW_T0t-17" style="edgeStyle=orthogonalEdgeStyle;rounded=0;orthogonalLoop=1;jettySize=auto;html=1;exitX=0.503;exitY=1.007;exitDx=0;exitDy=0;exitPerimeter=0;" edge="1" parent="1" source="5HoQ82C4X57VyinW_T0t-13" target="5HoQ82C4X57VyinW_T0t-15">
          <mxGeometry relative="1" as="geometry" />
        </mxCell>
        <mxCell id="5HoQ82C4X57VyinW_T0t-13" value="Search Customer" style="text;html=1;align=center;verticalAlign=middle;resizable=0;points=[];autosize=1;strokeColor=#6c8ebf;fillColor=#dae8fc;" vertex="1" parent="1">
          <mxGeometry x="360" y="-70" width="120" height="30" as="geometry" />
        </mxCell>
        <mxCell id="5HoQ82C4X57VyinW_T0t-35" style="edgeStyle=orthogonalEdgeStyle;rounded=0;orthogonalLoop=1;jettySize=auto;html=1;entryX=1;entryY=0.5;entryDx=0;entryDy=0;" edge="1" parent="1" source="5HoQ82C4X57VyinW_T0t-15" target="5HoQ82C4X57VyinW_T0t-8">
          <mxGeometry relative="1" as="geometry" />
        </mxCell>
        <mxCell id="5HoQ82C4X57VyinW_T0t-36" value="" style="edgeStyle=orthogonalEdgeStyle;rounded=0;orthogonalLoop=1;jettySize=auto;html=1;" edge="1" parent="1" source="5HoQ82C4X57VyinW_T0t-15" target="5HoQ82C4X57VyinW_T0t-16">
          <mxGeometry relative="1" as="geometry" />
        </mxCell>
        <mxCell id="5HoQ82C4X57VyinW_T0t-15" value="customer-details" style="rounded=1;whiteSpace=wrap;html=1;" vertex="1" parent="1">
          <mxGeometry x="360" y="28.5" width="120" height="60" as="geometry" />
        </mxCell>
        <mxCell id="5HoQ82C4X57VyinW_T0t-16" value="account-details" style="rounded=1;whiteSpace=wrap;html=1;" vertex="1" parent="1">
          <mxGeometry x="580" y="30" width="120" height="57" as="geometry" />
        </mxCell>
        <mxCell id="5HoQ82C4X57VyinW_T0t-22" value="" style="edgeStyle=orthogonalEdgeStyle;rounded=0;orthogonalLoop=1;jettySize=auto;html=1;" edge="1" parent="1" source="5HoQ82C4X57VyinW_T0t-20" target="5HoQ82C4X57VyinW_T0t-8">
          <mxGeometry relative="1" as="geometry" />
        </mxCell>
        <mxCell id="5HoQ82C4X57VyinW_T0t-20" value="" style="image;html=1;image=img/lib/clip_art/computers/Database_128x128.png" vertex="1" parent="1">
          <mxGeometry x="190" y="160" width="80" height="80" as="geometry" />
        </mxCell>
        <mxCell id="5HoQ82C4X57VyinW_T0t-24" value="" style="edgeStyle=orthogonalEdgeStyle;rounded=0;orthogonalLoop=1;jettySize=auto;html=1;" edge="1" parent="1" source="5HoQ82C4X57VyinW_T0t-23" target="5HoQ82C4X57VyinW_T0t-15">
          <mxGeometry relative="1" as="geometry" />
        </mxCell>
        <mxCell id="5HoQ82C4X57VyinW_T0t-23" value="" style="image;aspect=fixed;perimeter=ellipsePerimeter;html=1;align=center;shadow=0;dashed=0;spacingTop=3;image=img/lib/active_directory/database.svg;" vertex="1" parent="1">
          <mxGeometry x="380.47" y="181.5" width="79.05" height="58.5" as="geometry" />
        </mxCell>
        <mxCell id="5HoQ82C4X57VyinW_T0t-27" value="" style="edgeStyle=orthogonalEdgeStyle;rounded=0;orthogonalLoop=1;jettySize=auto;html=1;" edge="1" parent="1" source="5HoQ82C4X57VyinW_T0t-26" target="5HoQ82C4X57VyinW_T0t-16">
          <mxGeometry relative="1" as="geometry" />
        </mxCell>
        <mxCell id="5HoQ82C4X57VyinW_T0t-26" value="" style="image;html=1;image=img/lib/clip_art/computers/Database_128x128.png" vertex="1" parent="1">
          <mxGeometry x="600" y="147" width="80" height="80" as="geometry" />
        </mxCell>
        <mxCell id="5HoQ82C4X57VyinW_T0t-28" value="Customer Schema" style="text;html=1;align=center;verticalAlign=middle;resizable=0;points=[];autosize=1;strokeColor=#6c8ebf;fillColor=#dae8fc;" vertex="1" parent="1">
          <mxGeometry x="180" y="248" width="120" height="30" as="geometry" />
        </mxCell>
        <mxCell id="5HoQ82C4X57VyinW_T0t-29" value="Address Schema" style="text;html=1;align=center;verticalAlign=middle;resizable=0;points=[];autosize=1;strokeColor=#6c8ebf;fillColor=#dae8fc;" vertex="1" parent="1">
          <mxGeometry x="365" y="248" width="110" height="30" as="geometry" />
        </mxCell>
        <mxCell id="5HoQ82C4X57VyinW_T0t-30" value="Account Schema" style="text;html=1;align=center;verticalAlign=middle;resizable=0;points=[];autosize=1;strokeColor=#6c8ebf;fillColor=#dae8fc;" vertex="1" parent="1">
          <mxGeometry x="605" y="248" width="110" height="30" as="geometry" />
        </mxCell>
        <mxCell id="5HoQ82C4X57VyinW_T0t-31" value="Config Server" style="shape=process;whiteSpace=wrap;html=1;backgroundOutline=1;" vertex="1" parent="1">
          <mxGeometry x="20" y="-269" width="120" height="60" as="geometry" />
        </mxCell>
        <mxCell id="5HoQ82C4X57VyinW_T0t-32" style="edgeStyle=orthogonalEdgeStyle;rounded=0;orthogonalLoop=1;jettySize=auto;html=1;entryX=0.5;entryY=1;entryDx=0;entryDy=0;" edge="1" parent="1" source="5HoQ82C4X57VyinW_T0t-33" target="5HoQ82C4X57VyinW_T0t-31">
          <mxGeometry relative="1" as="geometry" />
        </mxCell>
        <mxCell id="5HoQ82C4X57VyinW_T0t-33" value="" style="shape=image;verticalLabelPosition=bottom;labelBackgroundColor=default;verticalAlign=top;aspect=fixed;imageAspect=0;image=data:image/png,iVBORw0KGgoAAAANSUhEUgAAAhIAAAHCCAYAAAC66yANAAAgAElEQVR4nOzdd3hUZfr/8c/MpPceAgkJISGhI0RqkCYqAQSkCEtRRAFBwe7iV3EFRFDEgsLaUUEWKaI0aVZqpPcQWiAkgUB6JnXm/P5Y9IcsgSTMzH3OzOd1XefaP3aXeTNkkjvnPOc5OgAKiIiIiGpBLx1ARERE2sVBgoiIiGqNgwQRERHVGgcJIiIiqjUOEkRERFRrHCSIiIio1jhIEBERUa1xkCAiIqJa4yBBREREteYkHUBE6mIwGBAREYH69esjKioKkZGRiIiIgKenJ1xcXODk5AQXFxc4OzvD2dkZTk5O0Ol00Ov1f/3nn0wmExRFgdlshqIoqKysREVFBSoqKlBeXo7KykqUlZUhPz8f586dQ1pa2l9HVlYWFIUb7xKpHQcJIgeh1+sRGBiIiIgIhIWF4Y477kBiYiJatWqF0NBQ6bybMpvNOHfuHHbv3o3t27fj8OHDyMzMRHp6OvLz8zlwEAnSgc/aINI0Nzc3eHh4wNvbG76+vnB2doZer0ejRo3Qu3dvtG3bFgEBAfDy8oKzs7N0rsWVlZWhsLAQWVlZ2Lp1K9avX48LFy5AURSUl5cjLy8PRUVFMBqNKC8vl84lsjscJIg0xtfXFwkJCQgPD4ezszPCwsIQFRWF+Ph4NGvWDD4+PtKJqqAoCrKzs3Hw4EGcOHECaWlpyMnJQUlJCVJTU3Ho0CGUlJRIZxJpHgcJIhVzc3NDTEwMWrZsiYSEBHh4eMDX1xd33nkn6tWrBxcXF+h0OulMzTCbzSgpKcHJkydx8OBBlJSU4PLly9izZw8OHDiAtLQ0VFZWSmcSaQoHCSKVcXFxwYQJEzBixAgYDAZ4eXnB19cXAQEBMBgM0nl2p6ysDLm5ucjPz//r8sc777yDZcuWwWw2S+cRqR4HCSJhLi4uGDx4MB566CEkJibC3d1dOomuys3NxebNm/H5559jw4YNXNRJdAMcJIhsxGAwICQkBEFBQfDz80PPnj3x+OOPIygoSDqNqun8+fN47733sH37duTl5SE7OxtXrlzhgEEOjYMEkRU5Ozujfv36aNu2LUJDQ9G1a1d06tSJw4MdOHfuHH755Rfs3LkTWVlZSE5ORmZmJi+HkMPhIEFkBS1atEBSUhJiY2MRGRmJtm3bwtvbWzqLrCQ7OxvJycm4cOECDh8+jNWrV+Ps2bPSWUQ2wUGCyELq1q2LoUOHYtCgQQgODkZYWBg8PT2ls8iGFEVBQUEBMjMzcenSJXz++ef47rvvUFBQIJ1GZDUcJIhu07BhwzBjxgxER0dLp5AKKYqCvXv34umnn8bvv/8unUNkcRwkiGrAzc0N0dHRqFOnDh566CEMGTIEbm5u0lmkETk5OX+dpcjOzsaZM2e4bwVpHgcJolvQ6/WIiIjAnXfeiSZNmmDcuHGoW7eudBZpmNlsRkpKCj755BOkpqYiOTkZ2dnZvPuDNImDBNFNdO3aFQ8++CCio6ORkJCAgIAA6SSyMxkZGfjjjz9w/vx5vP/++0hNTZVOIqoRDhJE1/Hy8sL999+Phx9+GHFxcYiIiOA21GR1ZrMZqampOHHiBObNm4dffvkFFRUV0llEt8RBgugqvV6Phx56CJ9//rl0ChFKS0vRtWtXJCcn85IHqRoHCXJYOp0O/v7+iImJwbBhwzBhwgS4uLhIZxH9zeXLl/H+++9j9erVOH36NG8lJdXhIEEOKSYmBomJiejcuTOGDRvG51uQ6uXl5WHhwoXYtWsXfv75Z1y8eFE6iQgABwlyIDqdDg0bNsTIkSORmJiIjh078tZN0pyCggL8/PPP2LZtG7766isOFCSOgwQ5BH9/f7zxxhvo0qULoqKiOECQ5hUVFeHUqVNYs2YNZsyYgdLSUukkclAcJMiu+fj4YO7cuRgzZox0CpFVPfnkk/j4449RXl4unUIOhoME2R1XV1dERUVh2LBhmDx5Mvz8/KSTiGziwoULmDNnDr7//nucP3+eu2aSTXCQILvSs2dPtGvXDg8//DAaNmwonUMkIjk5Gd988w127NiB5ORk6RyycxwkSPN0Oh2aN2+OoUOHYtiwYYiKipJOIhKnKAoOHDiAFStWYNGiRXysOVkNBwnSNG9vb0yZMgWDBw9G/fr1uQ8E0XWMRiPOnj2L+fPn4+OPP+ZumWRxHCRIsx588EEsXLiQd2AQVdOVK1dw//33Y/v27dIpZEf00gFENeHr64s777wTO3bswH/+8x8OEUQ1EBgYiN9//x3r169HixYt4OHhIZ1EdoBnJEgTdDodunXrhgEDBmDEiBG8E4PoNmVkZGDhwoX45ptvcPToUT7Pg2qNgwSpXuPGjTF27Fj06dMHMTEx0jlEdmXbtm3YvHkzFixYwF0yqVY4SJBqubq64pFHHsGECRMQHx8PJycn6SQiu1RSUoI9e/bgrbfewtq1a2EymaSTSEM4SJAqhYSEYOXKlejUqZN0CpHDMJvNWLp0KcaMGYOSkhLpHNIIDhKkGjqdDpGRkejRowc+/fRT6Rwih2U0GvGPf/wDycnJyMzMlM4hleMgQarg7e2Nzp074+WXX0a7du2g1/OGIiJJ5eXlWL9+Pd59913s3LmTDwWjKnGQIHGBgYF46623cPfddyMiIkI6h4iuceLECWzYsAEvvvgiL3fQDXGQIFHDhg3DlClT0KRJExgMBukcIrqBiooKHDp0CJMmTcK2bdukc0hlOEiQCGdnZ3z77bfo168fdDqddA4RVUNFRQUWLFiAyZMnS6eQihgA/Es6ghyHq6sr+vTpg4ULF6JHjx4cIog0xGAwoG3btrjzzjtx/vx5XLhwgRtZEQcJsp3o6Gg89thj+OCDD1C/fn3pHCKqBZ1Oh0aNGqF3794wGo04ffo0jEajdBYJ4qUNsjqdToeBAwfi0UcfRc+ePXlHBpGdqKysxNKlS/Hhhx9ix44d0jkkhGckyKo8PDzw9NNP47XXXkPLli05RBDZEb1ej6ZNm6Jz587Izc3FkSNHeKnDAXGQIKvx9fXFBx98gOeeew7e3t5cD0Fkh/R6PYKCgjBw4ECYzWZs374dZrNZOotsiJc2yOJcXV0RHx+P77//HpGRkdI5RGRD+/btw4gRI5CSksJndjgInmcmiwoPD8fYsWOxdetWDhFEDuiOO+7Axo0bMXjwYPj6+krnkA3w0gZZTJMmTTB9+nQ8/vjj8Pb2ls4hIiE+Pj7o3Lkz/Pz8cOzYMRQUFEgnkRXx0gZZRHR0NNasWYOYmBg4OztL5xCRChiNRhw7dgzdunVDYWGhdA5ZCQcJum39+/fHd999J51BRCpVUVGB1q1b4/Dhw9IpZAVcI0G1FhISgvfffx/ffvutdAoRqZizszO2bt2Kxx9/HH5+ftI5ZGFcI0E1ptPpEBsbi9mzZ2P48OFwdXWVTiIilXNzc0OnTp0QGBiIgwcP8lKHHeEgQTXWtm1bvPfee+jbty+cnJykc4hII9zc3NC6dWvExcVhx44dyM/Pl04iC+AaCaqRvn374r333kODBg2kU4hIoxRFQUpKCpKSknDmzBnpHLpNXCNB1TZlyhQsX76cQwQR3RadTof4+Hjs2bMHAwYMkM6h28RLG3RL/v7+mDZtGp577jm4ublJ5xCRnXB3d0f37t1RWVmJw4cPo7y8XDqJaoGDBN1USEgIpk+fjvHjx8Pd3V06h4jsjKenJ9q3bw8nJyckJyejoqJCOolqiGskqEre3t744osv8MADD/CBW0RkVeXl5Vi8eDEee+wxPqNDYzhI0A3FxcXhiy++QPv27TlEEJFNmM1mrFmzBo888giuXLkinUPVxEGC/kdMTAyWLFmChIQE6RQickA//vgjhg8fjpycHOkUqgaukaC/ODk5oUuXLpg/fz7atm0rnUNEDiomJgZxcXE4ePAgz0xoAAcJ+kvv3r3x5ptvok2bNtIpROTg4uPj0aBBA6SkpCAjI0M6h26CgwQBAMaPH4/XXnsNjRs3lk4hIgIAxMbGolWrVjh58iTOnj0rnUNV4CBBGDt2LKZPn46IiAjpFCKiv6lXrx7atm2Ls2fPIjU1VTqHboCDhIMbO3YsZs2ahcDAQOkUIqIbCg4ORkJCAg4fPswzEyrEQcJBOTs7Y/jw4XjjjTcQFBQknUNEdFNBQUFo3749Tpw4gbNnz0JReMOhWnCQcFCjRo3CrFmzUKdOHekUIqJqCQoKQtOmTXHmzBmcOnVKOoeu4iDhgMaMGYPZs2cjNDRUOoWIqEbCwsLQrl07HD16lE8OVQkOEg5m0qRJeO211xASEiKdQkRUK4GBgWjbti3OnDnDBZgqwJ0tHciAAQPw/vvvIzw8XDrlb86ePYv4+HiUlZXd8L93cnJCkyZNkJCQgNatW6N58+Zo2bIlfH19bVxKpH0mkwnnzp3D/v37ceDAAezbtw/79+/HuXPnqvz/NG/eHFu3boWPj48NS29t3759ePTRR7F3717pFIfGQcIBGAwG9OzZE++++y7i4uKkc/4mPz8fLVq0uOk3sao4OTnBw8MD3bp1w+jRoxEeHg5XV1cEBQXB398frq6uVigmUjez2Yzi4mJcvnwZeXl5qKysxO7duzF//nykpqaioqICZrO5xn/u888/jzfffNMKxbdny5YteOqpp3DkyBEuwBTCQcIBtGrVCvPnz0eHDh2kU/7H888/jzlz5ljszwsODkZiYiISEhIQEhKCZs2aISEhAU5OThZ7DSK1URQFV65cwU8//YTLly/j5MmT2L59O/bt24fy8nKLvIZOp8PSpUsxePBgi/x5lrRixQpMnjwZFy5ckE5xSBwk7Fx8fDz+/e9/o0uXLtIp/2PFihUYNWoUjEajVf58vV6Ppk2bIiEhAcHBwUhKSkL79u15poLsRnp6OtavX489e/YgOzsbP/30E/Ly8qz2epGRkfj555/RoEEDq71GbX3//fcYNWoUCgoKpFMcDgcJO+bn54ctW7agdevW0in/Iz8/Hw8++CA2btxok9ORzs7OCAsLQ0BAAJKSkvDss88iICDA6q9LZGkmkwk7duzA//3f/+Hy5cvIzMxEXl6ezT5H48aNw7x586z+WjWlKAo2btyI/v37o7S0VDrH4Sg87O/w8fFRNm/erKjV66+/rri4uIi+R+3bt1f1e0R0rdzcXOXFF18U/9zExMQoGzdulH47bshkMilffPGF+PdfRzt4+6cdCggIwNy5czFgwADodDrpnP9x5swZLFiwACkpKaId6enp+Oqrr7B8+XK4u7vD2dkZ3t7ecHZ2Fu0iAgBFUZCWloaDBw/itddew/Dhw/H777/DZDKJduXm5qJOnTpITExU3WdFp9OhRYsW8PX1xfbt2y22PoRuTXya4WG5w9PTU5k9e7ZSWloq/cvBDZlMJmXRokWKq6ur+Ht1/REWFqa8+uqrytq1a5WioiLpt4ocVGVlpXL48GHls88+Uzp06KDo9Xrxz8b1R0xMjLJ7927pt6pKubm5ylNPPaU4OzuLv1cOcogH8LDg8eKLLyqFhYXSn+MqXbp0SencubP4+3SzIzw8XHn44YeVzZs3K5WVldJvGTmQS5cuKS+88ILSsWNHxc3NTfyzcLPj//7v/5SysjLpt6xKWVlZyv333y/+PjnIIR7Aw0JH3759lby8POnP701t375dlb9hXX/o9XolIiJCSUxMVA4fPiz9tpGdy8vLU5588kmlWbNm4msgqnuEhoYqV65ckX7rbio9PV1p3ry5+HvlAId4AA8LHG3atFEKCgqkP7e31K1bN/H3qqaHwWBQRo0apRiNRum3j+zQRx99pPj7+4t/ndfm+OGHH6Tfvls6e/asEhwcLP5e2fkhHsDjNo+YmBglOTlZ+vN6S3l5eYpOpxN/v2p7REdHKwsXLlTS09Ol30rSOKPRqPzyyy/KvffeK/51fTtHWFiY9Ft5S2azWdm4caMSFhYm/n7Z68G7NjQuPDwcc+fORY8ePaRTbmnWrFn45ZdfpDNqLTc3F6tWrcLx48fh7OyMiIgIbm5FNWIymbBz504sWrQIY8aM0fwDp4qKitCvXz+EhYVJp1RJp9Ohfv368PHxwc6dO1FSUiKdZHc4SGiYj48Ppk2bhsGDB6t+C2hFUTB06FAUFxdLp9y21NRUbN68GRkZGahTpw7q1asnnUQakJOTg88++wyvvfYali9fXqvnXahRfn4+Bg0aJJ1xUwaDAQ0bNkR+fj727NljN++9moifFuFRu2P06NFKcXGx9JnDavn1118VLy8v8ffMkoezs7PSqFEj5T//+Q/v7qCbOnnypNKjRw/F19dX/OvW0kfDhg1VfafYtbKzs5VWrVqJv2f2dnCLbI3y8/NDbm6udEa1Pf300/jggw9QWVkpnWIVgwYNwtKlS6HX66VTSGXWrl2LPn36SGdYTUhICL777jt07NhROqXaPDw8eInDgvhdT4MaNmyIkydPSmdUm6IoOHLkiN0OEQCwfPlyNGrUCDt37rTaQ8hIO0wmE86ePYshQ4agX79+0jlWdfnyZXz66afSGTWybds2hIaGSmfYDQ4SGlO/fn28++678Pf3l06ptnPnzln1iYRqcerUKQwdOhTz5s3DpUuXpHNISGlpKVauXInhw4dj2bJl4ltaW5vZbMaVK1c09aCsJk2aYOrUqZr6PqpmXGypIZ6enpg4cSL+8Y9/aOpuga+//hrffvutQ+x7n5+fj507dyI1NRVdunSBp6endBLZUGVlJV566SW8/fbbOHr0qHSOzXh6eqJjx46qvnvjWk5OToiMjERaWhoOHTpkkyen2jOekdCQTp064YknnoCXl5d0So1kZmaisLBQOsNmioqKsGLFCvTo0QOHDh2SziEbyc/PR1JSEj744ANcuHBBOsemzp07hyNHjkhn1EhISAhmzJiBO++8UzpF89R9zyD9JSIiAgsXLkRQUJB0So0YjUYUFBRIZ9ic2WzG4cOH0a1bNyxevBj33nuvdFKtlJWVIScnB7m5uSgqKkJhYSEKCwtRUFCA7Oxs5ObmoqysDOXl5TAajTCbzX+tEdHpdHB3d4eLiwvc3Nzg6uoKNzc3+Pv7IygoCF5eXvD09ISnpye8vLwQGBiIgIAAuLm5Cf+ta+7kyZMYOnQo9uzZI50iIicnBxkZGdIZNRYREYG33noLSUlJKCoqks7RLA4SGuDu7o433nhDM6cNr3Xp0iWcPXtWOkPMlStXMGLECEyZMgWPPfYYvL29bd5gMplgNBpRUlKCoqIiFBcXo6KiAoqiwGQyITU1FTt37sSOHTtw9uxZlJeXo6KiAhUVFSLX9w0GA5ycnODs7AwXFxeEhoYiISEB7dq1Q0JCwl97phgMBri7u/81jHh4eMDFxQU6nc5mrRUVFdi8eTNeeukl7N+/32avqzZmsxlFRUWoqKhQ3aPFb6Vz58544oknMGfOHLteEG5NHCRUTqfTYdKkSRg+fLh0Sq1cunQJZ86ckc4QdfnyZUydOhUXL17EtGnTrL6+paysDHv27EFqaupfZwrS09ORlpaGM2fO4PTp08jNzVXtdWGTyQSTyYSysjIA//1t99ixY/j666//9r9zd3dHeHg4oqKiEBUVhcjISAQFBcFgMMDHxwetW7dGdHS0VW/J/eyzzzBnzhycOnXKaq+hFRkZGSgsLERAQIB0So29/vrryMzMxJdffimdokkcJFRu6NChePnll6Uzau3SpUtIS0uTzhBXXFyMt99+G3l5eXjnnXfg4eFhkT+3vLwc+/btw759+3DixAkUFxejtLQUe/fu/WuQUOvAcLtKSkqQmpr6P9tM63Q6+Pj4oE2bNn8NEnXq1EHTpk3RsmVLNGzY8LZ3glUUBbNmzcLrr79uF7u1WsLOnTtx/vx5TQ4Ser0eM2fORFpamqa38ZckvisWjxsfTZs2VXbu3KmYzWbJzeBuy/Lly8XfRzUder1e6dWrl1JRUVGr99NkMimnTp1SJk2apNx5553KHXfcoTRo0EDx8/NTnJycxP9+aj3c3NyUkJAQpVGjRkrr1q2Vdu3aKbNmzVLy8vJq/Pkym83KhAkTFE9PT/G/l5oOZ2dnZfPmzbX6ulYDk8mkLFu2TAkICBB/LzV4iAfwuMGh1+uVWbNmaXqIUBRFWbZsmfh7qbZDp9MpAwcOrPb25kVFRcrXX3+t3HXXXYperxfvt7fD3d1d6d+/v/Ljjz8qZWVlt/z3mDlzpuLq6irercZjw4YNt/stQ5TJZFKef/558fdRg4d4AI/rDoPBoIwePbrWv7WqhclkUr7++mvx91Otx/jx45WcnJy/vWdGo1E5ffq0kpycrCxcuFCJi4sT73S0o3HjxsqyZcuU3bt3K+fOnVPKy8sVRVGUsrIy5a233hLvU/Oxfv16iW81FpWenq5069ZN0el04u+nVg6ukVChOnXqYPz48ap/ouetlJWVISUlRTpDtT799FO4urpi5syZKCgowNatW3H48GGsW7cO+/bt4wpyIceOHcPgwYPh4eGBDh064L777kODBg2QkZGBadOmSeepWk5ODsxms6afOVOvXj1MmDABu3fvdqj9b26Htn9S2anZs2ejbdu20hm3rbS0FMePH5fOUK3KykrMmzcPeXl5yMnJwdatWzX1IDZ7ZzQasWXLFmzZsgWBgYEoKSnhc1Ru4dy5czCZTJoeJID/PoTv+PHjeOWVV6RTNIGDhMqMHj0aw4YNk86wiPLyct6xcQtmsxlfffWV3d5ZYS+uXLkinaAJmZmZMJvN0hkW8fTTT2P58uU4cOCAdIrqaXtstDPOzs54++23NT/N/6miokKTu93ZGocIsheXLl2ym0HC09MTq1atgsFgkE5RPfv4iWUHvL298f3338PPz086xWKu3S6ZiOxfQUGB3QwSABAWFobZs2drbrdOW+MgoQJ6vR79+/dH69atbbq9ry3Y0zcVIrq5kpISuzrD5urqit69eyMxMdHuvjdbEgcJFWjWrBkmTpyI0NBQ6RSLs6dvKkR0c+Xl5dIJFhcfH48nn3wS9erVk05RLQ4Swtzc3HD//fcjISFBOsUqOMUTOQ57PQN53333oU2bNvx+VgUOEsLq1q2L6dOnc0EPEWme2Wy2y7OQ7u7uWL58Ofz9/aVTVImDhCAXFxcsXbpUOsNqdDqd5jfVIqLqs/Vj3G3JyckJs2bNstu/3+3gICHoscces9tLGgBgMBjg6+srnUFENmLPgwTw3+/ZvXr1ks5QHQ4SQpo3b45XX31VOsOqnJ2dUbduXekMIrIRDw8P6QSrmzVrFkJCQqQzVIWDhACDwYDnnnsOgYGB0ilW5eLiggYNGkhnEJGN+Pr62s2GelVp1KgRnn32WekMVbHvf3GVGjx4MO655x67/8C5uroiLi5OOoOIbCQkJMQhvq8lJSWhQ4cO0imqYd//4ioUHByMvn37ok6dOtIpVufq6orY2FjpDCKykbp16zrEHWhNmzbF4MGD4eXlJZ2iChwkbEiv16Nz587o06ePdIpN6HQ6u//thIj+v/DwcIf4zOt0OgwaNAgtWrSQTlEF+/8XV5HAwEA89dRT8PHxkU4hIrI4f39/hxgkACAiIgITJ06Eu7u7dIo4x/gXV4khQ4agc+fO0hk25eHhwcGJiOzSwIED0ahRI+kMcRwkbOidd96RTrC5kJAQREZGSmcQkZXpdDq73kPiRlxdXbFjxw7pDHEcJGxAr9fjo48+cshH0YaEhCAqKko6g4isLD4+HsHBwdIZNufu7o6JEydKZ4jiIGEDLVu2xNChQ6UzRAQFBSEiIkI6g4isrF27dggPD5fOEPHUU085xJ14VeEgYQMTJkyAp6endIYIDw8PbpNN5AAiIiIc9rNer149jBs3TjpDDAcJKxs0aBCSkpIc4t7qqvj7+3NlM5Ed0+v18PDwcNiH9Lm7u6Nfv35o3bq1dIoIDhJW5O7ujrvuusvhnzfRv39/NG7cWDqDiKzEx8cHISEhDrfY8lqtWrXCPffc45DvAQcJK2rXrh369+8vnSEuNjbWIRdhETmKunXrOvwutn9uUtW0aVPpFJvjIGElHh4e6NWrFxcaXlW/fn2HvrxDZM8iIyO5yyOANm3aoGvXrg53iYeDhJVERkZi7Nix0hmq0b9/f7i5uUlnEJGF6XQ6+Pj4OOxCy+tNnjzZIR6nfi0OElYyZcoU+Pn5SWeoRrdu3eDi4iKdQUQW5uPjg759+0pnqEZMTIzD7SuhA6BIR9gbnU4Hs9ksnaE6nTt3xtatW6UziMiCIiIisG/fPgQGBkqnqIbJZIKzszMUxTF+vPKMhIXpdDqsXLlSOkOVVq9e7TAP9CFyFA0bNuQQcR2DwYAXXnhBOsNm+F3dwuLj49G9e3fpDFXy8/PDHXfcIZ1BRBb0+OOPSyeo0oQJExASEiKdYRMcJCzsiSeecLiFNjXx6quvSicQkYV4eXlh4MCB0hmqFBQUhNGjR0tn2AQHCQtq06YNunTp4nC3/tREu3bt0K5dO+kMIrKAGTNm8LbuKnh4eKB79+4OcVaCg4QF9e7dm8+mv4Xg4GBMnjyZayWINM7LywujRo2SzlC1Tp064YEHHpDOsDp+N7eQunXrokWLFg75qPCa0Ol0SEhIQPfu3R1yK1kie2AwGDBt2jR4e3tLp6iap6cnmjRpYvfvEwcJC9Dr9ejatSv69esnnaIJsbGxGDduHMLCwqRTiKgW6tevj8TERF7GrYZhw4bZ/cO8OEhYgLe3N5KSkvihqoEePXo4/N78RFplNBqxc+dOVFRUSKeoXlBQELp27WrXG/JxkLAAf39/DBgwQDpDM0wmEz7//HPs3btXOoWIauHixYuYNm0aNmzYIJ2iCU8++aRd383HQcICHnnkEbv+IrEks9mMb7/9Fi+99BIKCwulc4ioli5fvoy+ffti165d0imqFxgYiHvuuUc6w2q4RfZt8vT0RFFRkXSGZqxfvx5JSUnSGaObSNIAACAASURBVERkIXXq1MGGDRvQvHlzLqC+ibS0NMTExKCyslI6xeJ4RuI2PfTQQ9IJmrFixQoMHz5cOoOILOjixYsYN24cjhw5Ip2iapGRkejUqZN0hlUYAPxLOkLLvvzySwQHB0tnqN7GjRvx2GOP4fLly9IpRGRhWVlZyMzMRIcOHfg48ZuoV68evv76a+kMi+MZidvQr18/REZGSmeo3qlTpzBr1ixcunRJOoWIrKCyshJr167FJ598gvLycukc1WrevDlatGghnWFxHCRuw9ixY7nI8hZycnIwffp0/Pzzzw7zSF0iR1RWVobXX38d58+fl05RrYCAALvcDZSDRC01btyYGyrdQllZGT799FN8+eWX0ilEZAOKoiAmJgbHjx+XTlElFxcXNG3aFH5+ftIpFsVBopZ69uyJmJgY6QxV++GHH/Cvf3EJDpGjGTNmDDIzM6UzVKlly5bo2bOndIZFcZCoBX9/f9xxxx12v3/67Th9+jSmTJmCkpIS6RQisrG9e/fiww8/5HqJGwgLC0NCQgLc3d2lUyyGg0Qt3HHHHbj33nulM1TLaDRixIgROHXqlHQKEQkoLS3FZ599hlWrVkmnqNJdd92FqKgo6QyL4SBRQ3q9HhEREVwfcRNjxozhbndEDi4rKwvvv/8+UlJSpFNUp3379oiIiJDOsBgOEjXk6+uL+++/XzpDlcxmM5YtW4bff/8dZrNZOoeIhG3btg0rVqzgw71uoH379nB2dpbOsAhukV1DDRs2REpKCgwGg3SK6pw8eRITJkzApk2bpFOISCXc3NywadMmJCYmSqeoSnl5OerWrYsrV65Ip9w2npGooYEDB3KIuAGj0YhPP/0UP/30k3QKEalIaWkpnn32WS68vI6LiwvatGkjnWER3CK7hhYvXmx39wBbwqlTpzBhwgQYjUbpFCJSmYyMDFRWVqJHjx7SKaoSEhKCRYsWSWfcNl7aqIG6deviwoUL0hmqFBgYiJycHOkMIlKpiIgI7N69GyEhIdIpqmIPT0zlpY0amDhxonSCKs2dO5dDBBHdVEZGBl544QVe4rjOAw88IJ1w23hGopp0Oh0uXrzIJ31eZ+/evejRowfy8vKkU4hI5WJjY7FgwQJe4rjGwYMH0apVK00/i4hnJKqpY8eOdrUTmSWUlZVh7ty5KCgokE4hIg1ITU3F4sWLcfnyZekU1QgICEB4eLh0xm3hIFFNDz74INzc3KQzVGXt2rX45ZdfuGcEEVXbqlWrcOTIEekM1fD19UVSUpJ0xm3hIFENfz6xzcnJSTpFNcrLy/H7779z8SkR1Uhubi6WLl2K0tJS6RRV8Pb2xt133y2dcVs4SFRDXFwcAgMDpTNUw2w2Y/ny5Zg3b550ChFp0IIFC3D27FnpDNXw9vbW9M8YDhLV0Lt3b8TFxUlnqEZ+fj5WrVoFk8kknUJEGvXPf/5TOkE12rRpg/vuu086o9Y4SNyCu7s7wsPDuT7iGidOnMAPP/wgnUFEGrZ69WqelbgqICAADRo00Ozlcw4St9CwYUO0bt1aOkNVJkyYgLKyMukMItIws9mMMWPGSGeogl6vR4MGDeDr6yudUiscJG4hIiICTZo0kc5QjUOHDmHv3r3SGURkB44fP47U1FTpDFXo1q0boqOjpTNqhYPETej1egQHB2t2SrQ0RVHwyCOPSGcQkZ24cuUKPv30U+kMVWjQoIFmF1xykLgJT09PdOzYUTpDNbZv347jx49LZxCRnSgrK0NycjLS09OlU1ShefPmcHZ2ls6oMQ4SN+Hv748hQ4ZIZ6iCyWTCBx98wKd7EpFF7du3Dxs3bpTOUIVhw4ZpcmE/B4mb8PT0hL+/v3SGKhw/fhzHjx/nLpZEZFH5+fnYv38/t9oH0LRpU7i6ukpn1BgHiZvo1auXdIJqfPPNNzhw4IB0BhHZoR9//BEnT56UzhDn4uKCBg0aSGfUGAeJmxg4cKB0gipkZWXh5MmTmn46HRGpV2pqKtLS0vg9BsDIkSOlE2qMg8RN3HnnndIJqrB3715s2rRJOoOI7NiSJUtQUlIinSFu9OjR0gk1xkGiCmFhYZpcPWtp5eXlSElJQW5urnQKEdmxNWvWoKioSDpDnJeXF3x8fKQzaoSDRBVefvll6QRVuHz5MubPny+dQUR2rqSkBDt27JDOUIV+/fpJJ9QIB4kqDB06VDpBFYxGIxdBEZFNTJ06VTpBFThI2AFXV1fodDrpDFWYM2eOdAIROYiDBw9yrxoAjRs3hl6vnR/P2im1oZYtW2r2KWyWVFlZiZUrV0pnEJEDWbZsmXSCOC8vL009moGDxA107twZLi4u0hniTp8+jezsbOkMInIgX3zxhXSCOA8PD03dNchB4gY6derEQQLApEmTpBOIyMGcO3cO+fn50hmi/P39MWjQIOmMauMgcQOenp5cIwHgjz/+kE4gIgdTXFyMlJQU6QxRBoNBU49n4CBxHV9fX00+NMXSdu/ejYqKCukMInIwubm5WLJkiXSGOBcXF838LOIgcZ177rkHMTEx0hnivv/+e5SWlkpnEJGDqaiowPnz5x1+u+yIiAg0btxYOqNaOEhcp3HjxggJCZHOEKUoCg4ePIjKykrpFCJyQFeuXEF6erp0hqiwsDDN/FLLQeI6rq6uMBgM0hmiysvLUVRU5PC/ERCRjNTUVOzevVs6Q1RAQADq1asnnVEtHCSu4eXlhYCAAIdfaLl69WocP35cOoOIHBTPSPx3jYSXl5cmNqZSf6EN+fv7IywsTDpD3N69e5GRkSGdQUQOqrS0FDk5OTCZTNIpotzd3TWxOSIHiWuEhoaiQYMG0hmiKioquMiSiMRlZ2ejuLhYOkNUkyZNNLFmj4PENUJDQxEdHS2dIery5cs4f/68dAYRObgDBw4gMzNTOkNUp06dEBkZKZ1xSxwkruHm5gYvLy/pDFEZGRl82icRidu9ezcuXLggnSEqKCgIHh4e0hm3xEHiGo6+yBIAMjMzkZqaKp1BRA6utLTU4W9B1+l0mvi5xEHiKldXV8TGxkpniCstLXX465JEpA5Go9Hhb0MPDQ1V/Z0b6q6zIS8vL9x1113SGaLMZjOMRqN0BhERAGDfvn0Ov1V/kyZNVH/nBgeJq9zc3NCsWTPpDFFGoxHJycnSGUREAID9+/c7/OWNxo0bc5DQCicnJ/j5+UlniCooKMD69eulM4iIAACnT592+EEiNjaWg4RW6HQ6TayOtaby8nKHXyVNROpx/vx5mM1m6QxR0dHRqn9sAweJq4KCglS/oMXaFEVx+OmfiNQjPz/f4ddIuLm5qf7ODcf+yXmNOnXqSCeIKyoqcvgtaYlIXcrKyqQT6BY4SFwVEREhnSAuLS1NOoGI6G/Ky8ulE8R5enpKJ9wUB4mrWrZsKZ0g7ty5c9IJRER/wy37gS5dukgn3BQHiasSEhKkE8SdOXNGOoGI6G+2b98unSCuf//+0gk3xUHiqkaNGkkniDt+/Lh0AhHR3+zcuVM6QVxiYqJ0wk1xkLjK29tbOkEcz0gQkdocOHBAOkGc2h8lrgPg2BuZX+Xo+7kD/x2mioqKpDOIiP5iMBgc/rZ0RVFUvT0BB4mrOEgAer2e7wMRqQ6/L6n76dTqHXFsyNXVVTpBFfhhJSJSJzXvbslBAlxoSURE6hYUFCSdUCUOEgAaNmwonUBERFQlDhIqFxMTI51ARERUJQ4SKhcdHS2dQEREVKXAwEDphCpxkADQoEED6QQiIqIq8YyEynl4eEgnEBERVSk4OFg6oUocJAC4uLhIJxAREVXJx8dHOqFKHCTAQYKIiNSNg4TKcUMqIiJSMw4SKsczEkREpGYcJFSOgwQREamZmp9QzUECgJOTk3QCERFRldR8CZ6DBKDqx7MSERE5OztLJ1SJP0HBQYKIiNSNg4TKqfk570RERGq+BM9BAup+zrst8cwMEakNF8P/F89IqBzPSPyXmrdgJSLH1Lx5c+kEVVDzL3rqLbMhs9ksnaAKfJw6EalNYmKidIIqmEwm6YQqcZAAoCiKdIIqxMfHSycQEf1N9+7dpRNUobKyUjqhShwkoO5Jz5bi4uKkE4iI/qZJkybSCarAQULleEbivxo0aCCdQET0N25ubtIJqlBRUSGdUCUOElD3P5AtcZAgIjUxGAwcJK4qKSmRTqgSBwlwkPhTQECAqlcGE5FjCQoKUvX+CbZUVFQknVAl/tQAB4k/6XQ6fmiJSDUiIyO5z89VxcXF0glV4iABDhJ/cnFxQXh4uHQGEREAoFmzZqreiMmWOEioXFlZmXSCKvj6+uKBBx6QziAiAgB06NCBg8RV+fn50glV4iABoLS0VDpBFTw8PJCQkCCdQUQEAKhfvz4vbVx15coV6YQqcZCAulfD2tKfayS4ZTgRSXNxceEQcQ0OEiqn5n8gW/Pz80NoaKh0BhE5uFatWiEsLEw6QzVyc3OlE6rEQQLA+fPnpRNUo169etzhkojEde7cGVFRUdIZqsFBQuWOHz8unaAadevWRaNGjaQziMiB6XQ6+Pn5wdXVVTpFNS5duiSdUCUOEuAgcS0fHx8EBQVJZxCRA/Py8kJISAjXSFwjOztbOqFKHCQApKSkSCeoSv369eHn5yedQUQOKiIigg/rug4HCZXLycmRTlCV/v3780NMRGIaNmyINm3aSGeoiprvLuQgAT7983qhoaHw9PSUziAiB6TT6eDu7g53d3fpFNVQFEXVP6c4SND/0Ol0aNmyJZ+7QUQ2xx12tYeDxFV83sbfDRw4kL8REJHN+fr6omfPntIZqmI0GqUTboqDxFXp6enSCaqSkJDAPe6JyObq1asHf39/6QxVOXDggHTCTXGQuGr//v3SCari5OSEwYMHS2cQkYN58sknuU3/ddatWyedcFMcJK7avXu3dILqvPHGG9IJRORghg4dKp2gOt9//710wk1xkLjq1KlT0gmq4+/vj4iICOkMInIQvXv3lk5QpYyMDOmEm+IgcdXFixelE1TpySeflE4gIgeg0+nw8ssvS2dQLXCQuOrixYuqvk9XSr9+/XgbKBFZXd26dREfHy+doTqVlZXSCbfEQeIqo9GIsrIy6QzVCQ0NxfDhw6UziMjOTZkyBV5eXtIZqpOZmQmTySSdcVMcJK4ym80oLi6WzlAdHx8f3HfffVxFTURW4+rqisaNG/Ps5w2cOnWKg4RWVFRUIDMzUzpDdXQ6HeLi4tCqVSvpFCKyU4MHD0azZs2kM1Tp5MmTqr+8wUHiquLiYmzbtk06Q5WaN2+Oe++9l4/0JSKL8/DwQLt27RAcHCydokpHjx7lIKEVRqMRycnJ0hmq5OTkhLvvvhtRUVHSKURkZ+644w706tWLl0+rwEsbGmIymVBQUCCdoVqJiYlo3LgxP+xEZDEuLi7o2LEjGjZsKJ2iWqWlpaq/o5CDBFWLq6srxo0bBw8PD+kUIrITwcHB3KvGDnCQuEZ2djbOnz8vnaFaffr0QWxsrHQGEdmJ9u3bc/fcm9izZw8uXLggnXFLHCSukZWVhZMnT0pnqNqHH37IRZdEdNv8/PzwzTffSGeo2q5duzTxZGoOEtfgGYlb69ChA/r06SOdQUQa9/zzz8PFxUU6Q9UuXryIoqIi6Yxb4iBxjfz8fD5z4xZ0Oh1eeeUVfgMgoloLCgrC6NGjpTNUzWw2o7S0VPV3bAAcJP7GZDKhtLQUZrNZOkXV4uPjMWnSJOkMItKojz/+GHXq1JHOULWCggJkZ2dLZ1QLB4nr5OTkwGg0SmeomqenJ3r16oWwsDDpFCLSmMTERDRp0oS3kt9CdnY2zp07J51RLRwkrrN582acOnVKOkP17rrrLkyYMAFubm7SKUSkEcHBwRg3bhzi4uKkU1Tv/PnzOHr0qHRGtXCQuM6xY8c0czpJkpOTEwYOHMjH/hJRtej1enTs2BFJSUnSKZqQm5urmTV7HCSuYzKZuEaimuLj4/Hcc8/B3d1dOoWIVC44OBgvv/wyAgICpFM0wWw2a+ZnEQeJGzh8+LDqH5KiBjqdDsOHD0fjxo2lU4hI5YYMGYKEhATpDE0oLCzEpk2bpDOqjYPEDfz6668oLy+XztCMzZs3IzQ0VDqDiFQqPj4e77zzjnSGZuTn52P16tXSGdXGQeIGkpOTOUjUgL+/P9544w24urpKpxCRyoSEhGDRokXcEbcGysrKkJubK51RbRwkbiArK0sz16bUYuDAgRg5cqR0BhGpiMFgwKRJk9CiRQvpFE1JT09HWVmZdEa1cZCowrFjx6QTNMXb2xuTJ0/GXXfdJZ1CRCrx0EMPYdy4cXB2dpZO0ZRff/1VOqFGOEhUYcKECdIJmqLT6dCsWTMMHjwYPj4+0jlEJCw+Ph4PPfQQgoKCpFM056OPPpJOqBEOElU4dOgQFEWRztCcJ554AiNGjOD1UCIH5uHhgREjRvAMZS2YTCZkZGRIZ9QIB4kqKIqiice3qtGMGTPQs2dP6QwiEvLwww9jypQp0hmatGfPHumEGuMgcRNr1qyRTtAkf39/vPvuu2jTpo10ChHZ2IgRIzB9+nTo9fzxUhvvv/++dEKN6QDw/H0VunTpgl9++UU6Q7N27NiB3r17a+o2JiKqvYSEBKxYsQL169eXTtEkRVEQFRWlmYd1/Ykj401o7R9TbTp06ICPP/6YT/kjcgBubm6YPXs2h4jbkJWVhYKCAumMGuMgcRPFxcVITk6WztC0Pn36YObMmfD29pZOISIrCQ0NxWeffYZu3bpJp2jaxo0bNbV/xJ84SNxEbm4uFi1aJJ2haW5ubnj22WcxYcIE3ktOZIe8vb0xZcoUDBs2jGcfb9N3332H0tJS6Ywa4yBxE5WVlZrbYUyNnJ2d8cwzz2D8+PHSKURkQTqdDjNnzsT48eM5RNymvLw85OTkaHLbAQ4SN6EoCrKysnD27FnpFM0LCQnBtGnT8Oijj0qnEJGFvPfee3jsscf4nB0L+O2335CWliadUSscJG7h+PHj2LFjh3SGXfDz88Obb76JgQMHSqcQ0W2aOnUqxo0bxyHCQg4fPoysrCzpjFpxkg5Qu9zcXKSnp8NsNvO+aAvw9/fH7NmzAfx3nw5eNiLSFi8vL0ycOBFPPfUUXFxcpHPsQklJCTIyMjT71Gn+ZKyGAwcOaHZSVKOGDRti2rRpGDx4MJycOMsSaYWHhwcmT56MZ599Fv7+/tI5diM1NRW7d++Wzqg1DhLV8NNPP+H06dPSGXalSZMmeP311/HYY49xkRaRBuj1esycORPPP/88goODpXPsyqlTpzS5NfafOEhUw7WXN8hy6tevjxkzZuCdd96RTiGiW1i2bBnGjx8PX19f6RS7UlZWhmPHjqGyslI6pdY4SFSDoij47bffNHv9Ss0CAgLw+OOPY86cOVyDQqRC3t7e2LBhAwYMGMCFlVaQl5eH7777TjrjtvBZG9VkMBhw6dIlBAQESKfYJbPZjA8//BCvvfYarly5Ip1D5PD0ej3Cw8MxY8YMjBgxgpcgrSQ1NRXx8fGaPuPNXwGryWQyYd++fdIZdkuv12PChAmYPXs2YmNjpXOIHN7dd9+Njz76iEOElW3atEnTQwQAGAD8SzpCK9LT0/HQQw9JZ9gtvV6P1q1bo2nTpsjPz0dKSop0EpFDevzxxzF9+nS0a9eOQ4SVDRgwAIWFhdIZt4WXNmrAxcUFOTk58PT0lE6xe+np6Zg/fz5mz56t+WmdSCtcXV3x5ptvYuTIkby90wbS0tIQFRUlnXHbeEaiBkwmE1q3bo0mTZpIp9g9Hx8fdOvWDf7+/ti+fTs3riKyssjISCxcuBAjR46Eu7u7dI5DePnll/HHH39IZ9w2npGoodjYWKSkpPB0nw2tX78eU6dOxZ49ezT5QBsiNTMYDOjevTs++OADNGrUSDrHYZjNZoSGhuLy5cvSKbeNiy1rqKioiNfubaxXr15Yt24dRo4cybtmiCyofv36GDt2LFatWsUhwsZ+/fVXTT4y/EZ4aaOGKisr/zrtTrbj6emJe++9F+Hh4cjKysKFCxekk4g0S6/Xo1evXpg6dSomTZrE/SEEvPjiizhw4IB0hkXwjEQNlZWV4fDhwygpKZFOcTgeHh4YMWIElixZglGjRvE5HUS14OHhgeeeew6ffPIJevfuzc+RgDNnzuDs2bN2c6mWayRqITIyEh988AH69OkjneLQTpw4gbi4OOkMIs1wdnZGZmYmAgMDpVMc2oIFCzBlyhTk5+dLp1gEz0jUQlpaGvbs2QOTySSd4tAaNWqEK1eu4JFHHkFISIh0DpEq/blD5auvvorCwkIOEcLKysqQkpJiN0MEwDUStebu7o7OnTvDz89POsWhubu7o3fv3oiKikJJSQnS0tI44BFd5ePjgwceeAD/+te/MHr0aF7GUIH9+/fj3XffxaVLl6RTLIZfVbW0detWnD592i42E9E6JycnPPjgg0hMTMSmTZvw/vvvcztzcnj9+vXD0KFDce+993JzKZUwmUw4cOAAjhw5Ip1iUTwjUUvl5eWIiIhAYmIiDAaDdA7hv799tWrVCt27d0eDBg1w4MABFBUVSWcR2VR8fDzef/99PPHEE+jQoQM3l1KRvLw8zJkzB8eOHZNOsSgutrxNV65c4d4GKmU0GjFy5EisWrWK22yT3XN1dcXkyZMxa9YsbpinUmfOnEF0dLR0hsVxseVt2rBhg3QCVcHDwwMrVqzA0aNH0b17d0RERPDsEdkVJycnxMTEYNSoUThz5gxmz57NIULFPv30U+kEq+AZidvUuHFjHD16VDqDbqGyshK//fYblixZgo0bN+L8+fN2cw83OR69Xo/4+Hj06NEDjz76KJo3b84BQuUKCwtRr149zT/p80Y4SFjA5s2b0aNHD+kMqgaj0YjffvsNR44cwXvvvYfz589LJxHVSKNGjTBp0iS0bNkSbdu2hYuLi3QSVcO8efMwadIk6Qyr4CBhAR06dMD27dulM6gGKioqkJKSgt9++w1z587FqVOnpJOIbqpdu3Z4+umn0apVK8TGxkKv55VpLYmOjsaZM2ekM6yCg4QF1KlTBxs2bECLFi2kU6olKysL27Ztw4YNG7B9+3acPHkSZWVlf21c0759e9x9991o164dmjZt6hDrCj799FO8+OKLyMnJkU4h+pvY2Fi8/fbb6Nu3r3QK1dKSJUswZswYu360gsLj9g4nJydl/PjxitlsVtTIbDYrWVlZyrx585To6GhFp9NV++9mMBiU8PBw5YUXXlB+//135dixY0p+fr70X8kqzGazsmPHDqVdu3ZKgwYNFFdXV/GvLR6Od3h4eCiNGjVS7r33XuX06dPSHwu6TWVlZUqfPn1q9H1XawfPSFhI27Zt8fnnn6Np06bSKf8jNzcXY8eOxfLly2/7z4qKikL//v3RqlUrtG/fHo0aNbK7RV6VlZXYt28fVq1ahfT0dKxYsQLFxcXSWWTngoOD0a9fP0RFRWHgwIGIi4uzu8+WI9q0aRPGjx+P06dPS6dYDQcJC3FxccHrr7+OZ555RnXXLvfu3Ys2bdpY9M90dXVF+/bt0aVLF4waNQoNGza06J+vFqWlpVixYgVOnz6NNWvWYP/+/SgvL5fOIjvh7u6O9u3bo1evXoiNjcX999+vuu8fVHvl5eV46aWXMHfuXLu+S4yDhAX1798f8+bNQ3h4uHTK3xw4cACtWrWyyp/t5uaGyMhING/eHAsXLoSnp6dVXkdaaWkpMjMzkZeXhy+//BILFizgQEG15ubmhn/+85/o168fAgMDUadOHTg7O0tnkYX98ccfGDNmDA4dOiSdYnXi11fs5dDpdMrGjRulL8n9j9OnT9vk+lxoaKjy9ddfK5WVldJ/ZaurrKxUduzYofTp00dxcXER/9rjof7D09NTGT16tHL8+HHVrqciyzGZTMqXX34p/nVni4PP2rCw8vJyJCUlqeq3C2dnZ5SUlOCPP/6w6um14uJifPfdd389zCw0NNRur/H+eYfLP/7xD7z88sto0aIF8vLy4O3tDScnJ5SUlHBbbgfm6uqKiIgIxMTEoHXr1vj888/x73//G/369UNQUJDdfi7o/7t48SImT56MzMxM6RSr46UNC3N1dcWePXtUt+jy8OHDmDhxIrZt22aTx2yHhIRg5syZ6N+/PwIDA63+empRWFiIXbt2YdOmTcjNzcWuXbtw5swZFBcXc7CwYwaDAV5eXoiPj0eLFi0QGhqKpKQktGrVig/NclArV67EwIEDpTNsgoOEFfTp0werV6+Wzvgfe/bswZgxY3DgwAGbvJ67uzuGDRuGCRMmWHyxpxYoivLXIHHx4kUcPXoUq1atQnZ2tnQaWUh0dDT69u2LmJgYBAcHo3HjxprZT4asx2w2o0WLFnb3uPCqcJCwAr1ej/3796N58+bSKX+jKApSU1MxZMgQmw0Tzs7OiI2Nxccff4yOHTs67CndyspKFBQUICMjA0ajEQcPHsSKFSuwZ88eXL582a5XdNsLvV6PunXrol27dhg6dCiioqLg7e2NsLAweHp6OsTGbVQ9K1euxKBBgxzmc81Bwko6duyIbdu2SWfckKIo6Nevn03Pmri6uuLcuXMICQmx2WtqRWFhIQ4dOoSpU6diy5Yt0jl0DYPBgKSkJPzrX/9CfHw8PDw8pJNIAwIDAx1ql1wOElYSEhKClStXolOnTtIpN1RcXIx3330X8+bNw6VLl2wyOet0Ovzwww+45557+KChmygvL8fvv/+On3/+GUePHkVaWhpOnDiBoqIi6TS75eHhgejoaMTFxaFp06bo2bMnH4hFtfLxxx9j8uTJKC0tlU6xKfFbR+zx0Ol0Sr9+/ZTCwkLBG5BurqKiQlmxYoXSuXNnxWAw2OR9CQgIUL766iulqKhI+q+vGdu3b1fi4+PFv6bt+YiKilLWrl0r/U9NGnfx4kUlMTFR/OvZwDmTjAAAGndJREFU1gdv/7SikpISNGnSBHFxcdIpN6TX69G4cWO0bdsWcXFxWL9+vdVfs6SkBLt27UK9evXQpEkTXle+hdLSUsyfPx/r1q3jXR9WlJ+fD5PJhE6dOsHb21s6hzRq8eLFWLJkicOdjeBerFaUnp6O3377TfXPaWjatCkef/xxLF26FF5eXlZ/vYyMDPzzn//E5s2b+cPxFvbs2YNVq1ahsrJSOsWuKYqCNWvW4OjRo9IppFHnz5/H2rVrkZubK51icxwkrMhsNmPOnDmqXXR5LScnJwwZMgQrV65EcHCw1V8vIyMDSUlJvBXyFi5cuICTJ09KZziEoqIi/PDDDygrK5NOIQ3atWsXfvjhB+kMERwkbGDJkiWaeQ59z5498dFHHyE2NtYmt2o2b94cp06dsvrraNHly5fx73//WzrDoXz88cdc1Eo1dvHiRbz77rvSGWI4SNjA4sWLcfDgQemMahswYADeeOMNmzx8LDs7G4888gjS09Ot/lpak5OTg127dklnOJTS0lL8+uuv0hmkMT/99BO2b98unSGGg4QNVFRU4JlnnrHJ1tSWMnDgQMyfPx9BQUFWf63k5GTMnz8fFRUVVn8tLTlw4ACMRqN0hsOZNm2adAJpSGVlJaZOneowm0/dCAcJG9m+fTsWLlwonVEjffr0wZdffmn1OytKS0vxySefYOnSpVZ9Ha154403pBMc0pEjRxxu1T3V3sSJEx1+HRMHCRuaMWOG5u5SuO+++7Bw4UI4OTlZ9XUuX76MpUuX4ty5c1Z9HS3Zt2+fdIJDqqysdJhnJNDtOXfuHH8BAgcJm0pPT8fjjz+uqVv59Ho9HnjgATz//PNwc3Oz6mutXbsWmzZt0tQlIGs5f/68dIJD+/HHH6UTSOVKS0vxxBNPoKCgQDpFHAcJG6qsrMSuXbs095umh4cHHnnkEbRv396qd3IoioKXXnoJKSkpVnsNreBvObLWrl0rnUAqt2XLFhw8eNCh10b8iYOEjR05cgTLly/X3C1mMTExmDZtGvz8/Kz6OpcuXcKzzz5r1dfQAt45ICsrK0s6gVQsKysLixYt4qXYqzhI2FhlZSUWLlyoqdtB/9S5c2d89tlnVn+dDRs2YOTIkVZ/HTU7dOiQdAIRVWH37t1Yu3Ytz0ZcxUFCwKVLl7BgwQLNbFJ1rQEDBuD++++36msoioJ169Zh1apVVn0dtaqoqOB1V2EVFRU8K0E3lJWVhSlTpqCwsFA6RTU4SAhZtGgR/vjjD+mMWlmwYAGio6Ot+ho5OTmYPXs2jh496nBTf3l5uXSCwystLcWxY8ekM0iF1q1bh8OHD0tnqAoHCUFDhgzBxYsXpTNqLCQkBFOnToWnp6dVX2fXrl14/vnncebMGau+jtpcuXJFc7cJ25vy8nKH3xuA/te+ffswduxY6QzV4SAh6OLFi3jllVekM2rMyckJ99xzD5KSkqx+F8e6devw7LPPIj8/32qvozaHDx/W1C3C9oiXNuh6ZrNZczsU2woHCWHLli3D4sWLpTNqLCwsDBMnTkRMTIzVX2v16tXo3bu3w2yhffDgQYf5u6qVyWTiNXD6m1deeUUTT3KWwEFCWF5eHr755htNLq7r0qWLTQYJk8mEbdu2oX379g7xA/bgwYM8IyFMURRuk01/OXToENasWeMQ339qg4OECmzYsAFz5sxBWVmZdEqNLVu2DPXr17fJa+3btw9JSUk4e/asXS/A5BoJeYqicNErAQAKCwsxf/583pJ9ExwkVMBkMuHbb7/V5N4Snp6eeO6552zyWoqiYMuWLZg0aRKSk5P5w5asRlEUnhUimEwmrFu3DkuWLLHrX15uFwcJlUhJScFrr72G4uJi6ZQaGzduHJo1a2aT11IUBatXr8aECRMwffp0m7wmOR4OEgT89+zgu+++61CLvWuDg4SKrFu3DosWLZLOqDEXFxfMnTvXqndwXG/v3r2YPXs2hg8fzg85WQVX59PLL7+MXbt2SWeoHgcJFVEUBePHj9fkN7BWrVohMTHRpq9ZUlKCb775Bm3btsXPP/9s09cm+6YoiiY/h2Q5hw4dwieffMJLGtXAQUKFWrdujby8POmMGgkKCsIzzzwDd3d3m7/2iRMn0LdvX0ydOhUHDx7k2gmyCP4AcVzp6em49957pTM0g4OECp08eRIfffSRpn4g6nQ6tGzZEl27dhV5/eLiYkyfPh333HMPPvnkEz7el26blj5/ZDlFRUWYMmUKLl26JJ2iGRwkVMhoNOKjjz7Chg0bpFNqJDIyEl27doWHh4dYw8WLF/HEE09g7NixmDlzJk6dOsWBgmpMURR+3TggRVGwYsUKbNiwgZe2aoCDhEqdPXsWH374IdLS0qRTqk2v12P48OFo3ry5aEdlZSV27dqFmTNnonfv3hg5ciQuXLgg2kTaw0HC8ezZswdz585Fdna2dIqmcJBQKUVRsHbtWvz000+amozr1auHxo0bw2AwSKfAaDQiJSUFixcvRnh4OFq1aoUtW7aoeuOv7OxsTd4CTKR1RqNRs/v5SNMB4NitYk5OTvj111/RsWNH6ZRqO3PmDNq0aYPc3FzplBvy8fHBfffdh2eeeQYeHh4ICQmBn58fXF1dbdpRXl6OvLw8ZGZmIicnB7NmzcJvv/3GrZlVYtCgQVi2bJl0BtnId999hwceeEA6Q5M4SGhAw4YNsXbtWsTFxUmnVNt9992niTUeAQEB6NatG+644w6EhYXB09MT8fHxaNSokcXvQFEUBWfPnsX+/fuRl5eHixcvYt++fVi3bh2Kioos+lp0+zhIOI4dO3agd+/eqv3lR+04SGjEgAED8P/au/Ogqur/DeDPhSsQYJgLqMUXU2tckEEQDY1MHc0yd9B0XJGRotCKTMVwvmkumTlgGZmhQqaZYCYlJi5EpCwKKFdEYNSAAFkEZLkX7nJ+f/TNfk6leAU+d3leM+8Z/1Dvw50D9+Gcz/mc6OhodO7cWXSUVsnKyoKHh4foGA9ELpfD1tYWAwcOvKtI9OzZE87OzujVqxe6d++Ozp07w8bGBlZWVrCw+OvqoFqthkqlQkNDA+rq6lBRUYGSkhIUFRWhubkZkiTh+vXryM7ORl1dHR8AZOBYJMxDcXExfH19kZ6eLjqK0WKRMBJWVlYIDg7G1q1bRUdpNW9vb6SmpoqO8dBsbGxga2sLGxsbWFtbQy6Xw9LS8q4SAfy1iZFGo4FarUZzczOampqgVCqNap0L/YFFwvRJkoSAgABER0fze/QhyEUHoNZpaWlBdHQ03N3dMW/ePNFxWiUiIgLPPPOM0a9+V6lUXLdAZILWr1+Pr776iiXiIfGuDSNSVVWF/fv3Iz8/3yg+nPv27YuxY8eKjkFEdBedTofTp0/jwIEDvMTYBlgkjExCQgI2bNiApqYm0VHuq3v37li7di1cXFxERyEiuqOsrAxbt25FXl6e6CgmgUXCCO3btw9r1qwRHaNVPDw8MHnyZIPYV4KICABWrFiBhIQE0TFMBouEEdLpdIiMjMSuXbtER7kve3t7rF69GiNGjBAdhYgIgYGB+Pbbb0XHMCksEkaqpaUFYWFhyMzMFB3lvnr37o2VK1cKfQYHEVFMTAwXV7YDFgkjdvPmTQQHB6OgoEB0lPuaMmUKZs2a9bdbJomI2ptOp8O5c+fw4YcfQqlUio5jcvhT3cilpqYiLCzMKB5KFRUVhWnTpomOQURmpqCgAGFhYcjNzRUdxSSxSBg5nU6HuLg4bN682eD3OrCwsMC2bdvw8ssvi45CRGaipqYGoaGhOH36tOgoJotFwgRoNBrs2bMHO3bsEB3lvpydnbFixQrhjxonIvOwcuVKxMfHG8XeO8aKRcJENDY24p133sG5c+dER7knCwsLPPfcc1i2bBm6du0qOg4RmbBNmzZh165d3HSqnbFImJhp06bh7Nmz0Ol0oqPcU0BAAEJDQ2Fvby86ChGZGI1Gg7i4OHzwwQeio5gFFgkTU1FRgeDgYGRlZYmOcl8hISEICQnBo48+KjoKEZkISZKQnJyMVatWGcUOwKbAEsB/RYegtlVeXo6CggJ4e3ujW7duouPc0+jRo/HYY48hJSUFzc3NouMQ3TFo0CDMmjVLdAx6AJIkIT09HcuWLcOVK1dExzEbPCNhgv5s5K+++ioaGhpEx7knmUwGf39/bNu2DU5OTqLjEJERu3nzJgIDA5Gdnc3FlR2IRcJEabVanDlzxih+o7KysoK/vz8iIiLQq1cv0XGIyAhptVoMGTIEFy9eFB3F7LBImLiEhATMnz8fNTU1oqPc1+zZs/Hjjz9i6NChkMlkouMQkZEoLS2Fj48PqqqqREcxS1wjYQYKCwuh0+ng5uYGOzs70XHuqVevXhg3bhwqKipQUFDAPfFJGK6RMA7Xr1/HihUrcPLkSV7OEIRFwgyo1Wrk5ubC2toabm5usLGxER3pnrp27Yrx48fDysoK+fn5qK+vFx2JzBCLhOErLS3Fxo0bERsbi5aWFtFxzBYvbZiJ6upqbN26FfHx8UbxW76DgwNCQkJw6NAhuLu7i45DRAamsbERn332Gfbt28fbPAVjkTAjNTU1WLBgAb777jvRUVrFzs4OI0eOREZGBhYvXiw6DhEZkM2bN2PDhg1obGwUHcXssUiYGUmS4Ofnh6NHjxr8Q77+JJfLsXv3bigUCri5uaFz586iIxGRIHV1dfjoo4+4a6UB4RoJM3X8+HH07NkTAwYMQKdOnUTHaRVHR0fMmDED3bp1Q21tLcrLy7m4itoN10gYnpqaGoSHh2PdunVGcYnWXLBImCmVSoXMzEx06dIFAwcOhJWVlehIrWJvbw9vb294eXlhwIABqKysRFlZmehYZIJYJAxLRUUFtm/fjh07dhj8RnvmhkXCjNXX1yM1NRW9evXCkCFDYGFhPFe6evbsCU9PT0yYMAHu7u64ePEiamtrRcciE8IiYTgaGxsRHh6OiIgIfp8bKIlj3iOTyaS4uDjJmGk0Gun777+X7O3thb+fHNMYX19f0Yc1/c+7774r/Hjg/PsYz6+g1G4kScLMmTOxfft2o237lpaWmDJlCurr65GUlITJkyfD1dUVDg4OoqMRkZ7Ky8sRHByMLVu2iI5C98BLG3RHcnIytFotBg8eDHt7e9Fx9NanTx+88sor8PX1haOjI/7zn//A2toat2/f5qY11Gq8tCFWQUEBQkNDER0dDZ1OJzoO3YNcdAAyHE1NTYiMjER1dTXee+89ODs7i46kN5lMBkdHRwQHBwMAFAoFLl++jJs3byI/Px9xcXEoLy8XnPIvgwcPxvjx4+Hi4oKdO3ciLy9PdCQiYfLy8rBq1Sr89NNP0Gg0ouPQfcjwxzUOojtsbGwwdepU7N69G7a2tqLjtCmtVouGhgaUlJRApVKhqqoKJ06cQFpaGq5cuYJbt26122vLZDL07NkTffv2hbu7O3x8fPDkk0/C0tISDg4OcHR0hK2tLV566SUkJia2Ww5qHV9fXxw6dEh0DLNTWlqKWbNmIT09HWq1WnQcagWekaC/UalUOHjwIFJSUlBSUiI6Tpv680P7/6+deOGFF+78WaPRoLm5GZWVlUhKSsLJkydx4cKFVj9ATCaTwcnJCV5eXvD29saYMWPu3F5rZWUFS0vLVv0fROaqf//+UCqVomPQA2CRoH/1+++/w9PTEwcOHMBTTz1lFh9wcrkccrkcdnZ2WLRoERYtWiQ6EpHJ02g0yM7OxpQpU1gijBDv2qB7yszMxJw5c/Dzzz9zoSIRtbnGxkbEx8djzpw53FzOSLFI0H1lZmbi9ddfx4kTJ7gtLRG1GaVSiaioKLz99tsoLCwUHYf0xCJBrZKbm4vXXnuN93MTUZsJCgrC+++/jxs3boiOQg+BaySo1UpKShAaGor09HTExcUZ1ZbaRGQ4NBoNhg4dCoVCIToKtQF+EtADi4+Px+zZs1FcXMyNYoio1TQaDS5fvgwfHx9cvnxZdBxqIywS9MC0Wi1iY2OxZMmSO7thEhHdi0qlwuHDh+Hv74/U1FRIErcwMhW8tEF6S0xMRFlZGYKDg7F06VLRcYjIQGm1WnzwwQeIiYlBcXGx6DjUxlgk6KEoFAqsXr0av/76K6KioiCX85Aior+oVCpMnz4dycnJaGpqEh2H2gEvbdBDu3XrFmJiYvDiiy+itLRUdBwiMhAKhQLe3t44fvw4S4QJY5GgNnPy5En4+fkhMTGRD9ohMmNNTU3Yt28fpkyZguzsbNFxqJ2xSFCbOnv2LBYsWIDt27dzq1siM3T79m1s3rwZgYGBuH79uug41AF4QZvaXHl5OUJCQpCfn4+lS5fCw8NDdCQi6gCJiYmIjo7G119/LToKdSCekaB28+WXX2LBggU4ePAg95sgMmFqtRrh4eEICAjA/v37RcehDsYzEtRutFotLl++jDlz5iA/Px+rVq1Cp06dRMciojZ0+/ZtvPnmm9izZ4/oKCQIz0hQu5MkCWvXrsWECROQk5PDhZhEJkCpVCIjIwNeXl4sEWaORYI6TFJSEiZOnIiYmBg+LpjISEmShIKCAoSHh2PcuHHIz88XHYkEY5GgDlVaWoqQkBAsX74cCoWC2+QSGRGtVoukpCQEBQVh/fr1qK+vFx2JDACLBHW42tpaHD58GNOnT8enn37KMkFkBDQaDUJCQrBo0SKcOnWKt3fTHSwSJIRWq0VhYSGWLVsGV1dX1NXViY5ERP+irKwMzs7OiIiIQFFREcs/3YVFgoTLzc3FkCFDEBkZiZqaGtFxiAiATqdDaWkp1q1bB1dXV5SXl4uORAaKt3+SQSguLsYbb7yBS5cuYerUqZg4caLoSERmS61W49ChQ/jmm2/www8/8AwE3ROLBBkMnU6Hzz//HMeOHYOfnx+CgoLQt29f0bGIzEpaWhp2796NQ4cO8QwhtQqLBBmcoqIiRERE4NSpUwgKCsL8+fNhY2MjOhaRSaupqcGOHTsQHR2Na9eucTdaajUWCTJIGo0G2dnZWLp0KWJiYnDkyBF069ZNdCwik1RYWIhJkyZxTwjSCxdbksFLSUmBo6Mj1qxZg8LCQu6MSdQGWlpacPXqVSxevBhPP/00SwTpjUWCjIJOp8PGjRsxY8YMREVFoaSkxCQXgKnVami1WtExCH8cc6Z4el+n0yE/Px87duzApEmTsHfvXpP8XqKOw0sbZFRycnLw1ltv4ejRo/D19cXcuXNhbW0tOlabqaurg0qlEh2D8MdeJ2q12qSOr/r6ekRGRiIhIQFnz55FS0uL6EhkAlgkyOgolUocO3YMaWlpiImJwbJlyzB9+nTRsdpEUVERN+cyECqVCg0NDSZTJL744gvs2rULeXl5aGhoEB2HTAgvbZDRqq6uRlJSEmbOnAk/Pz8UFxeLjvTQ8vPzUVVVJToGAaiqqjL6Y0qSJCgUCowZMwaBgYE4f/48SwS1ORYJMnqSJCE2Nhb9+vXDpk2boFAojPaHZW5uLiorK0XHIAAKhQLJycmiY+iltrYW2dnZCAwMhLu7O5KSkkRHIhPGSxtkMtRqNUJDQ/Hxxx9jyZIlmDx5MoYPHw4rKyvR0VqluroaN27c4GJLA9Hc3Izi4mIolUo88sgjouO0SkNDA1JSUhAfH4+9e/eiqalJdCQyExKHY4ozaNAgKSAgQEpMTJSMwYkTJ6QePXoIf984f427u7t06dIl0YfGfWm1Wik2NlaaN2+e5OLiIvx945jdCA/A4bTbWFhYSE888YQ0btw4KS0tTdLpdKJ/5v+jpqYmKSwsTPj7xbl75HK5FBsba7DHjVarlQ4fPix5e3tLTk5OkkwmE/6eccxyhAfgcDpkZDKZNGrUKCk3N1f0z/+/uXHjhmRnZyf8PeL8fXr37i3V1taKPkTuotPppOTkZGnw4MHC3x8OBwYQgMPp8Bk9erT0yy+/SL/99pukVquFfiio1WopICBA+HvC+ff55JNPhJ+VUCqVUmFhoXTq1CmpT58+wt8TDufPkf3vD0RmRy6XY+TIkZg6dSrGjh0LNzc3WFh0/I1Me/fuhb+/P3cXNGA2NjZISEjA888/3+Gv3dzcjIyMDCQlJSE2NhY5OTkmueMmGS8WCTJ7MpkMw4YNg4eHB0aPHo05c+Z02GsfOXIEgYGBqKio6LDXJP14enpi7969cHV17ZDXUyqV2LNnDzIyMpCWloYrV650yOsS6UP4aREOxxBGJpNJPXr0kEaPHi3t3LlTqq+vb9dT1ZmZmdKIESO4QM5IRi6XS3PnzpWqqqra9biorKyU1q1bJ3l5eUldunTh8cExhhEegMMxyLG2tpb8/PzaZQ1FVlaWNGzYMOFfI+fBZ+HChVJlZWWbHxN1dXXSiBEjJLlcLvxr5HAecIQH4HAMeuRyuTR+/HjpyJEjUk5OjqRSqfT+sNBqtdKZM2ckT09P4V8XR/+ZOXOmdOHChYcqDg0NDVJ2dra0b98+yc3NjWceOEY7XCNB1EoymQw9evTA8uXL8fjjj2P48OHo169fq3bO1Gq1uHTpElJTUxESEgKlUtkBiak9OTk5YcuWLRg1ahT69u0LmUx233+jVCpx9epVZGZmoqCgAJGRkXxIGxk9FgkiPVhbW8PLywv9+/eHj48P5s+fj06dOv3t72k0GiQlJSEuLg7nz59HVlYWt8A2IdbW1nj22Wfh5uaGhQsXws3N7R8LRX19PXbt2oXs7Gzk5eUhKysLGo1GQGKitsciQfSQunbtChcXl3+8dVSn06GyshKlpaW8Zc+EyeVyuLi4wMHB4R+LhEajwbVr11BfXy8gHVH7YpEgIiIivfEx4kRERKQ3FgkiIiLSG4sEERER6Y1FgoiIiPTGIkFERER6Y5EgIiIivbFIEBERkd5YJIiIiEhvLBJERESkNxYJIiIi0huLBBEREemNRYKIiIj0xiJBREREemORICIiIr2xSBAREZHeWCSIiIhIbywSREREpDcWCSIiItIbiwQRERHpjUWCiIiI9MYiQURERHpjkSAiIiK9yfHfKNEZiIxHSzPw21Ug7RRQqBCdhohIuP8Dv16W8D4bDSQAAAAASUVORK5CYII=;" vertex="1" parent="1">
          <mxGeometry x="30.539999999999992" y="-129" width="98.93" height="84" as="geometry" />
        </mxCell>
        <mxCell id="5HoQ82C4X57VyinW_T0t-37" value="" style="shape=image;verticalLabelPosition=bottom;labelBackgroundColor=default;verticalAlign=top;aspect=fixed;imageAspect=0;image=data:image/png,iVBORw0KGgoAAAANSUhEUgAAAVIAAAEvCAYAAAAXaUnwAAAgAElEQVR4nOydd3hkd3W/33vnTq/qXatdrbZXd697rxiDgwHTEkIIhkAICYSEhJqQEEJ+JIRgHAjdprlhY2xc1qzX9q69fdfbpFXvbXq97ffHbJFWZTVNGtn3fdjn8YM0d+5IMx+d7zmfc47gV3QdA4N5JKpoHA7KeMwCLW4LorDQd2RgkBvSQt+AwZuHsaTK9pE424cT7A2kuLnGwb0tEk5JXOhbMzDICUNIDQqKrkN3VOaJ/hhPD8TojCoMxBUUHZpdZkKyZgipwaLHEFKDgqBoOoeCKX7SEWbbcIKhhEpY0SZ9T39cISxr1NgX6CYNDPKEIaQGeUUHdowm+MYRPy8MJ1BnycD3xRRCsjbzNxgYLBIMITXICU1PF48G4wrPD8X5UXuYI2F5To8diCsEZA0dMOpNBosZQ0gNskLVdfriKsdDKV4YivNEX4yemEIm8WVCg96YgqLpmI3SvcEixhBSg4yIqzpHgileG0vw0miSnWMJhhNq1tfriCgkDSE1WOQYQmowJ8aTKjvHkrwwFGePP8mhYIrEbAnQOdIekUmqOi7jnWiwiDHevgazMpRQeawnyu8HY7RGZAbiKrKWvx6O9ohMKo/XMzBYCAwhNZiW1rDMTztCPNobZTylE1M1CqF3HRGZeB4iWwODhcQQUgMgXX1Pqhq7xpN8+3iQ54cTeY08ZyKuQVdUYZnLXPDnMjAoFIaQvskJyxoDcYXtIwl+3hVmXyDFfFs7jwRTXFOVuys/pugMxGUckki1XTIsVQbzhiGkb0IUXWcwrtIaktk2krYutUXm5v0sBIeDqZweH1N0joVSvDgS51fdUe5Z4uLPWjxIgiGlBvODIaRvIlKaTmtY5pWRBC+PJnh5JMFQMnvrUr44OkcD/9nIms5ef5JnB+M8Oxjj9WC6cNUbU9ANl7/BPGII6ZuAhKLx0miCZwfj7AskORqUCZ7sKCoGWkMp5Ay8pElV59WxBI/3RXltLMnh0OTK/0BCLZrXZvDmwBDSNzCDCYXf9cd4tCdCZ1RlKKGSLEKrUVjR6YspNJ2j4JTSdF4bS/KTjhCvjSfpjSmkpsnnDsSVgjgMDAxmwhDSNxi6Dt0xmQe7IjzUHaUvrpBQ9SKN0HQ2+qx8fIWXBufMIqoDhwIp/utYgOcG44QVDWWWFzSYUIr09Rq8UTGE9A2AquskVWiNpLi/NcRjfVGisynNAiIAVpPACreZv1jh5dZax7TzSDU9HYG2R2Tuaw3yYFdkVvGcyEBcRTWSpAbziCGkixQdiMoaA3GVXeMJHu6N8vxgPKOhIfOJKECZxUSLW+LuRhdvrXfhs0wVUFWHQErlcDDFL7sjPNwTJZahYT+pwXhSw2UMjDaYJwwhXWTowFBC4XBAZsdogt8NxDgakinW1VuSAHUOic0+KzfW2rm91onbPL3A9ccV9owneWYwxu8H4gzmMAylJybT6Cz82zspq0RTKtGkSiylkpBVkoqGrGqkFA31rGStySQgCQJmScRuNmEzm3BaTbhtEi6rhMkY3rIoMYR0kaDqOsdDMttH4rw2nuS1sSTd0czG1s0nJgGanBJXV9q5utLO5ZX2aSNQgMGEyrahOE8PxnhlJMFADgJ6iu6owmUVOV9mCpquMxJO0TYc4cRIlM7RGOPRFMG4QjghE0mqxFMqCUUlIWsoE6JpAZBMAmaTiNUs4rKmxdNjlyhzWih3Waj0WKnz2Wkos9NYYsdpNT6iiwHjt1TkxBSNPf4kv+uLscef5EgobV0qZursJt5a7+TmGgdrvRZKrKZps5WDcYUn+2P8fjDOfn8ypwj0bHpiSt6uNRkBm1mkzGVB0XRcNomhYJKu8RgpVWMwmKTHHyeWyvy1mEQBlzUtqmVuC9UeK6tqXJzXWMLmRi+lTouR9S1SBGMdc3ESVTR+1x/joZ4Ih4Myw0k1L2PrCkmDw8Q7G128vcFFjV3CaxGn/eD7kxqP9Eb4dU+UY6EUATn/A1Heu8TFty4sQEh6FjqQkjVicjoSjcsq49EUh/vD7Orys7szSOtwmGwKX4IADosJr91MldvK5S1l3LGxmk2Nvry/DoPcMIS0yBhLajzYGeb77aH0yDpdL3pPZK3dxAeWunnfUjflVtOMxnpNg593h/nmsQBd0fQ4vkK9tKsrbTxyZU2Brj47OqBpOqqmo2g6XWMxHtnTz28PDNE2HMkqHSOQjljNJpFNjV4+eX0zV68oRzRyqkWBIaQLjKLrxBSdtrDMzzrD/Ko7QrhIrUsTsZkEam0m7mly8Z4mN9X26bNEsqYTSKk8MxjnG0cCtEcLdeSezHKXxGs3N+TlWroOKVVDEMAsimTbwi+rGvt6gjyws5fnj44QiMnEU9l1YZlNAhc1lfDx65q5aGkJLquU9X0Z5I4hpAtEVNHojSkcDCR5tDfGtuHElHXFxYYAeC0iTQ6JG2ocvH+pm3rH9AKaUHW6ozIvjyT4UUeYg8HUrBtF841NFOh9WxOmHMRF0XTGIilahyPs7QrgsJh423m1lDotOd9ffyDB4wcGeXzfAO2jUcYiMloWH0WPTeL2DdXcc0kDm+q9WGdwRBgUFkNI5xFdh5GkypFQipdHEjw3FGO/PzVno/lCIQDlVhObSixcXWnnrfVO6mYQUEXXORRI8eJwnCf7Y+z1pxasLfXY7Y1U2kwZP05RdTpGo+zpDvCH46M8d2SU8WgKu8XEy397JfWluY/8O8VoJMVTh4Z46tAQr3UGGI9mNwlrWbmTP7m8kbdsrKbOl7/7M5gbhpDOA4qm0x6V2T6c4NWxJLvHkws6ti4Tyi0iV1fZuabKzmUVNuod5mmjvKSms9+f5NnBGH8YSrAvkJy2D34+2XpdLZtKrHP+flnV2d8b5A9HR9nRMc7+niD+2JnfU6Xbyr4vXIPZlN+oT9N1ev0Jnjs8zCN7B9jV5UfOIny3mUVuXV/Fh65o4oIlJcZRfx4x7E8FRNdhrz/Bb/vjvDQSpy0i408VZmVHvvGYBW6rcfK2BiervRZq7CZM03wyZU3nQCDJr7ojvDya5HhIXvDBKGUWkRtrHNTY5xaNxmWVVzv8PLJngP29QdpHotPal5aWO/IuogCiINBYauc9lzRwSXMpj+0f4L6tHUQztFAlZI3H9g3SF0jw8WubuX51hWHwnycMIS0AUVnjucE4P+sKczgkM55SiRX7+f0kPrPIrbUO/nipm2a3mRKLadrIRtfhcCjF99qCbB1KzzVdaHtWudXE7bUO3rPUxTKnmRLr7EIaTSq8cGyUn+3o4VB/mNFIClmdOYxeWe3K9y1PwiKJrK5x01Bq56qWMj73yBEO9oUyuoaq6ezqDPDPTxxDUTVuXldliOk8YAhpHhlPqTzRG+W+1hCtERlVZ9FMIXJJAm+pdfAXK32s9JinjT5P0RNT+PphP7/sjpIqoIVprrgkgbfVO/nYCi8tbgvn0g1F1fnFrl7u/0Mnx4YiaHN8DWtq3Xm533Phskpc0lzGTz90Af/w6GEe3z9AJj5UVdM5MhjmC785isNi4qqV5YjGOb+gGEKaR54fjPN3+8czHrKxUFhFgRKLyM01dv5suZc13umr0ZoOMVXjeEjmJx1hHuwKk1zg/KfdJFBqEbmrwcWHmj00zNJXr+k6sZTKcCjJ7w4Ncd8LHQyGkhk/54qq+RFSSMtmrc/Gv961lhqvjQd29hJJZmYd6xqL8Y+PHuG/79nIxkav0RVVQAwhzSMlFhOVNhOd8+SVzBanJNDkNHNZuY0PNrtZ6ZnZzjOSVDkSTPHUQIxHe6J56YPPFgHwmkWWudI9/O9b5qZpljmmmq4zHEpybCjCc0dGeGzfAAPBBNmUVwWgpdKZ9b1nS6Xbyievb8Ymifz4lR4C8cyKlMeGInzpiaN8690bqC8xqvmFwhDSPFJiEamwFq+QOiWBDT4Ll1fYuLXWyTqfZcYFcSNJld1jSZ4aiPHcYIze+MLudiqxiJxfYuXKShs31Thpdk/vHoD00bZjNMarHX5ebB1je9sog8HMI9CJeO1mKt1zdwDkkwq3lY9eswxV1/m/7d3E5cx+F9tbx/iXJ4/zr3etxW0zPvKFwPip5pESi5iVb7HQWESByyus3FTt4NIKGys8FqwzJBJHEirPD8V5fijOjtEE3QUb/jE3fGaRqyrt3FRj54IyG8tcMwtoUtE43B/i2cMjvNbpZ3dXgFAiP/e/vNK5oO2YZS4LH7tmGQlZ4/vbuzJ+/MN7+llf5+HPr1pq2KIKgCGkeaT05NG+WLCKcFmFjfc2udngs9LglLDMIAaBlMbv+qP8pi/Gfn+SoaS6oDatMqvIDdUO3t7gZJXHQp1dmrGIlFQ0Xuvw8+jeAXZ1BegYnd6+lAsrqgpbsZ8LFW4rn7pxOZ1jMZ47MpLRYxVN5wcvd3PJslI2NXoLdIdvXgwhzSNuc/pobxKY13bIs7GKApeUWflwi5cLSq2Unbyn6dA0eLg3wnfbQrSFZcKKtqD37jGLvKXWwfuXuVnhtuAxizMKqKbrPHdkhO+/2MWBviDBmEJqFvtSLqwosPVprlS6rfzr29fyrvtf48RINKPH9ozH+L/tXXz97rVYpeL5g/9GwBDSPCIKUGU34TaLBBagrUcSBS4ssfDXq3xcVWVHmkGBdNIDNJ4eiPGlQ35ORBb2+C4AJkHnnY1u/mqVj2b3LIvwdIilFJ48OMS/P91K+2hsXu6xpbI4hBSgsczO529fyZ/+aC9KBscGWdV5pX2cF4+Pc/2awo8YfDNhCGmeqbdLlFpM8yak5pMWpvNKLPz5ci9XVtpm9AymNJ2RhMqLwwnuPxHkQGB+B4lMRCBtYaqymbitzsGHm70zWph0IJJQ6PXHefr1IR7Y2UvnWCyr6ntW9yrAsgrH/DzZHBAFgQuWlvD282r59e7+jIadnPoZbmkuxXGOhgWDuWMIaZ5pckpUWk20F7iX3iIK1DlMXFJm464GJ1dVzhyBKprOiYjMzrEED3VH2TmWXLA2ToH08X2F28yVlTb+qNHFihlM9BPtS88fGeHJQ0N0zlMEOhG3VcJrnzlKXggqXFbuvqCO1zr9dGTwM1E0nd1dAQ70BblkWWkB7/DNhSGkeabOIVFtNyFCQfYpiQKs9qQtTNdU2bm03IZnhtFpKU3naDDF9pE4vx+Is2MssaBGeo9Z5KJSK1dV2rm22s4KjwVpGgGVVZ2usSg72/28fGKc54+OMBrJbipSPqjyWIuuzVIQYEO9h2tXVfDjV7ozGnLSNhxlT3eQ8xp9WIxNq3nBENI845TShnGbSchrh5MJWO+zcHudg0vL7az3WWbcxilrOoeDKZ7oi7J9JME+f4rEApbgSy0iV1bauKXayeYy64wWJkXVeb0/xDOHh9nR7udAb5BATF7wFtQar63ohBTA57Rw1cpynjsyQufY3KPSuKyyq9PPHRurDZN+njCEtACs9lhwSSIxNXcLjkmADT4L9zS5ubQ87aO0z1CC13Q4Hk7xQGeYrUNxOqIK0QUcluIzi9xQbeeuRhfrvBZq7dNPcdf09KCNB1/tZVenn15/IuN2yEJS5SlOIRWAi5eWsKbWTdd4Zjnjvd0B+gMJQ0jzhCGkBWC114LTLEBuzTQ0OSU+tcrH9dV2yqymGT2gAF1Rmf88GuC3/XGCsrago+ysIryj0cUfL/Owwm3GIYnTzzBVVLYdH+M7Wzs41B8iklRnnb60UFR7i+9of4oSp4Xzl/h4sXWMcAbNB/2BJJ2jMTY3egsyGvDNhiGkBaDFbcaXh5UPy1xm7qh34p3mWjrpwkFXVOEH7SH+70R4QY/vJgEcJoHb6xz8zaoSls1gYVI1nVBC5rkjI3znhQ5e7wujFvls8SqPddZpWAuJAFzaXMqPX+nJSEg1XWdPd4Dr11TkZXXKmx1DSAuARRTY5LPmbC9SdJ2kqsNZmhRTNI6EZB7pifCr7gjDC1RBEgCHJFBrk7i22s4Hm920uKfuXteBcEJhOJRk67ERfvJKD0cGwgtwx9lRXaQ50lNsqvdS47HSPRbLKJ98eCBMNKlSOv+zWN5wGEJaIK6stPFAVySnaEvV05X3iWg6vDwS51N7x+iJLdwgEbckstabdg+8td7JKu/UCryq6QyHkxwdCLOtdYxH9vbT508szA1nidkkUO6yFLWQmiWRdXUednUFMjLot49EMx6AYjA9hpAWiEsqbDglgWQqeyFVNH1KrlMHhpLagomozyxyYZmVayrtXFVlZ6XHMiX/qenp6UuvtI3z0okxXmobZzCU3fi6hcbnsOCwFL9xfWOjF9MOISMhPddGAIO5YwhpgaiySWz0Wdk6HM/6GooOqbNyAwLMOLmpkPjMaQvTrbVOzi+10uwyT6nA67rO4YEwj+8fZGeHn6MDYcYiqQW3L+VCmdOM1Vz8Qrqq2p1x1Kxq+qL841aMGEJaIATgllpHbkI6TUQKYM1lWXuGOE0Ct9Y6+KNGF+t8FiqtpikdVLKqsbsrwAM7etndHaAvECeafGMcGctcVmyLwLRe55u5Ndig8BhCWkBur3Pwt/tG0bNc8pDUdKLy1KPXbDaofCEJcGe9k79Y4aXFY8EmClPaOJOKxrbjI9y/rYu93QGiSTWjo+VioHSRRKRlLis2i0gkR8udQXYYQlpAauwS67wWDgaz67tPqjqhswz1ggC2AkWkkpBu47y5xs4nV5XQMo2FSVY14rLGi8dH+dbz7ezu8jNxMZsgCIgmAYvNjKKoyEll8WwAnAa3TcIyjyeAbBGFdP/9aHjhWmnfzBhCWmBuqnVwMBjM6rEJVSd0VkQqAE6TiED+9MlhEmhwSFxUZuW9S92cV2KddHzXdAgnZPoCCbYdH+XHr/TQOhSZcEdgkkQsVjNWuxmz1URgNJoW0UWO22ZeNIZ1y3SDCwzmBUNIC8z1VQ7++1goK7N8QtMJK1OP9jaTgE0UiOd4jHZKAivcFq6utHFHnZP1JdYpFfjBYIKDvSFeOjHGU4eG6RyLoZ56XgHMFgmn24bTY0OSRPwjEUb6IlOfbJHitpkwL4IcKYBg7AldMAwhLTAtbgtrvRZ2+zNPXiVUnfA0OVJJBK9FJJ7DRk+fReSjyz1cW+1gU4llUueOrkPnWIyXT4yx7fgYr3b46fPHJ0XAVrsZb5kLb6kDyWIiNB5joGuc1BsgCp2I2yphXgRHewB9MedQFjmGkBYYhyRwfbU9KyFNajpBWUPTmVTokQQBl1mELIRUQEdHwCbC3UvcLJkwTFlRdY4NhvntwUF2tPs5MhCePL5OAIfLRkWtF2+pHavdQiSYoL9znIg/hvoG8yQKgNMqYRYXR0SaSYuoQX4xhLTAWE0CWypseNoEQnJmEYOmw3hKI6Jok2aOSqIw4wzSc3HKQeBPacgTUgOhuMyPXu7mgZ29DIQSxJLq6fhGEAQcbis1TaX4ypxY7WZEUWCgy09P2wiphPyG9CPazCYcFtOi2LqpaDrjUaPQtFAYQlpgBKDeIbHJZ2XbSObtkf6kSlCeLKRmAbzm3D7dSQ0CE9IGsqbT44/TdtZCNXeJg4Zl5fgqXZhMIoIAqqpzfH8/w30B9DzZnQTgihXl3HVeDccGInznDx0LflC1WUSseRg+Mx8EoimUN4Z1d1FiCOk8UGUzcUm5je2jiYxXHI+lNAIpjYYJK4MsokB5HtoWRyekBqySiMs6+e2w/pImSiomL31LxGWO7uklNJ7ZBsuJiIKAw2LCZZPYUO/hpnWV3L6++vQUot8dGuKJg4N0j2ffzJAPHGYJ+yLwkAIMBBMZ7W4yyC+GkM4DTklkQ0m6K2gww7xmIKVOsUBZTAIVttw/4IMTcmpWSZyyl8jutp3+b12HaCRJx+FBwv7c9ibV+mzce/VSbl5bRX3p1I6clVUumiucCy+kFhHbIolIjw1FMhbSIp7DsuhYHO+SNwAtbjOrvZnPfRxLagRSk8XXIgpU5kFIh+Jnrms2pSNS84RPVzJ2JueWTMj0HB8mMBpBzzHycVklLljio7HMPm1bY0OpnVXV7gXfJ+SwmLAtkoj06EDkjC1tjvgc5kXjSCh2DCGdJxodZjaVWDLuSvLLGiNJbdJcU4soUG415ewaHDgrOnZYTdgnpAxSEyLWaChBOBDPS050KJRgT3dgxq+bTSKbGr2ULfDAYfsiEVJdh6ODYTI1TTSU2hdF++tiwDjazxM2k8AlZTYe641ltKpZ1nR6YzJxVcN1MkIzCeA1izhMAtEcJkf3xBR0zjR4uqzpKnXopIAmJkSkiVgqbx7RYFzhQG+IYFyecc3xBU0+rl9TQTihYjEJxGWV8UiKwVCSvkCcxDT+2nxjNomTIvRiZSCYoGc8nvHRflm5c9HkgIsdQ0jnkYvKbDQ7JToimW3G7IgohOQzQgrpnvgyq4loLHtx6z3rsW6bGbdNYjCU9ryeEk5F0UjEZLQ8+UQ1Xef4UIT2kSibG33Tfk+dz84/3LYSXU/PF9B0UFSNlKoTTsgcGYjwm/0DPPP6cMEGpUiiUNQDnU9xsC9IIJ75PIcVVa5FMWt1MWAI6Tzis4hcWWlnx1hy2tbPmeiKKkRkHSYsfPRZRKrtJrpzENKuiHxaqAC8djOeCRHiqaO9pmoocn7N3ieGo7QOzyykJlGYZZeQnTW1Ht5+Xg0943G+9PhRntg/mHe7lGRaHEJ6KrrPlJWGkOYNI0c6z9xYY6fcmtmPvSsmEzpLeL1mkUprbh+CpA4D8TMC6bFLuG1n/rYmYunIVFU0lFR+TIqiANUeKzeuqWR1jTtr8RNI26iWlDn49j0b+c93baC5womYR+EziWLRC2kkoXC4L0wsw/mvtT4bVUW+i2oxYUSk88wKj4ULy6x0RpU5i8hYUmMwrqDp1tOWFZ/FRJU992jiRFimzpF+G3hsEp4JQpo8GZGqqoach90+kihw0VIfH726mWtXl+dtqpLdYuIdF9bhc5j599+38np/OOMK9nQshqP9gd4g7aPRjP8grax2Ue4ytofmCyMiXQDe1ejKyMOnA/v9qUmL8JySQKXVNO2++Exom1D48tjMeGxnjvaKrKJpOpqiIecYkbptEu+7pIH/uHs9N62rzPtoOkkUuGltJZ+5uYWl5Y68zEGSTMKUbQDFhKLq7O0JZuW3XVnlNoQ0jxhCugBcUm5jjWf6avVM7BpPTlo7IgkC1XYp6577UxwLnanMW80ipU4zlpMip+s6qaSSFtMcCk0em8S9Vy/lH9+yiuZK17kfkCWiKHDd6ko+clVTXoS62CPS4XCSfd1BIhm6Kdw2iRVVLlw240CaLwwhXQDsksgHl3kyesx+f3LK2pE6u4nyHPOkR4KTB11Uem04Tl1Th3gkhabpqBkUxybitJr4yNVL+dPLl0zKvxYKSRS46/w6rlhRmvu1TCJSEU9+Oj4UYVfXzH7cmWgqc9BS5TR2POWR4n2XvMG5e4mb+gxynAFZ43BosujVOyQqchTSg8HJk5tqvDacE3ru49Ekuq6jZZlzvHVdNfdc3EBJDub6oVCSH73cTdfY3FpTXVaJT9/UQq47BNIRaU6XKBihhML21jH6A5kPwmmucLK8gCeDNyNF+jZ54+OQBN6/dO5RqQ68eNZG0gaHOeee+4CsMTLhaFjjteI8bYnRiUdT6Fke7VfXuLnn4nrqfLZZc5bnkju31cS/PHmcm/7fy3ztqVZGwrPPdtV12NTgY2PD9NaquSKJxZsjHQwm+O3BwYxN+E6ridW1Rn403xhCuoDc1eCkyjb3X8ELw5OnRzmk9K6lXPfcHw+dKThVe2w4T0a5ug6xcCKraNRsErhkWQkXNM0uZpGkwo4T47NW2c2SyI1rKxmLpviP37fy5cePTonEZFVjLJKibTjCr3b38ZGf7OPEcPYTqiDtZc2nnSpfKJrOtuOjtGXx+mq8Ni5emnvaw2AyRrZ5AamwmXhrvZP/bQvP6RD6ejBFZ0Rm2YTtnivcZtxmkWQOe+TbIjKXV6bd/hVuC26b+fRyvWRCRsnC+lTusrKluXTWXvXxaIofv9LDt59v59G/uJi1tdNH6CZR4NpVFfxyVx+qpvPQnn7W1nr4wJZGxmMpesfjHBuM8MqJcV4+Mc5gKJmXkXI6xbkAdSyS4mc7ezN+nCgINFc42diQWX7e4NwYQrqAOCWRG6udPNoTY3gOQqjq8Nv+KB9feSbKW+O14DGLjOYgpEcmrIu2mU3U+WyYTAKKmi4yJbKYvF7qtLCxwTvj10MJhZ+/2sv92zoIxGV+vauPtXdM/wEXBYF1dR4aS+10jMaQVZ0fv9JNOCFzfDjKgZ4gXePxvHhHJ6LrelFO/v/17n4O9YUyfpzDYuKqFeVT5s4a5I5xtF9ARAFWec1cXmk79zef5Im+yebrlW4zFVYxJ9/koWBqkmC0VLmwnqyyaKpOIsP2Q0GAcpeZ+hL7jN9zsDfIg6/2MnJyD/tj+wZJzhL5ljjNXNp85kjaNhzlG8+c4NG9A7SPxvIuopBObRSbkvb643z3Dx1ZPbbUaebGtZV5viMDMIR0wamymbiq0o5vjn7Qo2GFjgkmepdZZK3XkpMxfyCuMD7BcN9S6Tw9C1TTtElToOaCKAhUum0zejlPDS05MWGtSV8gwe5ZrDxeu5mLl5acLv7oUBDxnEgxHu2/u62TgWDmlXqAa1ZV0FA68x83g+wxhHSBkQSBi8qsbPDNrYqaUHVeOKt6f3GZLadxbzFVpy18RpyXV7rOCKmartxngigIpwtW06HrkJQ15AkjAHVd53eHhmd8jCQKLK90sazCmdG95IKm6xmvhikkuzr9/HpXX9aP/8CWRsM7WiAMIS0CVnosXFlpwymd+00uazpP9sUmfcDPL7PmJKRJTZ/UKtpU7sBhPlW511Ez3Kqm6zqpWQz8JlGgwm2ZNItUB144NkJsllbUhlI76+vnr1CiqHrBo965Ek+p/Ndz7YzHMp/yBHD1ynLW1xlFpkJhCPXoWcQAACAASURBVGkRIAC31DhZ6bacM9epA+0RmYOBM17KZU4zy13ZFxASqs7xCWZ/SRRYm8OHTtPBH5NnrZxvqPdy0dKSSS2YY1GZV06Mz/iYSreVdbWeedujpKh6wWadZoKq6Ty8t5/dXYGsrGhWSeSvblhegDszOIVRvisSVnstXFtl50goRfwcU+/HUhpbh+Js8FkRhHRx57ZaJ3v82e01T2k6HVGFlKZjOSlsmxu9PHFgMKvrabrOYChBICbPOFN0eaWLP7mskaSssr83SCiuEE4obG8d5ZpV5dMeQU2iwOZGLzeuqSKclLFJJkwnTfM6aX+lrGiEEgrBuMxwKMlYDrveZU1DydMw61w4MRzl4T39jERmb0SYiS3NpVzYVJLnuzKYiCGkRYIgwN2NTh7rjdAamX0IRUTW2DWeZDylUnYyF3lrrYOvvu4nGxOUpsNgXKUvprDUlT5uX3gOI/25CMRkDg+EuXx52bRfFwS4blUFNV4br3b6GQkmSaoaK6td6UL5DKH5pgYvn79jJbaT66NNoohVEtFJpxMSsspoJMVQKEn7SIwd7eO82DqWVYGmGCLSQEzmoT397OkKZmUgcFhMvH9LY9F2aL1RMIS0iFjuNnNng4uvH5l9EIUGtIVlDgVSXFWVrsK2eCyscJs5Es4uhzaW0mgLy6eFdF2dF7tZJJ7lbqThcJJX2sa5dFnpjBOURDHtD11X50HX091JojB7N5HTKk2aBXAKAQGbOb2szuewsLzSxZbmMm5aW8mLbWP8YHsXu7oCGeU8k4o2a6630Kiazqsd4/x6d1/GE55OcUVLGRc2lWDUmAqLkSMtIgRB4IPL3JRazv1r6YoqvDqWQD4pDCYBbqixI2Rp2BlPqbRHz4iw2yaxLoc8aSylsqN9nPaRubUxCgJYJBHJJORlluipa1Z6rLxlYzX//LY1XNY8s6hPR0JWSS6gkA4GE9z3h056/JnPG4X07/Dtm2spM/rqC44hpEVGtV3iI8tn7gg6RULTeXUsSWf0TKTytvrsrUGhlEZ7WD4tzMAkA3ym6Drs6grwzOFh5AXOM1pMIhvqvfzLXWtpKnPM+XHxBRRSVdP5/vYuXj4xnnVPwJUtZVzQ5DOO9fOAIaRFyEdavFTPYarTbn+SoxO6kpa6LWz0WbOKSjWgL64yNGHX/dUrynOKDmMplZ/u7GFnuz8vve+5IAjprZmfu3XFnIc+J2Rt1m6rQqHrsK11lO+80JG1/arCbeW29dU0lM79D4dB9hhCWoQ4JYGPr/Ce0xvqT2m8OBLHf/LDbjMJ3FLrQM9S/rpjyqQVzZsbfXgdmU3yP5vWoSj/8UwbB3pCRdFtedvGai5vmVukvVBH+yMDIf7iZweyLnRJosDly8u4cmW5kRudJwwhLUJEAW6vc7BpDt1Ozw/G6Tm5SM8iClxeYZtzu+nZ9EQVuiYs5bOZTVyQB9vMi61jfP6xIzx/dIRklsWrfCEKAp+4tnlO4/GiSXXWBoFC0DUW4/OPHWX4HDNXZ6PGa+Ntm2uo8ljzeGcGs2EIaZFSZZN49xIX7nN0O3VEFbYNx1G0dBxa7zBzXml2H6CgrHEiIhM7GYWJImxZlp/Zla+0j/OZXx/i/z3Typ7uQF4ivZSiMRhMMBpJZeT3vHhZKc0V5z7yhhPKvAppICZz3wsd7GifuSnhXJhNItesquCKFdPbzgwKg2F/KlKsJoErK+1cWm7j94MzV2014GedYd7T5KHUKlBhM3F5uY0XhuJkKlU66ZmnY0kNpyQiCAIXNPkwm4RJffHZ0j0e59tbO3jmyAjr6zyct8THiioXlR4r7pOWJk2HaFIhEJOp9Fip9dlm7A+PJBU+9sB+TIJAidPM6hoPN6+roqXSOWt13mwSuGF1Ja1Ds09RiqVUIgkFXdcRCnxGTsgqv9rVx2P7BnL6I1PjtfJnVywxRuXNM8ZPu4hZ4pK4rS7dsTTbvNHWiMIT/VHev9SNzSSwqcTKEqdERzRz7+GRYIqxlEqjU0IAan02WipdHB4I5/BKzpBQNA70hjgyEObJQ0M4LRIWSTwjfDqouo6sarxlQzWfubllWt8ogMduZiSc4shAGFGAZw6P8NDuPr5wxyquXVUx64COLcvL+J8XZhdSTdcJxhVSqo51DnMQskXTdJ49MsL9L3YymkMnFsC9Vy9lRbWxj2m+MY72RYwkCNxQbefC0tlzpZoO3zwaQNPTx/tVXjObS7I73ndGFXqiCqcCUI/dnHOX03TIqo4/KtPrj9M+EqV1KJL+NxyhfSRKz3icJw8NzXq0lkSBt26qBtI/g3BC4ehghM89fJj4OY7kyyuccyrJjcdSBc/rHugL8e9Pt9E1GsupIHfxshL+eMsSY8LTAmAIaZFTY5e4o95F1TnsUB1RhYd7oqcfc1GZLaud9zrw8kiC+Mmco9smcUFTyYJs0+wcjXGof/ZI+Nb11UhnDWNtH41x8BwT5C2SOKe97kPBJPECWqB6xuN89cnjvN4fymn2aZnTzDfesX7Kz8JgfjCEdBFwc42d80qs5xzefH9biPDJ6OmicivLspwI9eJInIic/lhLokBTuYMlC+RHfHzfwKxfbyi1s2malSYd51jdrOs6yhzyvsPh5Dmj22wZi6b4j2fa2Hp0JKfrOCwm/vqmFpor529Wq8FkDCFdBPgsJj7YfO7W0ddDKX7bn45KV3ssbPBaT09zyoTjYZkTE+aT1vnsOY3Vy4VnjwwTm6XP3CKJ3LBm6vqMEvvs/ld/TJ5TpDkcThQkIh2PpvjG0608sCPzJXYTEQW4aW0ld2ysMTqYFhBDSBcJV1baub129ogjoer8oivKYFzFZhK4qcY+p779s1F0eHbwTI98pcfKujoPVmn+3y4DwSQ72v0zft0silyytGTSkOi6Ejsb62dvs93bPftgmFMMBhPEclgsOB2BmMy3nm/nBy91o+W4zGRVtZv3X9pAhdvop19IDCFdJFhEgb9c6aXOPnOuVNPTi+yeHkiL4BWVdlZ6zFn1OT3Vf6bwYZVE1tZ6qPHNfUlfplS4LVy3qmJaE/kvd8+8XkMQ0sJ5avq7w2Li49cspfIcZvStx0bndF/BuMJwOD/rnSFdEPvuHzr4ySs9OY/o89rN3HV+LectKTEKTAuMIaSLiEaXmc+tnb3TaDyl8vRAnN6Ygtss8o4GV0YTj07RGlHY6z/TXbO21k1znvcllTjM3La+iv95z0ae/MQWvvmu9Xz6puV4zioCPX9khOAsm0zLXBYuWVaCxSTywcuWcOfm2llf81g0xYvH5yakmg7to9E55VPPRULW+NHL3fzgpW5CGW5mPRtRENiyrJS7L6jDYTn3XAaDwmL4SIsYRdNQNR2rlP6gCMCdDS4e7Irw4sj0g4o1HXaOJfjDUJz3LHVzV6OLrxwaZyiZmRCoOjzYGT7dJVVfYmdNjZvtrWM5GcbNJpFLm0t514V1XLuqglLX5PUqd51fR38gwbee7zg9NSqSVHnh2Chv3VQz7TVdVokb1layrMLJLeuqzlmN/+4LHYQzOK4fH4oiq9rphYDZkFI0frmrl/967gT+LPcuTWRJmZ2/urGZam/hTgkGc8eISIsUXU/3eocTkwstNpPAZ9b4Zs19jqc0nhyI0RGRsZkEPrrCm9Xx/pHeKJEJhZZLl5VS6c6+f9skCLz4t1fw0L0X8Y4L6ihzTd1R5bJKfPDyJbzj/FqcFhMC6ZFyzx4envV4fV6jj3dcUHdOET0xHOEHL3VldN8nRiI5dXYlZJVH9vbz1SeP50VEPTaJT16/nM2N+ff3GmSHIaRFSkJR6fXHcVgmC4MArPNaec8SF9ZZjq/bhuO8OBwnpem8p8lNzSy51ZkIyjrPD56JfM9v8tFYZs96opCq6+ztDp7z+6o8Nv76puXce81SLm0uZXmlk7GITCSR3ZT4UwwFk3zhN0cJxjO7zrGBSNY990lZ5dG9A3zhsaOMRXLrWoJ0e+s9Fzfwzgvrcr6WQf4whLRIiSVVRsKpafNfPovIXY0uNpbMXKmNKDoPdkXojSmUWU38yTJ3xveg6jqP90VRT0aCpU4LV60oz+mI++CrvbPmO0/RWOrgb29ewX3v28TX37GWv7huaU4Flf5Agv/e2s72trGM6+SBuEzbcCTj54ynVH78Sg+f/82RnJbwTeTmtVV8+qblWeW9DQqHIaRFiK7DscHIrGPQVnos3NXgpNw6869w93iS3/ZFUXW4s95Fc4YGfR3YF0jRNmEP1G0bqk8PGMmGfd0BnjgwOOdWyBqvjS3NZWxpLptTJ9J09PkT3PdCBz9/rZdollamVztmtmBNRyShcP+2Tv7t6Vb80dyP8wAXLS3hM7e04DmHR9Zg/jGEtAjRdJ3tbaOzVsltJoHb65xcUm6bseNJ1tPdTgNxhTqHxB81Zj7MYjip8vTAmS6h5gonFy/LfkZpJKny01d62Ndz7iN+rug6HB+K8JUnjvLAq70EcshPvnJi7qPtAjGZb29t5zt/6MjpOSdSV2LnL69vpqXSGEhSjBhCWoR0jceJpdRzHqFr7BIfXOqhzj5zpNYXV/na4QA2UeD6akfGbaNhWWP7SOL09CmTKPDeixszusZENF1nX0+Qbz1/gq5ztHHmyrbWUT70o738Zv/gnNIJs/FaR4DoHDZ5jkVTfPOZNr67rTMvOVFIF+DuvaqJK1rKjCN9kWIIaRHyi9d6OH/JuSuyAnBNtZ23NzhnbAXVgZ92htk+EmeF28xb6uY29Wji49vCMq+OnSk6Xbe6gubK7HvvFU3n8f2D/OOjR2gfieZ9BUnrUISP/mwff/SdnRwZCOdl+V5cUXmpbfaodCyS4j9+38Z92zqnuC2yxSqJvPfiet59UT12s+EXLVYMIS0yUorG4/sGM1rx8cmVPtZ7Z8+bffnQOIqmc31VutspE3pjCjtGEiROCpIgwMeuWkauwdHvDg3x4Z/s46lDQ4xGUlkvepuIqul89qHX+fXufsjbYuc0r3XOnCftCyT42lPH+d62rry8DkhX6G9eV8VHrllq5EWLHENIi4xdXem5ojUZGK29FpEvbyij3DpzxHI4KPOjjjBrvBaurbLPap06G1mHHWNJjobOHI9v3VBFQ6l9zteYif09QT7847187pHDPLZvgIO9IUbCyRk7iVRNP+0imA6TKHD1qvK8DvCQRIHzGr1smWY9ta7D6/1hPv/oYX7wUlfOvfOnEATY0lzKp29qoc6X+8/ZoLCYPvv5L35xoW/C4Az3b+vAYZG4Y4YunplocEqous4rowmm0yBFh9GkyoVldpa7zLw6nmA0OfcjbyClsdxtZr3XiiQKmE0ioYTCyxkUYWZC0XSODIR59sgwe7uDHB4Ic3QwPej5xEiU9pEoh/pC7OkKsO34KHFZpdZnn1EsPTYzD77am5f1KC6rxG0bqvmH21dx8Vn7qxRNZ9vxUb7yxDGeOzpCPiPg9fUevvLWNayvX5ipWwaZYbSIFhEJWeXltnFu31id1ePfu9Sdtjz1Ty3i6MCJiMIvusJ8apWPqyrsdEZlEnN0A8VUnd8PxLi5xsESpxnJJHLD6kp+8VofPeMz75TKhISssac7wJ7uAKIATquE3WLCYhKRVY2krBFJKdyytoqVVW5qZxii0lLpZHW1m91znPA0E5VuK/dcXM/7L22kvmRyVBhPqTy2b4D7/tDBkTytYTnFkjIH/3TnGs6bQ57coDgwjvZFxNHBCIOhJGtqsotCyiwmPtriZblr+nxaQtV5aiDGjtEE9yx1UTVLKmA6dowmORRIoerp2OtUb3shOLU6ZDiUpNcfZyiUJBCXUVSdVzv9jESmritOKhp7uwP853Pt9PpzE/fGUjufvWUFH71mGfWlk7u5QgmFH77cxdeeauXIQJg8pUQBqPJY+ec7V3Npnra3GswPhpAWEa91+onJ6pxWBU+HKMD5pVY+vNyNYwZz6UBc5WedYayiwDuXZNbtFFN1ft4VPr2GxGs3c93qChpK5jeHNxxOsr8nhKLq6Dp0jkb5n60dvO3bO3nnd1/jm8+25bQXvqXSxX+9ewPvuqiOEsfkMYShuMx/bz3B159uo88fz6uIljkt/NOdq7l2dUXWbbgGC4NxtC8SdOBAb5CErFJxjlmas2E1Cby13slef5JfdEenfNB1YOtwnN/2RfnTZg8/6QgxkJh7rvTJ/jgH/Cm2VNgQBNhQ7+GKFWU8+Gpv3m1MM6Hr8NjefoZCCZ48OMShviD5yE9KJoHzGn187wObpxT7dB38sRR/9/BhHt7Tl5fnm0iZ08LnblvJrRuqMS/EgiyDnDB+Y0VCICbTNZYepuzJcSd5pU3ifUvdbPRZZrAoCfxvW5iOSIqvbCjLaB2JBnzjSIDkSYUud1m5dlUFtfNcWd7WOsa/PdXKob4QuYqaIKSP1H92eRMP33vxFBFNKhq7u/zc/d1XeXhPfm1VAulc7MevXcZd59diMUR0UWL81oqE9pEogZiCxyYh5MG6c1GZjfc1uSmdYZPoYFLlG0eDXFNl58rKzGZavjAc5w9DZ3KQW5rLuHhpyaLcYGmVRM5v9PGlO1bxudtXYj3r5zUeTfHQ7n4+/JN97O+ZfTNpNpQ6Lfz5lU184LJGY0DzIsYQ0iKh1x8nFJfzthfJJAjc1eji7Q3OGXvxnxuM83/tIT7a4qEyg8KTBnzzaIDQyY2lFW4Ld26uocK1uPYGee1m3n5eLf905xru2FQz6Wevk14H/T9bO/in3x7NmzNhIk6LiY9du4wPXrEEV46nEIOFxRDSIqHPHyecUPLSzngKj1nkEyt9XFY+fcSpAf/TGiKQ1Li70ZnRm2GvP8UjPWdGy13ZUsaW5aWLphd8SZmDz97Swt/esoLzmnyT8pKqprOnK8BXnjjKD17qYiScn575iTgsJv7+1pV88HJDRN8IGEJaBOg6DAaTRJMqiTyv/q1zSHx9czm1Mwx29qc0vt0a4oIyGxt8c48ok5rOTzojdJxc2+y0Snz4iibsUvEfT29YW8n33r+J91zcQJ3PNinjqevw0J4+/vLB/Tx1aJhQnnrmJ+KySnz+9lW8b0sDTuM4/4bAENIiIJpU8MdkVF0nKee/9N3iMfPN88qZaXTpoWCKrUMx7mp0zWibOhsdOBpK8fOuyOlq/aZGH+++pD4/N10AXFYTX7pjFd97/2Y2NvqwnyViiZTGZx46xKd+eYhjQ1FSeTwdnMJrN/PlO1Zxz8XGEJI3EoaQFgHhpEL45Ig2RdenNZvnggBcVmHnL1f6ME9z9E5qOluHEsiazmUnbU1zIaroPDsYP71tVBQEPnvLCuoKuLY5UwTSBaVLlpXywJ9dyJ9ftRTHyV1Qp5BVjdf7Qrz9vp388KVuknL+BVQQoNpj5R9vX8ndF9ZPEXGDxY0hpEVAJKkQmTDr8thA5mstzoVDEnjvUje319qntTv1xBS2jyRY77NQbZv7h/xQMMXDPRGCJ8XHY5P47C0rsM/gFphPRAGWlju49+qlfPd9m7i0eXIOV9N1hkNJHtjZyx//cA+7MpyCP/f7EGgqc/A3N7XwrovqpzgDDBY/Rpa7CIinVOITlqsdGwxzeUtZ3p+n3iHx0RYvQwmNnWOTh5vowCujCersEpt9FsaSCVJzaNtJaTpP9Me4tNzGTbUOJEHgtvVVPHVoiN8eHMr7a5grPoeZK1vKePdF9Vy1snyKyV1WNfZ0BXhgZy+/PTiU8+Dn2Vhd4+IT1zVzx8ZqJMMn+obEENIiIKXopCbsit/XW5g1HAKwqdTKx1Z4GTmg0haRJw19i6s6Tw/GuLvBSUNY5kRkboWWrqjCTzrCbPBZaHCacdok/viyJRzqD9E1ln/b0GyYTQIXNpVw1/m13Ly2isppusSiSYWfv9bHL17r5UBvKG/zQ6fj/CU+/u6WFVy5otxo+3wDY/x5LAJkVUOe8GF+8fhYXm1QE5EEgWur7Hx4uQfvNEfM4YTK80NxbqlxIGQwW3PbSILH+2Iouo4oCJy/xMc7L6jHNo8FlcZSO5+6YTlfffsa3ntJw7QiuqcrwF/94iBff7qVvd3BgomoCNyxqYav/dFarlppiOgbHSMiLQJ0QJ/QqD4UTnK4P8zGBm9Bns9mEnh3k4uOqMz/tE7t1jkakim1iLylzslv+ua2Vymu6vzXsSBXV9lZ47XgskncubmGXV0Bnj86ku+XMAmHxcTtG6r54y2NrKl147BKU5o4gzGZn+7s4Wc7emgfjRU0CrVIIu+7pIF7r15KY1n2K1kMFg+GkBYBIkza2a5psPXYaMGEFMApiXxxXRmdUYUnz5pfqgEvjSb5ULObCqvIyBwHQA8lVT762jDPXFOL2SSyvMrFOy+o49hgmL5A4twXyIJ1tW7+4S2ruGpFOSZRmCKgug77egJ8+fGj7Ozw52XY82y4bRL3Xt3En19prAd5M2Ec7YsAURQmC6mu88T+QSIFMINPxGyC719cyWXltinDTXTgh+1hLquwT2uZmon9AZmvHg6Q0nQE0itJblpblbfWV0FIR6Bratx8690beO5vLue6VRVIZ4moqukMBBN889k23nX/a2xvGy+oiAoCNJTY+ftbV/CJ65YbIvomw4hIiwCrJE4Rmr5AnOeOjvDWDFeOZIrNJPCN88r5xK4RdvmTk8buyTrsGE2wwi1xLCSjzFGHvn8ixOYSK7fVObGZTdx79VKODITZ0T6e9UYjQQC3VaKlysUt66p414V1VE2z10rTdQaDSXZ3+rlvWwevdvjJ98i7sxEF2NDg5ZPXLefWDVUFfjaDYsQQ0iLAYTXhOGtoSDAu87uDQ1y5opwSR2Gjm+Vuic+tK+ELB8bZH0hNEruxlIbNJFBimfsRP6rofPNYgFq7ifPLbDSVO/jrG5fzsQf2MxTKvNnAbjFx4RIfV60s58Y1lbRUuabt6ffHZHa2+3l0bz9PHBw8aawvrKw5LCZuWlvJJ65vZl3t1M0G2snim8EbG2P5XRGQlDW2HR+ldTh6+v/TdAglZJrKHKyqdhe06isKAlU2iUqbiSPBFKOpM4Kp6ZDQdOwmAVVjTlGpTrqHP6xobCyx4LOYWFLmwGY2se346LTL+abD5zBz7aoKPnh5Ix+4tJFb1lVR4bFOEaakorGzfZzvv9jF97d3sbPTP+MW0nxS67Pxp5cv4a9uaGFZuXPS1zQ93fX1VH+M9SXWjNIjBosPIyItAnwOCd80UedgMMlv9g2yudFHU4GrvzaTwPU1DuKqzj+/Pk5P7EyDQEJN5ztNQjqpPpe4NKnp/H4wznK3mY+0ePGaRd59UT0dI1G+u62D2SLFcpeF61ZXcNv6atbWuakvsc8Y1b3eF+InO3p4sXWMrrEYSaUwtrGJCAJsqvdy79XLuH5NBW7b5I9RTEmvZPnfEyEG4iqDCZXPrPbhMdpC37AYQloE2C0SlW4rFpM4aVCGqulsPTbCBQd8/MllSwo++Ndxck1JRNb40ut+whN6zhOqjkkgoxxnSNb4vxNhWtxm3lLnxGFJ50uPD0XZemyqJarSbeXdF9dxx8YaGksduG3SjGP5+vxxvre9i4d29zEeledFQAHMJpFrVpXzmZtaWFPrntIxNZ5S+W5riB+0hxlNqumiXUeYoYTKP64rodFpFKHeiBhCWgQIQH2JHbddYiwyefZlNKnyredOsKHOw+UtZQgFzrfZTAJ/utxDWFH50qEz64x15nasP5vhpMo/7B9nmcvMphIrdSV2/v62Fnr9MVqHowjAhnov77+sgXecV3fOYR4j4SQ/fLmb/93WgT9WWFfD2UgmgXuvbuJvbmyZ9j4H4ypfODDGr3uik6L2qKLzUE+UgbjKv2wqY30G4woNFgeCX5mvlWUGs/Fy2xh/86vXaR2efmDJxnov33rPhnS+dB7uR9fhq6/7+U5bkGg2CnoWqz1mHthSRZPLjKxqPP36MHu7A9yxsYa1dR6kWXKIkaRCnz/BY/v6+fmrvfT4C+NJnQmLJLK0zMGX71zNtasqpnw9oeoc8Cf5/IFxdo7PXkxb6pT461U+bqp1UJ7hOmyD4sUQ0iJhOJTkQz/ayyvt4zN+z+ZGL//+jvWsr/fMi5gqGnzt8Dg/7Igwmsx+4LTDJFBpM/HORhefXVsyp8doms5wJMmJ4Shbj43y8O5+enLcVZ8pp5biXbuygk/esJyl5VPz1INxhcf6onz9cICx1NzSCzYR/qjRxbuXuFnns+AxpkEtegwhLRJ0HT7z60M8sLN31oHC5y/x8fe3reDSZWWY52HZXEjW+N+2EN87EWIwMTcxFQCfRWSZy8xyl5nlbjNrvRY2lFios8+eTUoqGu0jUfZ0B3jlxDgvHBvNyjKVKzazifOWeLn7gjpuX1+N96xiYErT2TOW5IGuML/sjp7eqpoJtfb0H5cbaxys91lw5qlpwWD+MYS0iHjywCCf/MVB/LGZR7oJAqyp8fDByxu5c1PNvHTQjCVVftQe5v4TIYamEVNJgEqbiWUuM0tdZpY6JZqcEkucZppcEj6zaYa10GdIyCo72sfZdnyM3V0BDg+ECcZlFuLdWem28q6L6nnb5hpWVrumFJQCKY3H+6L8sD3EwaA8aeBMpphFWO2xcEWFjRtrHFxQasMhGVapxYYhpEVEMCZz63++wvEZ8qSnOHXkfOumGj50RRNLyhwFP+r7kxr/1x7i/rYgFlGg3iHR5JJY6bawwmOhymbCaxbxnPxnm0O0rOk6rUNRnj0yzNZjI3SPxRkMJonneW9VJly2vJS/vK6ZzY2+aS1p/TGV/zoe4LHeKMMJdU5WsLlgNwnU2iXWeM3cWuPkhmobZTajFrxYMIS0yPi3p47z9afb5vS9VklkWYWDj1/XzNs2185asMkHMUUnKGuIQjoKNYsClpP/MnnqQEzm2SPDPLJngIN9IYJxmbisLkj0eYoSu5lP3tDMuy6qx+cwT+tb3edP8um9YxwM9Vo2eAAAIABJREFUpkgWyPBvEtIDZVwSXFHh4LZaB5eU26jIYGuBwfxjCGmRMRZJsfGLz5PMcB7pJctK+NQNLVy2vBTJJBRFW6JOumik6TqhuMLzx0b4zd4BXmwdJ5qaX+vSdAiASRS4tLmUL75lFevqPVN+bjoQVzS+2xriq4f9WVnAcsVhEri1xsEXN5RS5zCi1GLEENIi5MtPHOW/n2/POEIziQIXLvHx7ovrOX9JCWUuCz67GWkeilKQPqonZI1oUiGcUOgPJNjdFeDlE+PsbB8nmlq4I/vZ2Mwmllc6ufuCOt55YR2lzqnezqiicTCQ4j+OBtg6FF8QERUFaHJKfGFdKbfWOgp+6jDIDkNIi5CRcJI7/nsHbRN67zNBFATqSmxc2lzKpctKWVLmoNxlocJlweswTymeZIOm60STKqGETCAq44/JjISTdI7FONwf5mBfiO6xWE6FmEJgEgVaKl1cs6qcey6uZ1W1e8r3qDp0RGSe6Ivy444wnVEl66lVuSAAS5wSn17t465GF1ZDRIsWQ0iLEF2Hn+3o4e8fPTxpKV42iEC1Nz2BqancQZ3PRrnLSqnTQonTjMsqYTebsJnFk2tBdBRNh/T/SCkacVkllkr/CyUU/NEU/qjMWDTFcDhJfyBBnz/OUCiZfmyRsqTMwXWryrljUw0XLy2dNlJPqDq/64/yi+4I20cSeWlGyJZau4lPr/Zx9xIXDmNpXlFjCGmRMhJO8sXfHOWXu/ryel1RALvZhMduxmNPi+ipeagWSTyd1zz1ppBVjaSskVA0ErJKNKUSjk9eH13seO1mrl9dwZ2ba7i0uRTvNJYxXYfd4wl+2hlh61Cc7nluPz2bErPIlzaUcleDE4fhLy16DCEtUjRd57UOP3//yGEO9E7dq2RwbiRRYEtzGR/Y0sBFy0qocFn/f3vnHR9Hee3938xsr9KqN6tYlnu3sbGDsR2KMYSeixNaCCmQGyAQckm5SSA3IS83eZNAEghOIPACoTk4EDAGU9ywDe7dliyrWX210mqrdndm3j9Wu5qZndmd8cqV55uPIqzdmZ2d8nvOc855zpEtgtI7xOLFJh9eb/Wjwae+gPWpIt9I4w+z8vHFYouqNDLCmYcI6VlMjOPxxq4O/PLto+j0nt715ec6tYVWPHBZLZZNLoLFwMgKaITjsbE7hN8eGcDegXhK05l+GMrMDJ6ak48FhRYQDT13ILkUZzE6msK1M0qGa3g2w3eKezidy9AUYNAxGF9sw7cuqsQNs8sUS/BFOB6tgRj+91A/3mwPInIW+HVpChhv1+N3s/JxQV5qDy3C2Q0R0rMcg47G3YurMRiO4R+fnjinfJOnA5qiUGA3YEKxHTfOLsWyqUXIUVg2G4zxaA1G8UZbAM80DsKjssjIqcZIU5ibZ8QPJ+USET1HIUJ6DuAw6/HQsnFgaAovfdqGwRARU5OeRk2+FZNL7bh0UiEuHp8vmwsKxCPxx3xRfNgVxMstfhz1KdcyON1YGArLSy34bp0T03KNpHHeOQrxkZ5D+Idi+H9b2/DMpma0ek5vSbmzBadZj2nlDiyszcOFNS7MHONULAbN8sDhwQjWdQaxriuIPf0RhE5DLye15OhpfHOsAzdX21BJKuef0xAhPceIxDi8f7AHT21owvam/jMeHDldFDmMuHRSIRaNy8OkUgeq8iwwpqnjeXgwgjfaAtjQE8IRbxS+09SKRC11dj1+OCkXlxSbYSf1SM95iJCeg0RZDvXdATyzqRlv7O5AIIuiy2czNEVhRoUTV04vwpK6fJTmmJFj0SsGkXgeqPdF8P+O+7CuO4SOUOyMJtTLwQC4rMSC70/IwQyXkUTmzxOIkJ6j8IjX8Fx3qAe/fqcejb2B88Y6LXIYsXxKEb4yrxx1xXYYdXTaNeYcDwRjHN5qD+C3hwfQFoyd8VxQOQqMDO4b78RXq2zIMTDEH3oeQYT0PMAbiuKvm5rxwtY29AeiCEfZc0JUKQB6HQ2TLr489eK6fFw7sxgXjs1LaXEsJcrxCMR4HPIO4ZnGQXzUHcK0HCPq7Hqs7QyiK8yeNWJqZihMdhjw48m5WFxsJgJ6HkKE9DyiZ3AIL392AusO9aDVE4LbP4ToWRRcAeJFQ3IseuRa9CiyGzG13ImFtfHiKtJ2HlI4Pt76pD0Yw2d9YbzRFsAn7hB4gTTZdRSm5RjRFYqhPcye0SR7E0OhxqbH9eUW3F7jIM3uzmOIkJ5n8DzQ4wvjk2MebG30oKHHjyZ3EJ0D4TMiKHqGhsuqR6HdiGKnCRUuMyYW2zGp1I7xxTbZde9SohyP4/4oDnkj2OEZwsfdITT4Ykh36+boaTAU0B/hRq2KvVp0FDDWpsfSIjNurrZjspO0Xz7fIUJ6HhOOsmjpC+Folw8N3QEcdwfQ5A6ipS8ITyAy6pWaaAoosBtR5DCiNMeM0hwTKnLjv8tyzCh3mVHiNKouOh1ieWzoDmGrO4x9AxEc9A7BPcRpGhAo4LQNIAwFVFv1uKTYjEuLLZifbyQFRz4nkIT88xiTPr5kcnyxDTGWQ18gArc/XgLP7Y+grT+E9v4QenxD6PVH4A1E4R+KITDEYigm9rPqaAp6hobZwMBu0sFp1sFp1sNlNaDYYUSR04QiuxE5Fj3sw685zXo4TDrFKHsmdFTcv9gUiGK75+RK2p0uES0zM7ihwoZlJRZMcBqQY6CJL/RzBLFIP6dwPI+hGIfI8E+Ujdch5TgeLB9vDyJUIYqiQFHxlCQdTYGhKeiY+H8bdDQMDA09Q2O0O5xEOR79EQ5N/ijePBHA2x0BnAieHcE0PQ3MzjXihjFWLCm0oMDEwK4nAvp5hAgp4ZyB4+PtPz7tC2NVqx9vtwcROAPBtHwDjWvLrbit2o7xTgP0NEXE83MOEVLCOUsgyuETdxhb3WF81hdGcyCGMMsjwsUrPEW5k4/Y6yjAyMQ7pBppCmVmHRYVmrCkyIxZLiOsxPdJEECElHBeEON5tAdjOOSN4LgvhqZgFM3+GHwxDkMcjwiL+O/hrqYJKFDQ0/EKTAYmLppWXbzHfK1dj1qbHhMceoy1G8gqJIIiREgJ5y0xjod7iMNglMVgjMdghIM/xoka8jEUYNHRcOhp2HUUHHoGeUaaRNsJmiBCSiAQCFlChl0CgUDIEiKkBAKBkCVESAkEAiFLiJASCARClpAlooTzBx6QzRxViKfyyf/LjOKKLYUXqNFe4kU4qyFCSjgj8DwPnuPivxM/HAfww0VJhv8W/z0skLzg70hsh6RQJv4u91ny+qo+YUVWGCklwaRG/j78m6apxAbJ1xLLbkFRoJKvDf+bokHRw7+Ht6FoMoE8WyFCSjhlcCyLWDQKNhoFx7Jg2Rh4lgPHccMiKhZScDx4cHHLMiGSwwIaF1JeIIp8/H8CIT0rSQgplRDShPgOC2pSb4eFdHibESGlkq/RNA2aZkDRNGiGAaNjQOv00On1YBgmjdlMONUQISWMPjyPkN8Pn6cPHMuC47i4CAos0M8Nw9+VG6XvnBTcYQuVpmlQFA2L0wFbrou4FM4QREgJow9FwWi1gtHrEYtEEBkKg41GwUZjYGNRcLFYXFwJmqAoCoxOB1qnB6NjwOj10BuN0BtN0BsMRETPIGRlE+HMwPNgWRY8x4JjOXAcCy7GgeM5gGPB8/GSfjwfn+qL3AEJy3b49cTvsw2KogEK8ek4BVA0HfdzUglLcvhvwqk8TYGimeQ0nmbiPxQTtzyJVJ6dEIuUcGYYtq7ILUg4HyBhQAKBQMgSIqQEAoGQJURICQQCIUuIkBIIBEKWECElEAiELCFCSiAQCFlChJRAIBCyhAgpgUAgZAkRUgKBQMgSIqQEAoGQJURICQQCIUuIkBIIBEKWECElEAiELCFCSiAQCFlCapidJbQPhLH2QDc2HHXjQPsg3IEIQhEWAOAw6TC5zIF7ltbgkomFKR0lWI7HgfZBvL2vC580etDaF4TbHwHL8aApCoUOIy6ZWIAHLq1Fhct8Br4dgXDyZHo2plc48b1LanHRuLwz1m2FFHY+wxxoH8S9L+/DwQ5fxnYUDE3h+5fV4geXjwMQF9AXtrXhsXfr4fZHMn5WZZ4Fr3xrLmoLraNy7ATCqWRPmxcPvLpf1bNh0NH47Zen4CsXlJ+moxNDpvZnkC5vGN94fjf2tw+q6unDcjxe39GO9oEwAODFbW14aNVBVSIKAC19QTz+YWNWx0wgnA7qu/247Zmdqp+NSIzDXzY0qX4WRpvTNrU/0D6IP350HLtaBzAUVdcWwmHW4ZKJhXjgslo4TMqH2uQO4tE1R7G5oQ9Rlkd1vgX/tWyc7DT4bMJh1mNiiR2NvQHV27j9EbT0BVGWY8KUMgeKHEZ0esOqt2/sDcAXjsGe5nwS5BkMx/DEB4348Egv+kbhga0rsqEkx4T51blYPKEAZTmmUTjK84MihxGTy+ya7u2BYDQ55T/dnJapvS8cw00rt2N7U7/mbQ06Gs9+bRYun1yY8hrPA89sbsYv3j6acgIZmsL3LhmLh5bVndViGolx+PaLe/D23i5V73dZDXjt23MxvcIJADjU4cMtf9uBtv6Qqu2vmFKE578++6w+J2crj61twG/fazgl+6YpChNL7PjJlXVnvQFwughGWPznS3vx9j51z0Zpjglv33PhGYkDnJapvVFPo/Ikv9xF4/Iwtyon5e+RGIfvv74fP1l9WHYUYjkez25uwe62gZP63NOFQUdjWplD9fuLnUaU5Y6cy7JcEwodRtXbjy+2kYf0JKnJt8CgOzWPDMfzONgxiFv+thNff34XBsOxU/I55xIWA6PJn1+Tb0W+zXAKj0iZ0yKkBobGNxdVIdeiV7+NjsYvrpmIl74xBy6r+OR4AhHc9uxOvLC1La3/pD8YxSfHPCd93KeDCMthZ4t6sb+wxiW6Wbq8Q2jzqLNGLQYGC2vzNB8jIc6V04oxuzJ1UB9NOJ7H23u78OBrBxCJnX2dUU8nEZbDvhODqt8/pyoHZgNzCo9ImdMWbCrPNWuynO6+uBp3XVwNhhabT83uIK578lN8eLhX1X4GQ1FNx3m66RwI40C7uptFz1C4qE4shNuOe1Q72KvyLZiiwfoliLEYGIwrtKl+/0Xj8rD9J4ux66dL8NzXZ2FRXR5oldOBN/d04uXPTpzsoZ4XNLuDONzpU/Veu0mHJRMKTvERKXPahLRzIIxen7oH3mU14EvTi1OmoHvbvLj+yU9xqEPdyQUAHXN2JybsbfOixzek6r1jXBbMHjNiEfE8sL7erSqqCaRaswRthCIsjmsIDC6ZUICqfAsqXGZcObUYL9w5B/NqclVty/E8/rW784wFT84G9rZ50T2o7tmozLNgQrH6QW60OW2h252tA/AE1Alpdb4FVfkW0d/e2d+F+1/Zj/6gegtTz1CYUmZXfN0TiOCjI25sqI8n+kojsXk2A6aUOU4qqtrjG8I/d3bgw8O9qO/2A4hnIUwvd+KKKUW4bHIhDDoa6w73IsqqE8KJpXYUOUaOocMbxsGTtGZDERYbG/qwsd6dHOCmljtw5dQi1BRozzPleaDTG8aulgEc6w2kDHYFdgOmlTsxrdyBuiJbykxDDaEIi8NdPuxp82J3qzeZ/TFzjBM3zC5FoV084xkMx/D+wR5sqHdjKMqhMs+Ma2aUYHKp46T8xK2eUPJaZsJu0qW4ASwGBnMqc7C1UZ276bg7ALc/kjZ4kjgnB9oHse/EIAZDI75VHUNhapkDNQVWzK/JhdOs3rWWQHhd957woqUv7kZymHW4enoJFta6FK9l+0AY64/0YltTP4aiHBxmHZZMyMfS8QUZp+A8D2zQYCTMq85NcQEC8efw33u7sLNlADGWR4HdgCunFWNede5J3YNKnBYh5XlgU0Of6vfPqHAmLzrPA3/d1IxH/n1Es89ofo0LS8aLzf3EsTz81uGMib6d3vi0+5XPTqiOqja5g/jF20fw7v5usBwv2R9wtMuP13a0o9hpwg8ur8XeNq+q70JTFJZPKRJ97p62AZxQGa0vzzVjRkUO+oNR/OzNw3hjV0fK+Vy9uwO/fPsolk8rwuMrpqVNOUvQ4xvCb9Y2YNXODviH1AVIDDoaF9fl44HLajF7TE5aUWM5Hm/u6cSfPjqOQ52+lHOaOO5fv1uPBy6txX1fHAuO5/HM5hb8ek19yjE98eFxXDKpAH/8yjTZBy8d+054VbtRKlxm1BWlWkitKv3Z6WA5Hu8f6sFj7zbgcGf6e/j1He2iY7p1fgXuvKgq47Vt84Twu3XH8M6+LkXj5fktrZhW7sQzt89MGj48D3xwuAe/eqde9tie39KKHIseP7tqAm6ZX6F47bsHw9jRrC52IOfyGgzH8JPVh/D6jvaUe2blxmZU51vw19tmJrNfsuW0CGn3YBiHVU7HhSclEuPwi7eP4q8bm1MuiN2kw2++PAXhCIsfrT6UMgWaVGrH7/5jKiyCka/JHcRDqw5gQ32f6pEuQSKqeuszO3HP0hr88Iq6lBHt3QPduP/V/apyDLu8YXz/tQOqPz/fFrfohKw90KPamp1c5kBrXxDffmFP2ty8RLCj1zeEl74xJ60V88auDjz4+gH4NEaYIzEO6w714MPDvVg6MR9PrJiGAnuq/9wbiuL2Z3fhk2OZB+FQhMXv1x3DpBI7tjf344kPj8teY47n8f7BHnzj+d148RtzRPdHJjY2qL9vppU7U9wobn8EDT3qLFoAYCgKtOQe8wQi+M5Le1XHCIS0eUJ4dE09nlzfhP9zw2RcP7NUVshW7ezAA6/tV+VW2HfCix+tPojn75gNAHh0TT3+sqFJdsBLMBCM4odvHISOoRRXIu1sHUCrJ6jqe0ldXp5ABHf8fRe2pLH8m9xB3Pn87lFb6XdaHIgHO3zJ1TiZKLQbMaXUgcFwDN9+cY+siFbkmrH6O/Nww6xS3Dy/Au/ceyFumV+B8cU2XFyXj/+9cQrevW+ByD3w7oFuXPH4Fnx8VHm6wNAUDBl8qizH44kPj+PPHx8X/f2Vz07g2y/sGZVEbTmmlDlQXTDyfdz+CPadUG/N5lsNuP3ZnaoTnLc3DeD5La2Kr39wuBf3v7o/rYjeMKsU/7mkBjkK2Rocz+ODQ724+k/bcKwn1feoZSoNxPMOf7DqAJ5c35RR8LYd9+CDQz2q9631fC8al5odcaB9EM1udeIAAOOKbCiwj4hxJMbhP/+RXkSLnSb891XjMa8mVzGwNRCM4j9f2ovH1tZD7jR9cqxPk292V4sXe9u8+OEbB/HU+vQiKvwuv33/mKLPeVN9n2ojYU5VTtLlxfPAb947llZEE4zmSr/TIqTbjnsQjqq7MOOL7eB4YMXK7Xh7b1fKAzG3Ohdv3TNfZJJPLXPg9zdNxeaHFmHV3RfgjoVjRJbGO/u7cN/L+9KKXK5Fj5e/NRev331BxlU/HM/jxW1tycFhU0MffvamfD6rEJqisKguD49eNyntjS7HF8bliURe60P54rY2Tf5ljufx8RG37HeKsBye+6QFwQzfV6+j8fDVE/DM7bPSntNjPQH8n3frEWHFroapZQ785suTNaXNdQyEVbmAoiyPt1QuggDiSxbVppnJzR4iMQ7Pb23NeM4S0BSF5VOLRNd8S6MHWzKk80ViHBbX5eONu+dh+bQixfexHI+VG5ux9Xjq/h65ZiKWT1XeVkqU5fDclla8tO2Epplea18Q6+vdKX/3BCL4VOXiHZqicHFdftKy3nrcg1e3q892ONLpw4CG50LxOLLeQwZCEVa1rwOI+3Fuevoz2VVQNEXhjgVjUJ6rPrn/WE8AP3/zSEYRuX3BGCwZn4+KXLOq5ZMn+kPY0zaAZncQ338tcxCMpijc+8UarLprHr65qAq/uGYinGZ1npVcix4La12iv31yrE/1Q8nxPGIqrAQpiWCHlFCEVeUrLBie2k4osaE0Q6Bu43DAT8qVU4tx+RT1D7UW1FhOCXa2DKh2YdQV2TBGECDieeC5La14/6B6C3hudQ6unVki+pvbH8l4zY06Gk6zHgYdjQtrXGnf6wvH8I9P21KsUodJhwcurVXtQ/aFY3htR7tmdxkA7G5NtfKPdPnR0qfOSChyGJNGVYTl8OzmFk2uJl84ptrIS8cp95FqmZ7RFIWXtrUpPvQcz2PNgW7cOLtMVdQ1EuPwqzVHM16U6nwLvrawEgDQ1h9SdSGiLI9ghMPTG5vRpMIyXFjrwv2X1iaP+5NjHtUWYk2BFWMFkfRghFU9Yp8KzAYmYxqVxcBgUV0+AGAoymU8p4nFE7PGiCPdEZZDj8oUGADIsegxtcyBT5v6Ry2hPcJy2KwhWGoy0Fi9uxNA3M/76vb2jEEhIbWFVvzhpmkp/ul8mwEWA5NWTKeVO1CaGx+0elWk1e1oHkD3YBjFTvFAp0a0RwO/zH3x6XGPajGcWGJPuvCaeoOijIhCuxEMTaV1Z5U4TSeVzSDllFukWiKdaiyn3S3qndBbGj34SIVTfqkgtelIl0/1RWztC2L17o6M77MYGHxnSU3S3RCKsKqOK8FF4/JEF7uh24+jXep9hyVOE5792iwc/p9LcPWMkswbDCMX7ADiK9XuXlyNPAUxpSkK31pUhYuHhbS+2w9PIPOgIbd4onMgjKNd6gOV//fLU/DPu+fh7ourM75fbZBByzEAwAeHenHfK/tw3yv78LM3D+Ngh7oKRgxNYcXccqy5b4HssS0Y68LyqUWKLqHKPAsevnoiDAytelVQKMrK+iK1uONoisJV04qx5+dL8cEDC1GhYcZYLUlzDEVYbKxXP2gJXV5r9nclc7JpisJ/LRuHm+aWpT3uJRPyR2U11Cm1SLXmgqmh0zuEz5r6UZlnSfs+ngdW7WzPOKqa9AwunRQviJKIJqvBZTWgoduvKri0oNYlCj5osdJNegbzJVO0jQ19qnNycy16/Pnm6bho+POvmFKEt/Z0qtq2Ms8Cl4J/cmFtHtbdvxBPrj+ODw73oj8QhZ6hMK7IllKA+uOj7pOePn3W1I9OrzqLdFyRDQtq48V9vzqvHKv3dKJVYTaSZzNg+dRiVfvVsmjiZMi16HHltGLcs7QmbQ6vQUfjT1+djksnFeK5La043htAYIhFvt2AyyYV4sHLxyX9yVpWBUnxhqKa0hWXTyvC07fMgEFHo9QZr0qmpohOIqVQSH23H4dUHrfLakg+V8d6Anjp0xHfaInTiMXj88HzwJr93SnPG01RuH5WCe5SMeCq4ZQKqZZcMLWond63eoKqpmNlOSZMLo1fzH/u6lA9Gk4us2O3ihxQmqKwbHKRqNjFJ419qh/MmgKLKLCmdZp52eRCfGF4fT3PA+uPqreEl05Mnzhd4TLj19dPxq/T7MMTiKhKXwJSV6FpHYiFKUc1BVY8eFktHnw9dc26QRe3qGeOUZdDqGXRhFYq8yz48fI6XDOjRFWCOENTuH5WKa6fVZr2fVsbPapWBcnNOhp7A6pXcOVa9LhnaU3y/m7o8WOPytxouaCcloU73lAUN/9tB2iKQl8gIrrOF4/PxxiXBRQFvH3vhXhmUzPe2d8NbzCK6RVO3LGwclQr6p9SIdWS9qSFnc0DaOjxyyY8JzjQMahKrMa4zDgxEMYfPmjEPz47ocqvlmcz4NKJhXh0TX3G9yZGxgRaFydI8xG1WBomPYPrBLmCagcXQD7ABcSP/2DHIF7+7AR2t3lxQhDJriuyoSrfgjlVOVhQ40KFy4LNDX2qpsVyq9C0JmVfOlG8+GLF3HLEWB7/+14DurxhMDSFSSV2/Gh5fFGFGrSkPZ0MLcO5vX/b3IKVt85QDKQOhmP4955OfHTUjX0nRlZ1Ocw6jC+2Y2qZA7MrczCnMgc84kaBmgFIbtahxX8/udSBicUj123zsT7VKXbSlL4Iy2lyebEcLztY6BkKHQNh/Pe/DmH51CLMrcrFg5ePw4PDnSVOBadUSLX4WbTQPTiErY2e9ELa7lNlRXx81I2Pj6amYCiRWBGx9mCPqu82vtiOEkHEutUTxG6V1Z7kxEHL+mOpNbv+qFv1NFka4OJ5YO3Bbvz8zcOKwbVObxgb6pHMP8216GEz6lRdh0T+sBCt+cfSVSoUBdx6YQVuvbBC1T7k0JL2lGvR48lbZmD88H15tNuPX759FAc7Mvsqtzf141sv7MGLd84WRcvTrUQDRlbLJdw1DE1hjMus+h6RVkzSOuMRzlqCERb/2q3ObQSkpvRpKeCTjijLY/1RN9YfdWPlxmZVK6my5ZQFm7SmPdlNOiwYmz5dIwHH81h3qCcl71BIg4ZE7kwwdHzN8tO3zsDWH12MaeVO1WvcJ5faRTeLFn+bVByymeqGhm9ytdsKA1w8Dzy2th53/H2XqgyFBP3BqOqC01PKHKIBBwDWHVI3WAHAzMocjHGl95ufDFrSnmoKrJhblYMKlxkVLjMumViAlbfNQIlTXY2G7U39okUQx3oCWP74FryicqYExK20JndQVcRdrqxiU29QtZhJ6wnsafOq3lbo30yg5dkw6GiUOE2qljEnVlK9oiG/VCunzCLVElCxGBisvG0mLAYGt/xth6obd9+JeEK6nFUaYTOn2yT42oIxMOjolMpUDrMO08odmFrmjIuhwMfpDUVVX/BJEitLi79NKi5ap7rLpoxMXw93+VRZRkBqgOuV7Sfwx4+Oa8q71MrSiQWiAUdrUvZiQVL2aKHVOpNmVwDxPMfSHJPq6e7G+j7cdXE1QlEW976yT3bF12ghV1ZRS1nGuiJbMr4AxIM6ap+78cU2jJM8u1qejetnleKPX5kGbyiKm57enrGmbyTGYeXGZlw+uVBzjQU1nDIh1ZL2VJVvwYxhy6vCZVZVJi/d9D4UYeFVWYd0YqkdXx/OIVVLKMKqWg1hM+pQ7BxZQ97lDWtqtyIVFy1T3USRkgRv7OrUkLc64hI43hvAb98/psoiKnGa8OQt0/GF2jxEWA5f//sRi/3lAAAgAElEQVQuvKciCd1lNYjWSgPakrLzbYaUzIbRQEvak1x2BRC35rUMQJ3eMLyhKJ7Z3KLqXqEpCl+dV45fXTcJFgOD9UfduP3ZnaosUqn/XWtZRmFxoS5vWNOS23nVuaLVh1p80UIjQcv59QQiCAyxcJ2CJrqnbGp/MgUe8m2GjKsxEqSb3jtM+pSSakp8dLg3rYtAjijLI6RiyklREOX8aRFCOXHRMtWdXOZA6fCU0u2PYFODej+w8AFbX+9WTCESomco/Hh5XTJDoKk3KLtqRQ4560RLUrZ0JdFooTZgCYizP4S09AU1VXyym3QIRFi8r1KUZo5x4uGrJyRFae2BblUiKud/11KWUZg2CMTT1NTmd8sVYd7b5sXxXnXbC/3px90B1QPuqeSUCGk2BR4uqsuDnlE3R0tM76VQFOBUuT7746NuPPFBo+KoFolx+OhIL27+2w5c+cRWTfmEPA/RYKIln3JSiV1kbWcz1f20yaPaZywd7dcfUSfABXajyN/2/qEe1edKap1oTcrOlKZ1smgpnCGtFZtAS84vEB9A2zwhtPapE1+hO6HLG8Z6lYFTueCclrKMwoGD54HVezpVnyu5EoNang2hP/zd/d2qZ1oTiu0ocqrv0qGFUzK1z6bAw5RSBwrtRlWWW7rp/ZzKHLy2PfP630iMw2NrG/DM5hYsqsvHvJpcmHQMDnYMYkujB/Xd/uS0dlKpHTRFwWHWocRpQkeGY/QPxbC9qR9fqM1DQ48fa1R2QwTi0VSTnkm2Ts5mqqtFEIQugcGwel+wcIrV6Q1j1c72DFvESUyJWY4Hy/Ew6GhNSdlKaVrZ4g1FVedDKvloPYEI3tiVeeWbkPk1uXD7I6pruybOOc8Db+3tUh0MTGSTDMU4GBgaFKWtLKOw4pKWMplAaqcGbyiKHc3ajQRPIIIPNKRLTSt3ZKzudrKcEiHNpsDDGJcFMytz0D6QWXQ4nsc/d3Xgy3PKUupKXjjWpannu9sfv+nT3fhTyxzIsxpAUfFVNGqa1j22tgFv7e1Clzes2mcMAIOhGB7/sBEfHu7Fi9+YrWmqK8zP43lkFHwhTrMeFICHVh3El6YXw6xXZ+l1esO4/9X9mD/WhX982qb6M1mOw+FOH/65qwMxlsfK22ZoSsqWpmmNFs3uoGpRkvPR8jzw1PomTW1x8mwGLB5fgA5vCHqGUiVqz21pBUNTaOgOYO3BbtXuNE8ggjd2duDPHx/H7/5jKqoLrJpmkcKKS22ekKZ7u67YhsOdPjz3SSsevnqCpgUAwnPd5glpurfHFljxybE+rNrZgcdunDyqojrqQhqMsKqXWQJxH49wWkZR8emK2j7vO1sG8NGRXlw1Tbzcr67IhpvmluEPH4xOvcE8mwF3fqEqefPcMKsUb+3pzOiPYjn+pHLjnv2kBQAwuzIHoQirKddVmJ+nxaoE4iks0x/5CHqGwqLxeRhfbMNmlSuTNh/rU/3eBFGWxyP/PgIAuGZGCSIsh/cOqL9/hAGP0eSjI72qxVxoDLAcj/puP36/rhFv7lGfbgYA180sxYwKJywGBrkWg6rr5gvHTuoe39PmxT0v70ueOy0+SmHFJQCIcrym7/nQqoMA4vd2hOWw4ahb9fRceK4DERZRDfGNe17eByBeinMoyp29QhqJcXh0TT0+Pa4+Mt3jGwLPQzQtWjg2D4V2o6obKRLj8PBbRzC2wJqybvfuxdX4pNGjKVIuh0FH4+dfmiBaUrhgrAsLal344JD2SuVauGhcHg50+FS3JAEgylt0mvUozzVravkMAPk2I8YV2mA16PDyZyc0VwJSa1ElMOhoXDuzBNsa+7Fd5TTvVPHO/i48tb5J9fs3H+vDmIfey+oz51bn4geXx6uDVRdYMHOMU1XGgxAdTYGT+OUzMa3cgXFFNtz/2n7VPspcq16UQpRnNcA87IbSQm2hFeEohzf3qHd55Vj0ScOrLCeeR6r1c8cWWFWVytTCqElyszuIKx7fiqc3ZK5OLuT9gz34TCJ01QUWXKgyOR+IR0ZvfWZnSs6dy2rAi3fOxhcnnnybVrOBwSNXT8CKueKWCAYdjf+5ZlLG4inC9z94+biUajfpmFOdi1yLHne/uEeTkD37SYvImrp2ZokoDzYTNEXhprllGFdow4Jal6YivwDwxYkFeHzFNNVtPGiKwnUzS8AD+O4/9mp6MF7Y1qa6KnsmIjEOP3j9AO58bremItjZMr/GhefvmJUUJwND456lYzUVtLabdPj9iqlYOjE/85uHybMZ8N0lNfjx6kNYs69b9XbHegJ4d393so6p1uc18dkXjcvHTU9vV53fDMTr8CaWWI9xWXDxePXfN/G5WtMd1cD88GcPPzwaO/rpm4dPqo9MOMqh0GFM1q4E4iuJJpU68MHhXtX5oN5QFBNL7Ml81ARmQ3y9eZHThN2tA5oEaXKpA89/fTaWT01tDQ3EhXrJhHxsPe5J22rabGDw8Jcm4J6lYzGjwomPj7jTBhNoisKlkwuxcGweHl1TryrVSkjHQBgDwSiWDRdErsqzoGswjAPtPmSSG5qicPP8cvz8SxOgYygwNIWlEwrQ5gnhaJc/7fYMTeHW+WPw+IppmF7uhNWow+ZjfWlFjqEp3L24GhOK7bjv5fStS+RgOR4b6vvA0JTqlXFKrD3YjV+9c/SkimCfDBUuMx65eiJ+dd0k2CQWUnmuGVPLnfjoSG/GzgsVLjNW3jYTy6cWY36NC5819aMrw1Lg6nwL/vTV6Xjk30ew/qg7430hhOV4fHLMg9lVOajMsySf1w31blXlEvNsBnzvkrH437UNaNaYuhSOctjd6sWXphfDZtRhXnUudrUMqFpBZzfp8NgNk7F0wskbVkqMmpD6wjFsrO/TlJNJUxTGFlpx7xfHplRQd1kNuHRSIVo9QXR4w4ilmSYadDQW1rrwrUXVsv2BaIrCjAonvrWoClPLHAhFWfQHo7ICVWA34oopRXjiK9Pw0LK6jMv78qwG3DS3HEUOIxp7AxgMxZI3pdnA4IZZpXj2a7OwZEIBKAooyzXj5vkVMOtpNPYGRYKaqGr+u5um4v5LauEJRrC5QX0l/MR3HVtoxXcWV6M6Px6EYWgKl0wsRKHDqDiY0BSFKWUOPHnzDHzzoiroBCloeoaOt7CtcaFjIIyuwSGROOZa9LhxdhlW3joDKy4oh344Cjy7MgeXTS5EXyCCtv6Q6BqaDQyWTSnCU7fMwE1zyxCMsNhY79YspABQ5DThprllaWsvqIGmKGxq6NMUOFGL2cCgwGbE7Moc3L5gDH59wyT86IrxmF7hVKwvWpVvwc3zK8DQFJr7QqJ7haEpTCl14JFrJuI3N05JXmuHWY8bZpfJ3o80RaEy34KHlo3D//2PqRjjMmNPmxf13X5NFr3ZwGDphALcMr8iOc12WQ24YXYZev0Rxf3ZjDp8dV45nv/6bFTlWbCx3o3uwSFNIp5r0ePm+RVYPD4fDE3BbGBwzYwSmPUMjnT5ZO9tgy5+/z5z+6ysB1slqP7YKBYLPQdJrHawGplRWToWiXHo9UdgMzKqgiCJCjYmPX1Klq5JEfYpHxwWrQklNowtsGoK2ngCEYSiHApsBtVug0SLEodZd0oCROc7iXvLrOFe4fl4HILleBQ5jKPay12JSIzDwQ5fskqZQUdjdmUOxrjMp/TzWY5HqyeEnS0DiMS4ZI2M2kKrJtfWyfC5F1ICgUDIltPSRZRAIBDOZ4iQEggEQpYQISUQCIQsIUJKIBAIWUKElEAgELKECCmBQCBkCRFSAoFAyBIipAQCgZAlREgJBAIhS4iQEggEQpYQISUQCIQsIUJKIBAIWUKElEAgELKECCmBQCBkCRFSAoFAyBIipAQCgZAlREgJBAIhS0a9rz1BG0Mcjxs3dWFzb1j2dYuOwvw8E344KRdz84yq9umLcrh+Uxd2eEYaoNXY9FizuARFpvSdPRt8UVy1oRM94Xjvm1uq7PjjnJHGhN4oh6vWd+KAN97X6PISC15ZmNpldE1HEHd+2oMwy0NPU/jL3AJcXxHvKzTE8nhwdx9eao4346MA/NekHPxwUq5oH9JzMz3HgLcuLoFDLx7/P+wK4dat3QixPCgAj0xz4Z66kSaIzYEYln3cge7h73TveCcemarcu8cX5bDy2CCeb/KhPRQDx8evw8J8M/5nmgvjHaRNCkEMsUjPMIEYD09EuWFgMMbjo+4Qbtjchfc61XVc3NQbTgpdgv4ImxSSdLQGYvBFR47no+4QmgMjTdf6Ixx6h0b2U2GRH4u7wyzCw83udBTgHBY/HsBP93uSIgoAl5ZYcP/4nJR9SM9NroFJEVEAaA3GEBr+LB7AP1v9ou/QHIjCHxvpqFNlVRbCel8Uiz/swC8P9qMtGBdRIH4d1nUFcenHHXijLaC4PeHzCRHSM0x/hEWvCoHzRTm81OzP+D4ewD+afUkRG9mex2Fv5u6YHaGYaNvOUAyr20Y+dzDKISLoEFlmlrdwDwk+y6ajUWWLC+7KY4N47viIiE5xGvDH2fkwMqlN0aTnptomL9oNklbYR31RfNg90p7XG+GSLZaNNAWXQf627wmzuHNbD477lVsK+6IcHt7vQUtAe7dTwvkLEdIzjHuIxZBAmO6fkIMdy8qxY1k5fjnNBbvAAmvyR+GNpm93fWAggm19qT3NYzyPhjQCkaBviBW1x+UBvNziT071ewWWJgUgzygvpELr166nYdPReK8ziF8d7Ed0+PuWmBn85YICFCq4G6TnxqXwWVKLPszyeKZxMLmtJ8Il/1tHU3AqCOmTDd6kJU8BmOMyYvWiYvx9fiGqrCMi3hlisc0t74ohfD4hQnqG8Ua4pLBQAKqtOoy16THWpse3xzkwLWek7a7LKD+1FfLPNj/6huQt3PrBzELaHkrdtskfw7quuFtBOI02MRRKzalWIg+IBD9HT6M1EMP9u9zJKbddT+P3s/Ix2ancVlh4bgCgTOazAKBb5pj3DkSwY3hAEVrHFoaSdUd4IhzWdY1YsdNyDHjjomIsLjTj2nIrHp7qgnG4lXCM5xFkSfNdwggk2HSGaQ+xssLEA3itJYB9AyMiUGfXI11X8J4wizUdI37UCQ4DaGpESNqDMQRiHKxpenwf86WKbYzn8dxxH64us6I9NDKltehoVFhTb6H+CAe3QMwpCnhglxudw4Knpyn8ZHIuLi+xpPk24nNjZiiMURDAHpmBwxfl8NfGQSwoMImsY5eRRo7MYOQeEvuQ5+aZRLOBC/KM+NV0F6IcoKOBS4rNaY+d8PmCCOkZRujfC7E8btzcJfu+UrMO36x1pN3Xuq4gmvwjQndlmQX1g9ERIQ3F0DukLKSBGIdBBdfBAW8Em3rD8AhEy8xQMMv4NgejnMgq3inIHqAAfK3Gjm9l+C6A+NyYGAoFMi6AdMe8uTeM/QMRkXVsZWiYZI65LRBDMDbyvklOA3gAHcEYwsNW8eKiuHjqKAolCr5hwucTIqRnmHQR+wSVVh1eXFCEOrtytJkH8EZbADE+/tDnGRlcU2bFmwgA7fH3+GM8mgNRkb9PSJjlEWBHjqfUrIMnEveJhlkefz8+KApEOfS0rChLA1JSKiy6tJZ1AuG5MdCUrFsjxPJJqxWIp3k1+aPgEff3PtXgFVnHSscsDLKZGQplZgY9YRZXb+xKCT4VGBm8u6QEY20kDYoQh/hIzzBy/j0pbcEYXmlJH7E/MBDBXoEbYH6eEVNyDKgUiFYwxqEtTbR5IMrBMzQiXkuLzBgvEO8NPWGRdVloZGQj4MKAlBS59CQlhOcmT8E/LLUkr6+wokTgS/3XiQAaBe6KWoXBSBhk0w8HpPwxTvY4ldwDhM8v5G44g3ijYl/ihfmmZMR+9aJijBt+6DkeeL3VjwYZ/2UCYZDJxFD4apUdFIAKqw4W3UgO5+FB5RSotmBMFESZ5TLiq1V26Ki4FEc5sfVnVxATaQqVFGl6khzSc5NvZJArI9pSS3J+ngnLS0d8r2GWF0X+lSL2wiCbkaaQb2RSzkcCJfcA4fMLEdIzSJgVR3/HCCL2iwvNuHvcyOocX5RDq4I1KQ0yjbfrcVGBCUB8Gm0RPPSHvcpiHGF5cLw43/Lacqti/qbSKilpClWJmcH9E3KSgixNT5JDem6celrWHRBi+eRnJfyot1XbFdOylCL/wiBbgYlBroHB4kIzTlxbiRPXVmJW7siqMpdR3j1A+PxC7oYziHTqaJc8nN7IiJVEUxQYhaslDTLtHYhgzJstyF3VhDlrT4hWIvUMsYp+WWGUPJFvWWhiRBaekEkKqUtC687MUPjdrHzcVesQCbIwPUkO6blREm2hlZ7wo07JMWC+zHJapci/FPcQKwqWtQVj6AiPnN/pueqW6hI+PxAhPYM0+2PwC/x7xSYGjf4oGv1RrDw2iD83DCZfyzXQssGNIY7HKy3+ZJApE71hFv0Reb+sMEouzLdcUWlDsSRKnW6FkNC6G2PVYa7LiEITg1ur7Umr0hfl0vp9pedGSbSbAyOflfCjUgDuqHGkZBQoRf4Bse+0J8zirs96sb4nhH+dCOCWLT3oGh4cEkE8AkEIEdIziHuIhTCW8cuD/Ziz9gTmrD2Bh/b0iXyEy0ossonkO/qGREGmTPhjnCj4IkRoqQoDKhMcBlxSJLZKlVYISdORhP7EL5WJA0EfdAdxRMFnKzw3SqI9xPGiNfRCP+oXCk2Y7RJbjkqRfyB+foXCu6t/CNdt7MId23rQOBy1pwB8eYwVU3OUFxEQPp8QIT2DeKNcRkuSQjx6/uPJubKvv9IyEgHX0xSemluA/hurRT+PzchLvj/E8qIiJEKEUXJpQGVFpU0UXFJaISRNoRL6E6usOpGboCvEKlqlwnOjLNq8SLSFflQjTWFFpS3plwWUI/8AsLTYjNtr7KAVYkg0BdxeY8fDU5SrRhE+vxAhPYOki8IbaQrTcwxYeUEBXv1CkWzEui0Yw/qekej3JIceV8r4M6usOpG1Jfe50ii5NKAyJ8+IeQK/YyIgI0WaQjVOkm4kDQS92xkU+XDljtGmo2QrNkkT/8st4uO5otSKOkHJu2KTfOQfiA9Yj07Pw9/mFaLOoYd+WFEtOgoLC0x45+IS/H6WfHEVAoHqV+tcIxAIBIIsxCIlEAiELCFCSiAQCFlChJRAIBCyhAgpgUAgZAkRUgKBQMgSIqQEAoGQJURICQQCIUuIkBIIBEKWECElEAiELCFCSiAQCFlChJRAIBCyhAgpgUAgZAkRUgKBQMgS0o5ZA/fscOPFZp/sazQFjLHo8JPJubhhjE2x3XC6fQgZY9Xh3cUlKJX0GNo/EMF1m7qS5ePuHe/EI1NTa2T+YHcf/tYYr7Bv19N4eUERFg73cUrw9LFB/HSfB9Hh3km/m5WPO2rsGY/tlRY/7t3pTm4HAD+fkovvTcjJuG2CRn8UvzrQj497QhiIcKAQL823otKGByfkKDbWG+J43LipC5t7wwCA6TkGvHVxSUqd0QZfFFdt6ERPOH6ebqmy449z8pOve6McrlrfiQPeeGHpy0sseGVhUcrnrekI4s5Pe9I28wPitWD/MrcA11eIq+dLr5d0m2qbDt8Z58TNVeLaqYRzC2KRauBEULmVMccDzYEYvrPDjZXHBhXfl24fQmw6GiaZJk09YVbUfliuTicgbvfhi3J4qsErakh30BvB40cHkmJIAdCpeI6HOB4vNftEIgoAR9LUVpXyfJMPF61rx+oTAQwMV+XnEf9uTxz1Ytn6TsVGf4EYL6rkn2uQL9bcGoiJej591B0SFbTuj3CiOqhyRaoBoDtNa2khOipeWFqK9HoJiXI86gejuH+nG7du6cGQis8hnJ0QIVWJJ8KhR8aqkBLl4h0yE5bQyewDUO4Z3xqMJRvUmRkKZebU4srSIs0AsLk3jK3uuBXni3L43k43OgUV8U0MlWL9yqHU2qRhMIqAgmAIea8ziJ/u84jaOks55I3gZ/s9kHtHf4RFr+DcKnU4lbaE7gzFsLptpBr/YJRDRDAYyJ3HxLGowaajUSVzLMLrpQQP4MPuEFafCKj6LMLZB5naq0Tai+jaciv+e0q8/UezP4bv7XInrc2OEItDgxEUmsyq9yFFrvo8ALSHRqwqvUILDmkrYyAuri82+XBBnhH/c7AfOz3iDp4WHY0Ka+bbQdjaREiiO2m6NsW+KIdfH+xPbm+kKdxUacMdNXas6QjiT/XepOjs9AzhRDCWYim6h1hRG2eXQttlaUtoHsDLLX7cXGVHoYlBr8DSpADF9s3dAtGusuqw8oJCuIyp39FEUyiVsWqF1yvHQOMvcwtQa9djIMLhZ/s82DI8uEU5Hms6glhRaZM9DsLZDRFSlYRYXmRZ5BuZZFfPsTY97qyx45ED/QAAjufByhhn0n2UmBnZzqDp8AgsTSNNIV9GAKStjBO83xXCk/WDeLHJl2LtmRkqpeumlOZADB91h2RfG4xy6AilCp+Qz/qGUC9wAdw1zoGHh/27M3KNaA3G8OpwD6chlhdZjAm8EU7kVlDqUy9sCZ2gyR/Duq4gbq6yiyxFJWucR3wASmDT0ahz6GWn8EoIr5eeolBr1yev+e9n52P5+s6k/1TumhHODYiQqqQtEBP5uqTtgYUPrpJ1J93HOLv2bpTC/vVKfZOkrYwT9A2x+Pl+j+x+HXo6rTUJAP9uD6Bz2MLSURSWl1qwpiOIGM8jGOPR7I9hXp7y9o3+qMgtcVGB2GK/o8aOGTnxvlAuI41yGXFrD7GifSj1qT8m47ON8TyeO+7D1WVWkaWodL36I2IXSb6R0SSiQPrrxVBi35qSm4Jw9kOunEqEPjcDTYHleTT6o2B5YFWrHy8JIvETHXpUyjyYUr/dA7vceGCXO/nvKU4D3l5coviwSn2fcfFLtSKFrYwpxF0AUuvOSFOgKCSPR8knm8AX5fDPVn/Ski02M7i2wor1PSEMRnnEeB57B4ZwU5qpqbihXdynOMTy6AyzYHke+UYGl5bExdWuo2UbzTX4RnyWSn3qpS4UIQe8EWzqDYssRSVrXNpcb31PCLmrmpL/tupovLigEIsLzSnbApmvF8sDwqNUclMQzn6IkKpE6HOLcDx+sLtP9n12PY3v1jlhlOnrK/XbSclk8Uh9nzYdJfs5wlbGJobCbdV2PN/kE/kEryqzYlf/EJqGe7YXKQRbEkin5YsLzZjjMsKhp5Oila4rKgA0B0Zedxlp5OhprO0M4tuf9Yr8non9r15UnLIPYcReqU+9tCV0qVkHTyTuEw2zPP5+fFA0oClZ49KAlBSlltTC40h3vaQzFCU3BeHsh0TtVSLnc5Pi1NP43cw8XF6S2hJZzT6UcicTSH2fSqlPUstvRaUNUwSuiNkuI75b54BfsC97hmn9v04EklNquz6+T4c+LoYJukKsyKcoZIjj4Y+NiIqVoWFiKHgiXIqIAsrT3G7BOVTqUy9tCb20yIzxgrbQG3rComCbkjXemyH1ychQMMgMZAkyXS/hDEUpA4NwbkCGQJUIrSk5Kiw6/GtRMWrSBI+E+xhn1+PpCwpEQqAUqU/QFoyJLBxpz3i5z7HraZSYdfjGWAf2D7hRaGLwh9n56AqxIj+q1Ocr3p84yDQ9x4A5eUYYaQrFZgYHvPG/9w6x6I9wslZ1IMaLptsJK1A4VRciN82VTpXzjfJ96qXnaZbLiKk5Bhzc60GM5xHleAivptIAJhW6387Mx7x8Y/J1pUi90nFIr5dwhqKUgUE4NyBXTgVSa2qS04DGqyvxc0HqUk+YxX6Z/EqlfeQZGUxyGjDWpk/+pPNRAvGIdWzYetNRlKxg8QAEs19YGAomJp5m1HV9FfYtr8Bkp0HkRzXSVNrPlgaZVlTaklNUoZU1GOXQqDC9l+Z/1g6LyqPT89B/YzXWLhlZnUQBqJQRKOlU2amnZVeQRVge3LBrI/Hdri23Klq5RTJ+VkAsdCaGwpQc8fUqs+gUV7ABma9Xq2BxhlIGBuHcgAipCqTWVGIqeGGBKfnwD3E83u0Mqt6HiZb3b6ZDOA3W05B98NRGmoV+VF0aa0gaZIrxPL67w43cVU3IXdWUXIYKxNO7WlWu3Druj4r8xXv7IwjGRlwHdY5Ua1s6VVYSQGFkP/HdCk0MlpfKu1yUrHGhK0ZHUbKBvXSku14doRg29oRF34UI6bkLmdqrQGk1zRSnAbU2PXb1x/1t2/uG0B1mZR9w6T5KzAwa/fLWW7GJkQ1+CFfZKK2kkUaalawwoR81XdBkU28YRzUs/1RaCZRrYFBgYpLLMjf1hnHfTje+XmPH2s4g/lw/mBT2aTkGzMg1puxDmtalJIBCd4Hwu62otOHVVj+6QuJcXCVrXJhClWOIB9XkrpldFxdqKcJzYdHRYOh4ClgiGV+4rxm5Rs2pVYSzByKkKlBaTWPV0bio0JQU0vZgDNvcYVxTbs24j5db/Hi5xZ/yPkC5AIhwlY1dT8OmItKslFIjF0GXwgP4R7NP1VrzBPW+uKUptd1cBhoL8k1JcYlyPF5o8uGFJnEBF7uexv0TcmStdbXuCGFkX/jdJjgMuKTIIioao2SNS1OoGnxRLP2wQ/bz5ueb8K9FxSnHLLxefUMsrtvYJbt9iZnBXeMcsq8Rzg3IEKgC4Woaqf/u0mJLMliRbnovXZGjhNJyRekqm4TvU4o00iyXUqMUQZdyYCCCbX0j0e05LiNar6lE/43VyZ9jXxqD8YJpeHc4JsrRFPKDiTmylmaCRNbD0iLlvEw17ghhZF/63VZU2kTBJSVrXJpClQ65NDTp9VIi38jgz3MKMDlNsI9w9kOEVAVCn5t0FcxEp0H0IO7yDMkWLBHuIx1qV9kUm+V9n8JIs1VHy07tpf5al1E+j/LN9kDSTaCjKHytxp4S4XYZGRSZRj7DM8RhQEFACk0M3lpUjHvHO1FoYkAhPnAUmhjcXGXH9mXluHGM2oR+SloWdCUAAAClSURBVDb9SxrZl363OXlGzMsbEXOl1WHSFKp0yGVPSK+XEJqKZ3ncNc6BLZeVYYnCwEE4d6D6E0M8gUAgEE4KYpESCARClhAhJRAIhCwhQkogEAhZQoSUQCAQsoQIKYFAIGQJEVICgUDIEiKkBAKBkCVESAkEAiFLiJASCARClhAhJRAIhCwhQkogEAhZQoSUQCAQsoQIKYFAIGQJEVICgUDIkv8PMa+4pCyXyZ4AAAAASUVORK5CYII=;" vertex="1" parent="1">
          <mxGeometry x="340" y="-260" width="156.16" height="140" as="geometry" />
        </mxCell>
      </root>
    </mxGraphModel>
  </diagram>
</mxfile>
